G04 DipTrace 3.3.1.3*
G04 Bottom.gbr*
%MOIN*%
G04 #@! TF.FileFunction,Copper,L2,Bot*
G04 #@! TF.Part,Single*
G04 #@! TA.AperFunction,Conductor*
%ADD14C,0.011811*%
%ADD15C,0.005906*%
G04 #@! TA.AperFunction,CopperBalancing*
%ADD16C,0.025*%
%ADD17C,0.012992*%
G04 #@! TA.AperFunction,ComponentPad*
%ADD20R,0.062992X0.062992*%
%ADD21C,0.062992*%
%ADD23C,0.070866*%
%ADD27C,0.06*%
%ADD28R,0.06X0.06*%
%ADD35C,0.048*%
G04 #@! TA.AperFunction,ViaPad*
%ADD36C,0.027559*%
%FSLAX26Y26*%
G04*
G70*
G90*
G75*
G01*
G04 Bottom*
%LPD*%
X2718790Y768718D2*
D14*
X2168530D1*
X2080709Y856539D1*
X2003445D1*
X1992618Y845713D1*
X1877982D1*
X1870108Y853587D1*
X1840551D1*
X2080709Y856539D2*
X2092520Y868350D1*
Y1250591D1*
X1840551Y853587D2*
X1774379D1*
X1683858Y944108D1*
Y1242717D1*
X2718790Y893718D2*
X2737541Y874967D1*
X3306290D1*
X3349559Y918236D1*
Y1168701D1*
Y1277550D1*
X3484753Y1412744D1*
Y1487297D1*
X3306290Y874967D2*
Y662467D1*
X3349559Y1168701D2*
X3256201D1*
X2160958Y1423375D2*
D15*
Y1285794D1*
X2131472Y1256308D1*
X2784753Y1487297D2*
Y1003430D1*
X2668256Y886933D1*
X2452240D1*
X2437992Y901181D1*
X1584753Y1487297D2*
Y1400650D1*
X1606240Y1379163D1*
X2684753Y1487297D2*
Y1003430D1*
X2622946Y941623D1*
X2369948D1*
X2307264Y1004307D1*
Y1095850D1*
X2323957Y1112543D1*
X2350245D1*
X2584753Y1487297D2*
Y1035703D1*
X2503173Y954123D1*
X2394948D1*
X2332487Y1016584D1*
Y1080710D1*
X2190945Y801378D2*
Y1039148D1*
X2190213Y641613D2*
Y633727D1*
X2143974Y587488D1*
X1350140D1*
X1212539Y725089D1*
Y1390778D1*
X1135865Y1467453D1*
Y1713222D1*
X1166361Y1743718D1*
X1306290D1*
X1334337Y1715671D1*
Y1536881D1*
X1284753Y1487297D1*
X2356546Y1050171D2*
Y1017524D1*
X2407446Y966623D1*
X2451197D1*
X2484753Y1000180D1*
Y1487297D1*
X2401197Y1022873D2*
Y1054123D1*
X2384753Y1070567D1*
Y1487297D1*
Y1579123D1*
X2382446D1*
X2432446Y991623D2*
X2435453D1*
Y1616630D1*
X2443790Y1624967D1*
Y1643718D1*
Y1644782D1*
X2486304Y1687297D1*
X2484753D1*
X2584753D2*
X2533272Y1635815D1*
Y1137469D1*
X2531290D1*
X2684753Y1687297D2*
Y1565930D1*
X2636100Y1517277D1*
Y1101526D1*
X2607446Y1072873D1*
X2784753Y1687297D2*
X2735190Y1637734D1*
Y997618D1*
X2647946Y910374D1*
X2519948D1*
X2884753Y1687297D2*
X2834345Y1636888D1*
Y1187469D1*
X2831290D1*
X2984753Y1687297D2*
X2936504Y1639047D1*
Y1218718D1*
X2931290D1*
X782446Y1822873D2*
Y1687297D1*
X784753D1*
X1031290Y1137469D2*
Y1640760D1*
X984753Y1687297D1*
X1762541Y749967D2*
Y748799D1*
X1791413D1*
X1800039Y737469D1*
X2731291D1*
X2750039Y756217D1*
Y843718D1*
X2734600Y859157D1*
X2414913D1*
X2284753Y989318D1*
Y1487297D1*
X2194948Y1116623D2*
X2235672Y1157348D1*
Y1638215D1*
X2284753Y1687297D1*
X1894201Y1309194D2*
Y1330807D1*
X1884753Y1340255D1*
Y1487297D1*
X1784753Y1687297D2*
X1841175Y1743718D1*
X1934542D1*
X1951184Y1760360D1*
X2988711D1*
X3031290Y1717781D1*
Y1540760D1*
X3084753Y1487297D1*
X1934542Y1743718D2*
X1935787D1*
Y1185735D1*
X1929138Y1179085D1*
X1794924D1*
X1760630Y1144791D1*
Y960209D1*
X1838709Y882130D1*
X1966535D1*
X1684753Y1687297D2*
X1690133D1*
X1732748Y1644681D1*
Y1045022D1*
X1737992Y1019996D1*
X1684753Y1687297D2*
X1685573D1*
X1771803Y1773526D1*
X3072877D1*
X3134539Y1711864D1*
Y1537510D1*
X3184753Y1487297D1*
X2029528Y817533D2*
X1740239D1*
X1635966Y921806D1*
Y1636084D1*
X1584753Y1687297D1*
X1684047Y1786591D1*
X3262203D1*
X3335168Y1713626D1*
Y1537711D1*
X3284753Y1487297D1*
X2061024Y777799D2*
X1678909D1*
X1536852Y919857D1*
Y1593718D1*
X1531290D1*
X1484753Y1640255D1*
Y1687297D1*
X2092520Y643013D2*
X2068224Y618718D1*
X1593790D1*
X1434790Y777718D1*
Y1637260D1*
X1384753Y1687297D1*
X1500297Y1802840D1*
X3369210D1*
X3484753Y1687297D1*
X2659185Y1579995D2*
X2637825D1*
X2635134Y1582686D1*
Y1716539D1*
X2607955Y1743718D1*
X2048039D1*
X2034932Y1730610D1*
X3360630Y1568385D2*
X3384753Y1592508D1*
Y1687297D1*
X2034932Y1730610D2*
X2034881D1*
Y1031811D1*
X2032480D1*
X1184753Y1687297D2*
X1236049Y1636001D1*
Y727297D1*
X1361377Y601969D1*
X2115588D1*
X2155512Y641892D1*
X1084753Y1687297D2*
Y1693929D1*
X1207702Y1816878D1*
X3433024D1*
X3536799Y1713102D1*
Y1663067D1*
X3434661Y1560929D1*
Y1455888D1*
X3393486Y1414713D1*
X3221584D1*
X3173430D1*
X3094948Y1336230D1*
Y1116623D1*
X3221584Y1414713D2*
X3234205Y1427333D1*
Y1639260D1*
X3186168Y1687297D1*
X3184753D1*
X584753Y1487297D2*
D14*
Y1402881D1*
X631201Y1356433D1*
Y800125D1*
X650125Y781201D1*
X693701D1*
X1795374Y1126575D2*
X1872047Y1049902D1*
Y958972D1*
X1900710Y484563D2*
X1949899Y435374D1*
X2231230D1*
X2757446D1*
X1619529Y500245D2*
X1645315D1*
X1660997Y484563D1*
X1900710D1*
X1093701Y781201D2*
Y552799D1*
X1135773Y510727D1*
X1146255Y500245D1*
X1619529D1*
X693701Y781201D2*
X741417Y828917D1*
X1045984D1*
X1093701Y781201D1*
X2063919Y1283642D2*
Y1371293D1*
X2084753Y1392127D1*
Y1487297D1*
X1872047Y958972D2*
X2040354D1*
X2063919Y982537D1*
Y1283642D1*
X2687541Y799967D2*
X2600007D1*
X2581273Y818701D1*
X2386619D1*
X2259325Y945995D1*
Y1181769D1*
X2258773Y1306218D2*
Y1181769D1*
X2259325D1*
X2544948Y816623D2*
X2581273D1*
Y818701D1*
X1093701Y781201D2*
Y735845D1*
X1203829Y625717D1*
X1271803Y557743D1*
X1624533D1*
Y558573D1*
X2202568D1*
X2237734Y593739D1*
Y596911D1*
X2251197Y610374D1*
X3276197Y816623D2*
X3230327Y770753D1*
Y757181D1*
X3231290Y756218D1*
X3012539Y524969D2*
Y664626D1*
X3104131Y756218D1*
X3231290D1*
X2757446Y435374D2*
X3274966D1*
X3346199Y506608D1*
X3182310Y1337206D2*
Y1142592D1*
X3256201Y1068701D1*
X1203219Y625106D2*
X1203829Y625717D1*
X731290Y1368718D2*
D15*
Y1640760D1*
X684753Y1687297D1*
X2332446Y1141623D2*
X2334295D1*
Y1636839D1*
X2384753Y1687297D1*
X2126885Y1126845D2*
X2184753Y1184714D1*
Y1487297D1*
X2103547Y1353240D2*
X2134896Y1384589D1*
Y1637440D1*
X2184753Y1687297D1*
X2793790Y712469D2*
X1712678D1*
Y712501D1*
X1169252Y715996D2*
Y805650D1*
X1093701Y881201D1*
X1506290Y937469D2*
Y808119D1*
X1626942Y687467D1*
X2862541D1*
Y681218D1*
X1984753Y1487297D2*
Y1290253D1*
X2000039Y1274967D1*
X1809055Y653453D2*
X1806290Y650688D1*
X2663697Y654123D2*
X2649102Y668718D1*
X1825041D1*
X1809776Y653453D1*
X1809055D1*
X1660782Y529150D2*
X1227723D1*
X1226924Y528350D1*
X1840551Y1244685D2*
X1837692D1*
Y1274816D1*
X1836373Y1276135D1*
Y1638916D1*
X1884753Y1687297D1*
D36*
X1135773Y510727D3*
X1809055Y653453D3*
X2663697Y654123D3*
X1809055Y653453D3*
X3012451Y1337451D3*
X2887451D3*
X3182310Y1337206D3*
X3476459Y1338176D3*
X3658816Y2010028D3*
X427003Y2010399D3*
Y427343D3*
X3661083Y426318D3*
X899950Y1274950D3*
X1131201D3*
X1781290Y1343718D3*
X1287451Y1362450D3*
X1399950Y1362451D3*
X1287451Y1187451D3*
X1399950D3*
X1281014Y978306D3*
X1381201Y918701D3*
X1574950Y1024951D3*
X2990438Y1082689D3*
X3276197Y816623D3*
X3492386Y990209D3*
X2782442Y951993D3*
X2983883Y843559D3*
X2687541Y799967D3*
X2259325Y1181769D3*
X2258773Y1306218D3*
X2162451Y987450D3*
Y849950D3*
X1203219Y625106D3*
X1624533Y558573D3*
X2157448Y1054123D3*
X2049950Y912451D3*
X1343701Y1274950D3*
X1593701D3*
X1781201D3*
X2251197Y610374D3*
X2984652Y904551D3*
X2544948Y816623D3*
X2537451Y1043701D3*
X2700441Y599197D3*
X3231290Y756218D3*
X3254961Y602483D3*
X3012539Y524969D3*
X1422942Y630370D3*
X1343890Y681248D3*
X2969205Y641787D3*
X2571366Y971073D3*
X3346199Y506608D3*
X1713143Y447764D3*
X1347752Y452970D3*
X956042Y643087D3*
X2327163Y904545D3*
X822165Y1187782D3*
X820356Y1361794D3*
X2584125Y640986D3*
X3041322Y903971D3*
X3040298Y843724D3*
X1840551Y853587D3*
X1683858Y1242717D3*
X2092520Y1250591D3*
X3306290Y662467D3*
X2718790Y768718D3*
Y893718D3*
X2131472Y1256308D3*
X2160958Y1423375D3*
X1606240Y1379163D3*
X2437992Y901181D3*
X2350245Y1112543D3*
X2332487Y1080710D3*
X2190945Y1039148D3*
Y801378D3*
X2190213Y641613D3*
X2356546Y1050171D3*
X2382446Y1579123D3*
X2401197Y1022873D3*
X2443790Y1643718D3*
X2432446Y991623D3*
X2531290Y1137469D3*
X2607446Y1072873D3*
X2519948Y910374D3*
X2831290Y1187469D3*
X2931290Y1218718D3*
X782446Y1822873D3*
X1031290Y1137469D3*
X1762541Y749967D3*
X2194948Y1116623D3*
X1894201Y1309194D3*
X1966535Y882130D3*
X1737992Y1019996D3*
X2029528Y817533D3*
X2061024Y777799D3*
X1531290Y1593718D3*
X2092520Y643013D3*
X2032480Y1031811D3*
X2659185Y1579995D3*
X3360630Y1568385D3*
X2034932Y1730610D3*
X2155512Y641892D3*
X3094948Y1116623D3*
X2862541Y681218D3*
X1506290Y937469D3*
X1712678Y712501D3*
X2793790Y712469D3*
X1619529Y500245D3*
X2063919Y1283642D3*
X1900710Y484563D3*
X1872047Y958972D3*
X2757446Y435374D3*
X1795374Y1126575D3*
X731290Y1368718D3*
X2332446Y1141623D3*
X2126885Y1126845D3*
X2103547Y1353240D3*
X1169252Y715996D3*
X2000039Y1274967D3*
X1226924Y528350D3*
X1660782Y529150D3*
X1840551Y1244685D3*
X427909Y1987597D2*
D16*
X491448D1*
X595954D2*
X3491474D1*
X3595945D2*
X3660381D1*
X427909Y1962728D2*
X464356D1*
X623047D2*
X3464381D1*
X3623037D2*
X3660381D1*
X427909Y1937860D2*
X451222D1*
X636181D2*
X3451211D1*
X3636171D2*
X3660381D1*
X427909Y1912991D2*
X446054D1*
X641348D2*
X3446045D1*
X3641337D2*
X3660381D1*
X427909Y1888122D2*
X447525D1*
X639877D2*
X3447551D1*
X3639866D2*
X3660381D1*
X427909Y1863253D2*
X456030D1*
X631373D2*
X3456020D1*
X3631362D2*
X3660381D1*
X427909Y1838385D2*
X474115D1*
X613286D2*
X742781D1*
X822097D2*
X1185089D1*
X3455638D2*
X3474105D1*
X3613277D2*
X3660381D1*
X427909Y1813516D2*
X518648D1*
X568755D2*
X740772D1*
X824106D2*
X1160185D1*
X3480541D2*
X3518638D1*
X3568744D2*
X3660381D1*
X427909Y1788647D2*
X750496D1*
X814382D2*
X1135318D1*
X3505408D2*
X3660381D1*
X427909Y1763778D2*
X750496D1*
X814382D2*
X1110450D1*
X3530277D2*
X3660381D1*
X427909Y1738909D2*
X548037D1*
X621469D2*
X648046D1*
X721478D2*
X748020D1*
X821487D2*
X848029D1*
X921461D2*
X948038D1*
X1021470D2*
X1048047D1*
X3555144D2*
X3660381D1*
X427909Y1714041D2*
X526399D1*
X3568744D2*
X3660381D1*
X427909Y1689172D2*
X520370D1*
X3568744D2*
X3660381D1*
X427909Y1664303D2*
X524748D1*
X3568744D2*
X3660381D1*
X427909Y1639434D2*
X542978D1*
X626564D2*
X642951D1*
X3557297D2*
X3660381D1*
X427909Y1614566D2*
X699361D1*
X3532429D2*
X3660381D1*
X427909Y1589697D2*
X699361D1*
X3507562D2*
X3660381D1*
X427909Y1564828D2*
X699361D1*
X3482694D2*
X3660381D1*
X427909Y1539959D2*
X549688D1*
X619818D2*
X649661D1*
X3519835D2*
X3660381D1*
X427909Y1515091D2*
X526902D1*
X3542584D2*
X3660381D1*
X427909Y1490222D2*
X520407D1*
X3549115D2*
X3660381D1*
X427909Y1465353D2*
X524353D1*
X3545168D2*
X3660381D1*
X427909Y1440484D2*
X541722D1*
X627783D2*
X641731D1*
X827802D2*
X841714D1*
X927776D2*
X941723D1*
X1327777D2*
X1341723D1*
X3027790D2*
X3041701D1*
X3127799D2*
X3141710D1*
X3527801D2*
X3660381D1*
X427909Y1415615D2*
X699361D1*
X763247D2*
X999353D1*
X1063239D2*
X1143571D1*
X1267993D2*
X1402835D1*
X1764702D2*
X1804415D1*
X2066811D2*
X2102934D1*
X2866276D2*
X2904551D1*
X2968437D2*
X3130192D1*
X3519655D2*
X3660381D1*
X427909Y1390747D2*
X695091D1*
X767517D2*
X999353D1*
X1063239D2*
X1168438D1*
X1267993D2*
X1402835D1*
X1764702D2*
X1804415D1*
X2066811D2*
X2086392D1*
X2866276D2*
X2904551D1*
X2968437D2*
X3105324D1*
X3511042D2*
X3660381D1*
X427909Y1365878D2*
X688631D1*
X773976D2*
X999353D1*
X1063239D2*
X1180604D1*
X1267993D2*
X1402835D1*
X1764702D2*
X1804415D1*
X2866276D2*
X2904551D1*
X2968437D2*
X3080455D1*
X3168743D2*
X3389563D1*
X3486210D2*
X3660381D1*
X427909Y1341009D2*
X699576D1*
X763031D2*
X999353D1*
X1063239D2*
X1180604D1*
X1267993D2*
X1402835D1*
X1568811D2*
X1590867D1*
X1764702D2*
X1804415D1*
X2866276D2*
X2904551D1*
X2968437D2*
X3063375D1*
X3143875D2*
X3364694D1*
X3461343D2*
X3660381D1*
X427909Y1316140D2*
X479139D1*
X608262D2*
X999353D1*
X1063239D2*
X1180604D1*
X1267993D2*
X1402835D1*
X1568811D2*
X1604037D1*
X1764702D2*
X1804415D1*
X2066811D2*
X2085387D1*
X2866276D2*
X2904551D1*
X2968437D2*
X3063016D1*
X3126902D2*
X3339827D1*
X3436475D2*
X3479130D1*
X3608253D2*
X3660381D1*
X427909Y1291272D2*
X458507D1*
X628896D2*
X999353D1*
X1063239D2*
X1180604D1*
X1267993D2*
X1402835D1*
X1568811D2*
X1604037D1*
X1764702D2*
X1804415D1*
X2066811D2*
X2108999D1*
X2866276D2*
X2904551D1*
X2968437D2*
X3063016D1*
X3126902D2*
X3317722D1*
X3411608D2*
X3458531D1*
X3628886D2*
X3660381D1*
X427909Y1266403D2*
X448566D1*
X638836D2*
X999353D1*
X1063239D2*
X1180604D1*
X1267993D2*
X1402835D1*
X1568811D2*
X1604037D1*
X1764702D2*
X1804127D1*
X2866276D2*
X2904551D1*
X2968437D2*
X3063016D1*
X3126902D2*
X3314672D1*
X3386740D2*
X3448556D1*
X3638862D2*
X3660381D1*
X427909Y1241534D2*
X445839D1*
X641563D2*
X999353D1*
X1063239D2*
X1180604D1*
X1267993D2*
X1402835D1*
X1568811D2*
X1604037D1*
X1764702D2*
X1797919D1*
X2866276D2*
X2895617D1*
X2968437D2*
X3063016D1*
X3126902D2*
X3314672D1*
X3384444D2*
X3445829D1*
X3641554D2*
X3660381D1*
X427909Y1216665D2*
X449714D1*
X637688D2*
X999353D1*
X1063239D2*
X1180604D1*
X1267993D2*
X1402835D1*
X1568811D2*
X1604037D1*
X1764702D2*
X1809115D1*
X1967735D2*
X2002925D1*
X2866276D2*
X2888583D1*
X2974000D2*
X3063016D1*
X3126902D2*
X3195717D1*
X3384444D2*
X3449740D1*
X3637677D2*
X3660381D1*
X427909Y1191797D2*
X461161D1*
X626241D2*
X999353D1*
X1063239D2*
X1180604D1*
X1267993D2*
X1402835D1*
X1568811D2*
X1604037D1*
X1967735D2*
X2002925D1*
X2873811D2*
X2898846D1*
X2963736D2*
X3063016D1*
X3126902D2*
X3195717D1*
X3384444D2*
X3461151D1*
X3626231D2*
X3660381D1*
X427909Y1166928D2*
X484594D1*
X602808D2*
X999353D1*
X1063239D2*
X1180604D1*
X1267993D2*
X1402835D1*
X1568811D2*
X1604037D1*
X1960953D2*
X2002925D1*
X2868428D2*
X3063016D1*
X3126902D2*
X3195717D1*
X3384444D2*
X3484584D1*
X3602798D2*
X3660381D1*
X427909Y1142059D2*
X988766D1*
X1073789D2*
X1180604D1*
X1267993D2*
X1402835D1*
X1568811D2*
X1604037D1*
X1802022D2*
X2002925D1*
X2816684D2*
X3061222D1*
X3128660D2*
X3195717D1*
X3384444D2*
X3660381D1*
X427909Y1117190D2*
X994005D1*
X1068585D2*
X1180604D1*
X1267993D2*
X1402835D1*
X1568811D2*
X1604037D1*
X1792584D2*
X2002925D1*
X2239665D2*
X2252823D1*
X2816684D2*
X3052180D1*
X3137703D2*
X3195717D1*
X3384444D2*
X3660381D1*
X427909Y1092322D2*
X1180604D1*
X1267993D2*
X1402835D1*
X1568811D2*
X1604037D1*
X1792584D2*
X2002925D1*
X2229546D2*
X2252823D1*
X2516692D2*
X2552815D1*
X2816684D2*
X3060325D1*
X3129558D2*
X3200740D1*
X3384444D2*
X3660381D1*
X427909Y1067453D2*
X1180604D1*
X1267993D2*
X1402835D1*
X1568811D2*
X1604037D1*
X1792584D2*
X2002925D1*
X2127420D2*
X2159811D1*
X2222083D2*
X2252823D1*
X2516692D2*
X2552815D1*
X2816684D2*
X3195717D1*
X3384444D2*
X3660381D1*
X427909Y1042584D2*
X1180604D1*
X1267993D2*
X1402835D1*
X1568811D2*
X1604037D1*
X1792584D2*
X1991192D1*
X2127420D2*
X2148328D1*
X2233566D2*
X2252823D1*
X2516692D2*
X2547504D1*
X2636472D2*
X2652824D1*
X2816684D2*
X3201924D1*
X3384444D2*
X3660381D1*
X427909Y1017715D2*
X1180604D1*
X1267993D2*
X1402835D1*
X1568811D2*
X1604037D1*
X1792584D2*
X1992268D1*
X2127420D2*
X2154357D1*
X2227537D2*
X2252823D1*
X2610564D2*
X2652824D1*
X2816684D2*
X3226073D1*
X3286336D2*
X3314672D1*
X3384444D2*
X3660381D1*
X427909Y992846D2*
X1180604D1*
X1267993D2*
X1402835D1*
X1568811D2*
X1604037D1*
X1792584D2*
X2019791D1*
X2127420D2*
X2158986D1*
X2222871D2*
X2252823D1*
X2586055D2*
X2630038D1*
X2814745D2*
X3314672D1*
X3384444D2*
X3660381D1*
X427909Y967978D2*
X1180604D1*
X1267993D2*
X1402835D1*
X1568811D2*
X1604037D1*
X1796999D2*
X2057613D1*
X2127420D2*
X2158986D1*
X2222871D2*
X2261938D1*
X2793430D2*
X3314672D1*
X3384444D2*
X3660381D1*
X427909Y943109D2*
X1180604D1*
X1267993D2*
X1402835D1*
X1568811D2*
X1604037D1*
X1821866D2*
X2057613D1*
X2127420D2*
X2158986D1*
X2222871D2*
X2286806D1*
X2768563D2*
X3314672D1*
X3384444D2*
X3660381D1*
X427909Y918240D2*
X648549D1*
X1152698D2*
X1180604D1*
X1267993D2*
X1402835D1*
X1582626D2*
X1604252D1*
X1846734D2*
X1946193D1*
X1986862D2*
X2057613D1*
X2127420D2*
X2158986D1*
X2222871D2*
X2311673D1*
X2753240D2*
X3301252D1*
X3384444D2*
X3660381D1*
X427909Y893371D2*
X636025D1*
X1152698D2*
X1180604D1*
X1267993D2*
X1402835D1*
X1607493D2*
X1620257D1*
X2007710D2*
X2057613D1*
X2127420D2*
X2158986D1*
X2222871D2*
X2336541D1*
X3372996D2*
X3458029D1*
X3509894D2*
X3660381D1*
X427909Y868503D2*
X636169D1*
X1152698D2*
X1180604D1*
X1267993D2*
X1402835D1*
X1632362D2*
X1645125D1*
X2127420D2*
X2158986D1*
X2222871D2*
X2361445D1*
X3348129D2*
X3439083D1*
X3528841D2*
X3660381D1*
X427909Y843634D2*
X649016D1*
X1267993D2*
X1402835D1*
X1657230D2*
X1669992D1*
X2141917D2*
X2158986D1*
X2222871D2*
X2386312D1*
X3341202D2*
X3438975D1*
X3528949D2*
X3660381D1*
X427909Y818765D2*
X649016D1*
X1267993D2*
X1402835D1*
X1682097D2*
X1694860D1*
X2229761D2*
X2718097D1*
X2781983D2*
X3271396D1*
X3341202D2*
X3457455D1*
X3510504D2*
X3660381D1*
X427909Y793896D2*
X636169D1*
X1267993D2*
X1402835D1*
X2781983D2*
X3271396D1*
X3341202D2*
X3660381D1*
X427909Y769028D2*
X636025D1*
X1267993D2*
X1404163D1*
X2781983D2*
X3271396D1*
X3341202D2*
X3660381D1*
X427909Y744159D2*
X648549D1*
X1267993D2*
X1424222D1*
X2821133D2*
X3271396D1*
X3341202D2*
X3660381D1*
X427909Y719290D2*
X1126598D1*
X1288197D2*
X1449089D1*
X2878154D2*
X3271396D1*
X3341202D2*
X3456738D1*
X3511186D2*
X3660381D1*
X427909Y694421D2*
X1132734D1*
X1313064D2*
X1473957D1*
X2903093D2*
X3271396D1*
X3341202D2*
X3438867D1*
X3529092D2*
X3660381D1*
X427909Y669552D2*
X1223951D1*
X1337932D2*
X1498824D1*
X2903594D2*
X3264147D1*
X3348451D2*
X3439226D1*
X3528697D2*
X3660381D1*
X427909Y644684D2*
X1248819D1*
X1362799D2*
X1523693D1*
X2705335D2*
X2843083D1*
X2881992D2*
X3267664D1*
X3344934D2*
X3458819D1*
X3509105D2*
X3660381D1*
X427909Y619815D2*
X1273688D1*
X2226568D2*
X2390726D1*
X2486656D2*
X2580732D1*
X2687285D2*
X2873081D1*
X2964526D2*
X3063052D1*
X3154497D2*
X3660381D1*
X427909Y594946D2*
X1298555D1*
X2195564D2*
X2385774D1*
X2491609D2*
X2575781D1*
X2681615D2*
X2865797D1*
X2971774D2*
X3055803D1*
X3161782D2*
X3660381D1*
X427909Y570077D2*
X1323423D1*
X2170697D2*
X2394028D1*
X2483356D2*
X2584034D1*
X2673362D2*
X2871682D1*
X2965890D2*
X3061689D1*
X3155896D2*
X3660381D1*
X427909Y545209D2*
X1187852D1*
X1700219D2*
X2902291D1*
X2935316D2*
X3092262D1*
X3125287D2*
X3660381D1*
X427909Y520340D2*
X1184946D1*
X1702587D2*
X3660381D1*
X427909Y495471D2*
X1201165D1*
X1252671D2*
X1636189D1*
X1685362D2*
X3660381D1*
X427909Y470602D2*
X3660381D1*
X427909Y445734D2*
X3660381D1*
X3207399Y1226689D2*
X3314189D1*
Y1201104D1*
X3317161Y1205446D1*
X3317261Y1280092D1*
X3318056Y1285113D1*
X3319627Y1289948D1*
X3321936Y1294478D1*
X3324924Y1298591D1*
X3372121Y1345929D1*
X3452378Y1426186D1*
X3452356Y1431942D1*
X3412609Y1392323D1*
X3408870Y1389606D1*
X3404753Y1387509D1*
X3400360Y1386081D1*
X3395795Y1385358D1*
X3310808Y1385268D1*
X3185592D1*
X3124396Y1324037D1*
X3124392Y1144070D1*
X3127528Y1140294D1*
X3130829Y1134907D1*
X3133248Y1129068D1*
X3134723Y1122924D1*
X3135219Y1116623D1*
X3134723Y1110323D1*
X3133248Y1104178D1*
X3130829Y1098340D1*
X3127528Y1092953D1*
X3123424Y1088147D1*
X3118618Y1084043D1*
X3113231Y1080741D1*
X3107392Y1078323D1*
X3101248Y1076848D1*
X3094948Y1076352D1*
X3088647Y1076848D1*
X3082503Y1078323D1*
X3076664Y1080741D1*
X3071277Y1084043D1*
X3066471Y1088147D1*
X3062367Y1092953D1*
X3059066Y1098340D1*
X3056647Y1104178D1*
X3055172Y1110323D1*
X3054676Y1116623D1*
X3055172Y1122924D1*
X3056647Y1129068D1*
X3059066Y1134907D1*
X3062367Y1140294D1*
X3065503Y1144182D1*
X3065593Y1338539D1*
X3066316Y1343104D1*
X3067744Y1347497D1*
X3069841Y1351614D1*
X3072558Y1355353D1*
X3132588Y1415512D1*
X3151898Y1434822D1*
X3144535Y1440209D1*
X3137665Y1447079D1*
X3134761Y1450764D1*
X3128541Y1443509D1*
X3121152Y1437198D1*
X3112866Y1432121D1*
X3103890Y1428402D1*
X3094441Y1426134D1*
X3084753Y1425371D1*
X3075066Y1426134D1*
X3065617Y1428402D1*
X3056640Y1432121D1*
X3048354Y1437198D1*
X3040966Y1443509D1*
X3034761Y1450764D1*
X3028541Y1443509D1*
X3021152Y1437198D1*
X3012866Y1432121D1*
X3003890Y1428402D1*
X2994441Y1426134D1*
X2984753Y1425371D1*
X2975066Y1426134D1*
X2965965Y1428304D1*
X2965949Y1239261D1*
X2968496Y1234129D1*
X2970449Y1228119D1*
X2971437Y1221878D1*
Y1215558D1*
X2970449Y1209316D1*
X2968496Y1203307D1*
X2965627Y1197676D1*
X2961913Y1192563D1*
X2957445Y1188094D1*
X2952332Y1184381D1*
X2946701Y1181512D1*
X2940692Y1179559D1*
X2934450Y1178571D1*
X2928130D1*
X2921888Y1179559D1*
X2915879Y1181512D1*
X2910248Y1184381D1*
X2905135Y1188094D1*
X2900667Y1192563D1*
X2896953Y1197676D1*
X2894084Y1203307D1*
X2892131Y1209316D1*
X2891143Y1215558D1*
Y1221878D1*
X2892131Y1228119D1*
X2894084Y1234129D1*
X2896953Y1239760D1*
X2900667Y1244873D1*
X2905135Y1249341D1*
X2907066Y1250862D1*
X2907059Y1429538D1*
X2899210Y1427083D1*
X2889612Y1425562D1*
X2879895D1*
X2870297Y1427083D1*
X2863782Y1429079D1*
X2863870Y1211139D1*
X2867172Y1205752D1*
X2869591Y1199913D1*
X2871066Y1193769D1*
X2871562Y1187469D1*
X2871066Y1181168D1*
X2869591Y1175024D1*
X2867172Y1169185D1*
X2863870Y1163798D1*
X2859766Y1158992D1*
X2854961Y1154888D1*
X2849573Y1151587D1*
X2843735Y1149168D1*
X2837591Y1147693D1*
X2831290Y1147197D1*
X2824990Y1147693D1*
X2818845Y1149168D1*
X2814207Y1151033D1*
X2814108Y1001121D1*
X2813385Y996556D1*
X2811957Y992163D1*
X2809860Y988046D1*
X2807143Y984307D1*
X2746173Y923209D1*
X2749413Y919873D1*
X2753127Y914760D1*
X2755996Y909129D1*
X2756651Y907356D1*
X3292849Y907365D1*
X3317154Y931648D1*
X3317161Y1136304D1*
X3314189Y1134825D1*
Y1110713D1*
X3296139D1*
X3300294Y1106362D1*
X3304701Y1100487D1*
X3308329Y1094102D1*
X3311122Y1087310D1*
X3313034Y1080218D1*
X3314034Y1072942D1*
X3314072Y1065029D1*
X3313144Y1057744D1*
X3311303Y1050634D1*
X3308577Y1043814D1*
X3305012Y1037394D1*
X3300663Y1031475D1*
X3295601Y1026154D1*
X3289908Y1021516D1*
X3283673Y1017634D1*
X3276999Y1014571D1*
X3269990Y1012375D1*
X3262760Y1011085D1*
X3255425Y1010718D1*
X3248102Y1011281D1*
X3240909Y1012765D1*
X3233962Y1015146D1*
X3227371Y1018387D1*
X3221243Y1022434D1*
X3215676Y1027223D1*
X3210759Y1032678D1*
X3206570Y1038711D1*
X3203177Y1045224D1*
X3200635Y1052114D1*
X3198984Y1059270D1*
X3198252Y1066579D1*
X3198448Y1073920D1*
X3199571Y1081178D1*
X3201602Y1088235D1*
X3204509Y1094980D1*
X3208245Y1101303D1*
X3212751Y1107102D1*
X3216235Y1110709D1*
X3198213Y1110713D1*
Y1226689D1*
X3207399D1*
X3546488Y1482438D2*
X3544967Y1472840D1*
X3541965Y1463598D1*
X3537554Y1454941D1*
X3531841Y1447079D1*
X3524971Y1440209D1*
X3517156Y1434529D1*
X3517051Y1410202D1*
X3516256Y1405181D1*
X3514685Y1400346D1*
X3512377Y1395816D1*
X3509388Y1391703D1*
X3462192Y1344365D1*
X3381934Y1264108D1*
X3381857Y915694D1*
X3381062Y910673D1*
X3379491Y905839D1*
X3377182Y901308D1*
X3374194Y897196D1*
X3338696Y861555D1*
X3338870Y686138D1*
X3342172Y680751D1*
X3344591Y674912D1*
X3346066Y668768D1*
X3346562Y662467D1*
X3346066Y656167D1*
X3344591Y650022D1*
X3342172Y644184D1*
X3338870Y638797D1*
X3334766Y633991D1*
X3329961Y629887D1*
X3324573Y626585D1*
X3318735Y624167D1*
X3312591Y622692D1*
X3306290Y622196D1*
X3299990Y622692D1*
X3293845Y624167D1*
X3288007Y626585D1*
X3282619Y629887D1*
X3277814Y633991D1*
X3273710Y638797D1*
X3270408Y644184D1*
X3267990Y650022D1*
X3266514Y656167D1*
X3266018Y662467D1*
X3266514Y668768D1*
X3267990Y674912D1*
X3270408Y680751D1*
X3273886Y686361D1*
X3273892Y842570D1*
X2779474D1*
X2779394Y753907D1*
X2779121Y751601D1*
X2781345Y750769D1*
X2787490Y752244D1*
X2793790Y752740D1*
X2800091Y752244D1*
X2806235Y750769D1*
X2812073Y748350D1*
X2817461Y745049D1*
X2822266Y740945D1*
X2826370Y736139D1*
X2829672Y730752D1*
X2832091Y724913D1*
X2833566Y718769D1*
X2833785Y716916D1*
X2844257Y717100D1*
X2850096Y719518D1*
X2856240Y720993D1*
X2862541Y721490D1*
X2868841Y720993D1*
X2874986Y719518D1*
X2880824Y717100D1*
X2886211Y713798D1*
X2891017Y709694D1*
X2895121Y704888D1*
X2898423Y699501D1*
X2900841Y693663D1*
X2902316Y687518D1*
X2902812Y681218D1*
X2902316Y674917D1*
X2900841Y668773D1*
X2898423Y662934D1*
X2895121Y657547D1*
X2891017Y652741D1*
X2886211Y648638D1*
X2880824Y645336D1*
X2874986Y642917D1*
X2868841Y641442D1*
X2862541Y640946D1*
X2856240Y641442D1*
X2850096Y642917D1*
X2844257Y645336D1*
X2838870Y648638D1*
X2834064Y652741D1*
X2829638Y658029D1*
X2703753Y658022D1*
X2703844Y650963D1*
X2702856Y644722D1*
X2700903Y638713D1*
X2698034Y633081D1*
X2694320Y627969D1*
X2689852Y623500D1*
X2684739Y619786D1*
X2679108Y616917D1*
X2675916Y615759D1*
X2677794Y609660D1*
X2679033Y601835D1*
Y593911D1*
X2677794Y586085D1*
X2675345Y578550D1*
X2671748Y571491D1*
X2667092Y565080D1*
X2661490Y559478D1*
X2655079Y554822D1*
X2648020Y551224D1*
X2640484Y548776D1*
X2632659Y547537D1*
X2624735D1*
X2616909Y548776D1*
X2609374Y551224D1*
X2602315Y554822D1*
X2595904Y559478D1*
X2590302Y565080D1*
X2585646Y571491D1*
X2582049Y578550D1*
X2579600Y586085D1*
X2578361Y593911D1*
Y601835D1*
X2579600Y609660D1*
X2582049Y617196D1*
X2585646Y624255D1*
X2590302Y630665D1*
X2595904Y636268D1*
X2599856Y639281D1*
X2467636Y639273D1*
X2474400Y633576D1*
X2479546Y627551D1*
X2483685Y620795D1*
X2486718Y613475D1*
X2488567Y605772D1*
X2489189Y597873D1*
X2488567Y589974D1*
X2486718Y582270D1*
X2483685Y574950D1*
X2479546Y568194D1*
X2474400Y562169D1*
X2468375Y557024D1*
X2461619Y552885D1*
X2454299Y549852D1*
X2446596Y548003D1*
X2438697Y547381D1*
X2430798Y548003D1*
X2423094Y549852D1*
X2415774Y552885D1*
X2409018Y557024D1*
X2402993Y562169D1*
X2397848Y568194D1*
X2393709Y574950D1*
X2390676Y582270D1*
X2388827Y589974D1*
X2388205Y597873D1*
X2388827Y605772D1*
X2390676Y613475D1*
X2393709Y620795D1*
X2397848Y627551D1*
X2402993Y633576D1*
X2409018Y638722D1*
X2409856Y639281D1*
X2230441Y639273D1*
X2229371Y632211D1*
X2227419Y626202D1*
X2224550Y620571D1*
X2220836Y615458D1*
X2216367Y610990D1*
X2211255Y607276D1*
X2205623Y604407D1*
X2200957Y602833D1*
X2163097Y565098D1*
X2159358Y562382D1*
X2155241Y560285D1*
X2150848Y558857D1*
X2146283Y558134D1*
X2061297Y558043D1*
X1688854D1*
X1693362Y552820D1*
X1696664Y547433D1*
X1699083Y541594D1*
X1700558Y535450D1*
X1701054Y529150D1*
X1700558Y522849D1*
X1699083Y516705D1*
X1696664Y510866D1*
X1693362Y505479D1*
X1689259Y500673D1*
X1684453Y496570D1*
X1679066Y493268D1*
X1673227Y490849D1*
X1667083Y489374D1*
X1660782Y488878D1*
X1654482Y489374D1*
X1648337Y490849D1*
X1642499Y493268D1*
X1637112Y496570D1*
X1633223Y499705D1*
X1255255D1*
X1250594Y495770D1*
X1245207Y492469D1*
X1239369Y490050D1*
X1233224Y488575D1*
X1226924Y488079D1*
X1220623Y488575D1*
X1214479Y490050D1*
X1208640Y492469D1*
X1203253Y495770D1*
X1198448Y499874D1*
X1194344Y504680D1*
X1191042Y510067D1*
X1188623Y515906D1*
X1187148Y522050D1*
X1186652Y528350D1*
X1187148Y534651D1*
X1188623Y540795D1*
X1191042Y546634D1*
X1194344Y552021D1*
X1198448Y556827D1*
X1203253Y560930D1*
X1208640Y564232D1*
X1214479Y566651D1*
X1220623Y568126D1*
X1226924Y568622D1*
X1233224Y568126D1*
X1239369Y566651D1*
X1245207Y564232D1*
X1250594Y560930D1*
X1253487Y558596D1*
X1344454Y558594D1*
X1338873Y560285D1*
X1334756Y562382D1*
X1331017Y565098D1*
X1270858Y625129D1*
X1202577Y693411D1*
X1199875Y689841D1*
X1195407Y685373D1*
X1190294Y681659D1*
X1184663Y678790D1*
X1178654Y676837D1*
X1172412Y675849D1*
X1166092D1*
X1159850Y676837D1*
X1153841Y678790D1*
X1148210Y681659D1*
X1143097Y685373D1*
X1138629Y689841D1*
X1134915Y694954D1*
X1132046Y700585D1*
X1130093Y706594D1*
X1129105Y712836D1*
Y719156D1*
X1130093Y725398D1*
X1132046Y731407D1*
X1134915Y737038D1*
X1138629Y742151D1*
X1139807Y743555D1*
X1139747Y748472D1*
X1135112Y742776D1*
X1129777Y737728D1*
X1123833Y733416D1*
X1117379Y729911D1*
X1110526Y727272D1*
X1103387Y725546D1*
X1096087Y724759D1*
X1088744Y724927D1*
X1081486Y726045D1*
X1074434Y728096D1*
X1067707Y731043D1*
X1061421Y734840D1*
X1055680Y739419D1*
X1050580Y744703D1*
X1046210Y750606D1*
X1043703Y754916D1*
X1039404Y747996D1*
X1033647Y741255D1*
X1026906Y735497D1*
X1019348Y730866D1*
X1011157Y727474D1*
X1002538Y725404D1*
X993701Y724709D1*
X984864Y725404D1*
X976244Y727474D1*
X968054Y730866D1*
X960496Y735497D1*
X953755Y741255D1*
X947997Y747996D1*
X943713Y754934D1*
X939404Y747996D1*
X933647Y741255D1*
X926906Y735497D1*
X919348Y730866D1*
X911157Y727474D1*
X902538Y725404D1*
X893701Y724709D1*
X884864Y725404D1*
X876244Y727474D1*
X868054Y730866D1*
X860496Y735497D1*
X853755Y741255D1*
X847997Y747996D1*
X843713Y754934D1*
X839404Y747996D1*
X833647Y741255D1*
X826906Y735497D1*
X819348Y730866D1*
X811157Y727474D1*
X802538Y725404D1*
X793701Y724709D1*
X784864Y725404D1*
X776244Y727474D1*
X768054Y730866D1*
X760496Y735497D1*
X753755Y741255D1*
X747997Y747996D1*
X743713Y754934D1*
X739747Y748472D1*
X735112Y742776D1*
X729777Y737728D1*
X723833Y733416D1*
X717379Y729911D1*
X710526Y727272D1*
X703387Y725546D1*
X696087Y724759D1*
X688744Y724927D1*
X681486Y726045D1*
X674434Y728096D1*
X667707Y731043D1*
X661421Y734840D1*
X655680Y739419D1*
X650580Y744703D1*
X646210Y750606D1*
X642643Y757025D1*
X639938Y763853D1*
X638142Y770974D1*
X637285Y778268D1*
X637381Y785610D1*
X638429Y792879D1*
X640411Y799951D1*
X643294Y806706D1*
X647028Y813029D1*
X651551Y818815D1*
X656787Y823965D1*
X662647Y828391D1*
X667411Y831202D1*
X660496Y835497D1*
X653755Y841255D1*
X647997Y847996D1*
X643366Y855554D1*
X639974Y863744D1*
X637904Y872364D1*
X637209Y881201D1*
X637904Y890038D1*
X639974Y898657D1*
X643366Y906848D1*
X647997Y914406D1*
X653755Y921147D1*
X660496Y926904D1*
X668054Y931535D1*
X676244Y934928D1*
X684864Y936997D1*
X693701Y937693D1*
X702538Y936997D1*
X711157Y934928D1*
X719348Y931535D1*
X726906Y926904D1*
X733647Y921147D1*
X739404Y914406D1*
X743689Y907467D1*
X747997Y914406D1*
X753755Y921147D1*
X760496Y926904D1*
X768054Y931535D1*
X776244Y934928D1*
X784864Y936997D1*
X793701Y937693D1*
X802538Y936997D1*
X811157Y934928D1*
X819348Y931535D1*
X826906Y926904D1*
X833647Y921147D1*
X839404Y914406D1*
X843689Y907467D1*
X847997Y914406D1*
X853755Y921147D1*
X860496Y926904D1*
X868054Y931535D1*
X876244Y934928D1*
X884864Y936997D1*
X893701Y937693D1*
X902538Y936997D1*
X911157Y934928D1*
X919348Y931535D1*
X926906Y926904D1*
X933647Y921147D1*
X939404Y914406D1*
X943689Y907467D1*
X947997Y914406D1*
X953755Y921147D1*
X960496Y926904D1*
X968054Y931535D1*
X976244Y934928D1*
X984864Y936997D1*
X993701Y937693D1*
X1002538Y936997D1*
X1011157Y934928D1*
X1019348Y931535D1*
X1026906Y926904D1*
X1033647Y921147D1*
X1037205Y917196D1*
X1037209Y937693D1*
X1150193D1*
Y866319D1*
X1183108Y833436D1*
X1183094Y1378576D1*
X1123031Y1438644D1*
X1117109Y1434496D1*
X1108451Y1430085D1*
X1099210Y1427083D1*
X1089612Y1425562D1*
X1079895D1*
X1070297Y1427083D1*
X1061055Y1430085D1*
X1060728Y1430236D1*
X1060735Y1164971D1*
X1063870Y1161139D1*
X1067172Y1155752D1*
X1069591Y1149913D1*
X1071066Y1143769D1*
X1071562Y1137469D1*
X1071066Y1131168D1*
X1069591Y1125024D1*
X1067172Y1119185D1*
X1063870Y1113798D1*
X1059766Y1108992D1*
X1054961Y1104888D1*
X1049573Y1101587D1*
X1043735Y1099168D1*
X1037591Y1097693D1*
X1031290Y1097197D1*
X1024990Y1097693D1*
X1018845Y1099168D1*
X1013007Y1101587D1*
X1007619Y1104888D1*
X1002814Y1108992D1*
X998710Y1113798D1*
X995408Y1119185D1*
X992990Y1125024D1*
X991514Y1131168D1*
X991018Y1137469D1*
X991514Y1143769D1*
X992990Y1149913D1*
X995408Y1155752D1*
X998710Y1161139D1*
X1001845Y1165028D1*
Y1427807D1*
X994441Y1426134D1*
X984753Y1425371D1*
X975066Y1426134D1*
X965617Y1428402D1*
X956640Y1432121D1*
X948354Y1437198D1*
X940966Y1443509D1*
X934761Y1450764D1*
X928541Y1443509D1*
X921152Y1437198D1*
X912866Y1432121D1*
X903890Y1428402D1*
X894441Y1426134D1*
X884753Y1425371D1*
X875066Y1426134D1*
X865617Y1428402D1*
X856640Y1432121D1*
X848354Y1437198D1*
X840966Y1443509D1*
X834761Y1450764D1*
X828541Y1443509D1*
X821152Y1437198D1*
X812866Y1432121D1*
X803890Y1428402D1*
X794441Y1426134D1*
X784753Y1425371D1*
X775066Y1426134D1*
X765617Y1428402D1*
X760728Y1430236D1*
X760735Y1396209D1*
X763870Y1392388D1*
X767172Y1387001D1*
X769591Y1381163D1*
X771066Y1375018D1*
X771562Y1368718D1*
X771066Y1362417D1*
X769591Y1356273D1*
X767172Y1350434D1*
X763870Y1345047D1*
X759766Y1340241D1*
X754961Y1336138D1*
X749573Y1332836D1*
X743735Y1330417D1*
X737591Y1328942D1*
X731290Y1328446D1*
X724990Y1328942D1*
X718845Y1330417D1*
X713007Y1332836D1*
X707619Y1336138D1*
X702814Y1340241D1*
X698710Y1345047D1*
X695408Y1350434D1*
X692990Y1356273D1*
X691514Y1362417D1*
X691018Y1368718D1*
X691514Y1375018D1*
X692990Y1381163D1*
X695408Y1387001D1*
X698710Y1392388D1*
X701845Y1396277D1*
Y1427747D1*
X694441Y1426134D1*
X684753Y1425371D1*
X675066Y1426134D1*
X665617Y1428402D1*
X656640Y1432121D1*
X648354Y1437198D1*
X640966Y1443509D1*
X634761Y1450764D1*
X630411Y1445462D1*
X625136Y1440350D1*
X619294Y1435899D1*
X612966Y1432172D1*
X606240Y1429219D1*
X599213Y1427083D1*
X591983Y1425795D1*
X584650Y1425371D1*
X577319Y1425819D1*
X570092Y1427133D1*
X563072Y1429291D1*
X556357Y1432266D1*
X550041Y1436016D1*
X544214Y1440486D1*
X538957Y1445615D1*
X534344Y1451331D1*
X530440Y1457552D1*
X527299Y1464192D1*
X524969Y1471156D1*
X523478Y1478349D1*
X522849Y1485667D1*
X523092Y1493007D1*
X524202Y1500268D1*
X526164Y1507345D1*
X528949Y1514142D1*
X532520Y1520560D1*
X536825Y1526510D1*
X541806Y1531909D1*
X547390Y1536680D1*
X553500Y1540756D1*
X560049Y1544080D1*
X566946Y1546606D1*
X574093Y1548298D1*
X581391Y1549130D1*
X588735Y1549093D1*
X596024Y1548188D1*
X603155Y1546425D1*
X610025Y1543831D1*
X616541Y1540441D1*
X622610Y1536303D1*
X628146Y1531476D1*
X633071Y1526028D1*
X634745Y1523829D1*
X640966Y1531084D1*
X648354Y1537395D1*
X656640Y1542472D1*
X665617Y1546192D1*
X675066Y1548459D1*
X684753Y1549222D1*
X694441Y1548459D1*
X701860Y1546764D1*
X701845Y1627766D1*
X694441Y1626134D1*
X684753Y1625371D1*
X675066Y1626134D1*
X665617Y1628402D1*
X656640Y1632121D1*
X648354Y1637198D1*
X640966Y1643509D1*
X634761Y1650764D1*
X628541Y1643509D1*
X621152Y1637198D1*
X612866Y1632121D1*
X603890Y1628402D1*
X594441Y1626134D1*
X584753Y1625371D1*
X575066Y1626134D1*
X565617Y1628402D1*
X556640Y1632121D1*
X548354Y1637198D1*
X540966Y1643509D1*
X534655Y1650898D1*
X529577Y1659184D1*
X525858Y1668160D1*
X523591Y1677609D1*
X522828Y1687297D1*
X523591Y1696984D1*
X525858Y1706433D1*
X529577Y1715409D1*
X534655Y1723696D1*
X540966Y1731084D1*
X548354Y1737395D1*
X556640Y1742472D1*
X565617Y1746192D1*
X575066Y1748459D1*
X584753Y1749222D1*
X594441Y1748459D1*
X603890Y1746192D1*
X612866Y1742472D1*
X621152Y1737395D1*
X628541Y1731084D1*
X634745Y1723829D1*
X640966Y1731084D1*
X648354Y1737395D1*
X656640Y1742472D1*
X665617Y1746192D1*
X675066Y1748459D1*
X684753Y1749222D1*
X694441Y1748459D1*
X703890Y1746192D1*
X712866Y1742472D1*
X721152Y1737395D1*
X728541Y1731084D1*
X734745Y1723829D1*
X740966Y1731084D1*
X748354Y1737395D1*
X753010Y1740440D1*
X753001Y1795416D1*
X749866Y1799202D1*
X746564Y1804589D1*
X744146Y1810428D1*
X742671Y1816572D1*
X742175Y1822873D1*
X742671Y1829173D1*
X744146Y1835318D1*
X746564Y1841156D1*
X749866Y1846543D1*
X753970Y1851349D1*
X758776Y1855453D1*
X764163Y1858755D1*
X770001Y1861173D1*
X776146Y1862648D1*
X782446Y1863144D1*
X788747Y1862648D1*
X794891Y1861173D1*
X800730Y1858755D1*
X806117Y1855453D1*
X810923Y1851349D1*
X815026Y1846543D1*
X818328Y1841156D1*
X820747Y1835318D1*
X822222Y1829173D1*
X822718Y1822873D1*
X822222Y1816572D1*
X820747Y1810428D1*
X818328Y1804589D1*
X815026Y1799202D1*
X811891Y1795314D1*
Y1742958D1*
X817109Y1740097D1*
X824971Y1734385D1*
X831841Y1727514D1*
X834745Y1723829D1*
X840966Y1731084D1*
X848354Y1737395D1*
X856640Y1742472D1*
X865617Y1746192D1*
X875066Y1748459D1*
X884753Y1749222D1*
X894441Y1748459D1*
X903890Y1746192D1*
X912866Y1742472D1*
X921152Y1737395D1*
X928541Y1731084D1*
X934745Y1723829D1*
X940966Y1731084D1*
X948354Y1737395D1*
X956640Y1742472D1*
X965617Y1746192D1*
X975066Y1748459D1*
X984753Y1749222D1*
X994441Y1748459D1*
X1003890Y1746192D1*
X1012866Y1742472D1*
X1021152Y1737395D1*
X1028541Y1731084D1*
X1034745Y1723829D1*
X1040966Y1731084D1*
X1048354Y1737395D1*
X1056640Y1742472D1*
X1065617Y1746192D1*
X1075066Y1748459D1*
X1084753Y1749222D1*
X1094441Y1748459D1*
X1097105Y1747929D1*
X1188579Y1839268D1*
X1192318Y1841984D1*
X1196434Y1844081D1*
X1200828Y1845509D1*
X1205392Y1846232D1*
X1290379Y1846323D1*
X3435333Y1846232D1*
X3439898Y1845509D1*
X3444291Y1844081D1*
X3448408Y1841984D1*
X3452147Y1839268D1*
X3512306Y1779238D1*
X3559189Y1732226D1*
X3561906Y1728487D1*
X3564003Y1724370D1*
X3565430Y1719976D1*
X3566154Y1715412D1*
X3566244Y1663067D1*
X3565882Y1658461D1*
X3564803Y1653969D1*
X3563035Y1649699D1*
X3560621Y1645760D1*
X3557619Y1642247D1*
X3464117Y1548743D1*
X3465617Y1546192D1*
X3475066Y1548459D1*
X3484753Y1549222D1*
X3494441Y1548459D1*
X3503890Y1546192D1*
X3512866Y1542472D1*
X3521152Y1537395D1*
X3528541Y1531084D1*
X3534852Y1523696D1*
X3539929Y1515409D1*
X3543648Y1506433D1*
X3545916Y1496984D1*
X3546678Y1487297D1*
X3546488Y1482438D1*
X1806937Y1429526D2*
X1799210Y1427083D1*
X1789612Y1425562D1*
X1779895D1*
X1770297Y1427083D1*
X1762178Y1429671D1*
X1762193Y1187983D1*
X1775801Y1201475D1*
X1779539Y1204192D1*
X1783656Y1206289D1*
X1788050Y1207717D1*
X1792614Y1208440D1*
X1822806Y1208530D1*
X1816881Y1212105D1*
X1812075Y1216209D1*
X1807971Y1221014D1*
X1804669Y1226402D1*
X1802251Y1232240D1*
X1800776Y1238385D1*
X1800280Y1244685D1*
X1800776Y1250986D1*
X1802251Y1257130D1*
X1804669Y1262969D1*
X1807979Y1268366D1*
X1807018Y1273825D1*
X1806928Y1358812D1*
Y1429469D1*
X1334745Y1450764D2*
X1328541Y1443509D1*
X1321152Y1437198D1*
X1312866Y1432121D1*
X1303890Y1428402D1*
X1294441Y1426134D1*
X1284753Y1425371D1*
X1275066Y1426134D1*
X1265492Y1428449D1*
X1265493Y739507D1*
X1373564Y631423D1*
X1539470Y631413D1*
X1412400Y758594D1*
X1409684Y762333D1*
X1407587Y766450D1*
X1406159Y770844D1*
X1405436Y775408D1*
X1405345Y860395D1*
Y1428908D1*
X1399210Y1427083D1*
X1389612Y1425562D1*
X1379895D1*
X1370297Y1427083D1*
X1361055Y1430085D1*
X1352398Y1434496D1*
X1344535Y1440209D1*
X1337665Y1447079D1*
X1334761Y1450764D1*
X2105449Y1428940D2*
X2099213Y1427083D1*
X2091983Y1425795D1*
X2084650Y1425371D1*
X2077319Y1425819D1*
X2070092Y1427133D1*
X2064323Y1428845D1*
X2064388Y1362642D1*
X2066341Y1368651D1*
X2069210Y1374282D1*
X2072924Y1379395D1*
X2077392Y1383864D1*
X2082505Y1387577D1*
X2088136Y1390446D1*
X2094146Y1392399D1*
X2100387Y1393387D1*
X2102214Y1393549D1*
X2105436Y1396770D1*
X2105451Y1428907D1*
X3528038Y679178D2*
X3526953Y672327D1*
X3524810Y665730D1*
X3521660Y659549D1*
X3517583Y653936D1*
X3512677Y649030D1*
X3507064Y644953D1*
X3500883Y641803D1*
X3494286Y639660D1*
X3487434Y638575D1*
X3480497D1*
X3473646Y639660D1*
X3467049Y641803D1*
X3460867Y644953D1*
X3455255Y649030D1*
X3450349Y653936D1*
X3446272Y659549D1*
X3443122Y665730D1*
X3440979Y672327D1*
X3439894Y679178D1*
Y686115D1*
X3440979Y692967D1*
X3443122Y699564D1*
X3446272Y705745D1*
X3450349Y711358D1*
X3455255Y716264D1*
X3460867Y720341D1*
X3467049Y723491D1*
X3473646Y725634D1*
X3480497Y726719D1*
X3487434D1*
X3494286Y725634D1*
X3500883Y723491D1*
X3507064Y720341D1*
X3512677Y716264D1*
X3517583Y711358D1*
X3521660Y705745D1*
X3524810Y699564D1*
X3526953Y692967D1*
X3528038Y686115D1*
Y679178D1*
Y852407D2*
X3526953Y845555D1*
X3524810Y838958D1*
X3521660Y832777D1*
X3517583Y827164D1*
X3512677Y822259D1*
X3507064Y818181D1*
X3500883Y815031D1*
X3494286Y812888D1*
X3487434Y811803D1*
X3480497D1*
X3473646Y812888D1*
X3467049Y815031D1*
X3460867Y818181D1*
X3455255Y822259D1*
X3450349Y827164D1*
X3446272Y832777D1*
X3443122Y838958D1*
X3440979Y845555D1*
X3439894Y852407D1*
Y859344D1*
X3440979Y866196D1*
X3443122Y872793D1*
X3446272Y878974D1*
X3450349Y884587D1*
X3455255Y889492D1*
X3460867Y893570D1*
X3467049Y896719D1*
X3473646Y898862D1*
X3480497Y899948D1*
X3487434D1*
X3494286Y898862D1*
X3500883Y896719D1*
X3507064Y893570D1*
X3512677Y889492D1*
X3517583Y884587D1*
X3521660Y878974D1*
X3524810Y872793D1*
X3526953Y866196D1*
X3528038Y859344D1*
Y852407D1*
X719984Y831199D2*
X726585Y827135D1*
X732266Y822482D1*
X737295Y817130D1*
X741588Y811171D1*
X743696Y807491D1*
X747997Y814406D1*
X753755Y821147D1*
X760496Y826904D1*
X767434Y831189D1*
X760496Y835497D1*
X753755Y841255D1*
X747997Y847996D1*
X743713Y854934D1*
X739404Y847996D1*
X733647Y841255D1*
X726906Y835497D1*
X719967Y831213D1*
X843689Y854934D2*
X839404Y847996D1*
X833647Y841255D1*
X826906Y835497D1*
X819967Y831213D1*
X826906Y826904D1*
X833647Y821147D1*
X839404Y814406D1*
X843689Y807467D1*
X847997Y814406D1*
X853755Y821147D1*
X860496Y826904D1*
X867434Y831189D1*
X860496Y835497D1*
X853755Y841255D1*
X847997Y847996D1*
X843713Y854934D1*
X943689D2*
X939404Y847996D1*
X933647Y841255D1*
X926906Y835497D1*
X919967Y831213D1*
X926906Y826904D1*
X933647Y821147D1*
X939404Y814406D1*
X943689Y807467D1*
X947997Y814406D1*
X953755Y821147D1*
X960496Y826904D1*
X967434Y831189D1*
X960496Y835497D1*
X953755Y841255D1*
X947997Y847996D1*
X943713Y854934D1*
X1037205Y845206D2*
X1033647Y841255D1*
X1026906Y835497D1*
X1019967Y831213D1*
X1026906Y826904D1*
X1033647Y821147D1*
X1039404Y814406D1*
X1043689Y807467D1*
X1047028Y813029D1*
X1051551Y818815D1*
X1056787Y823965D1*
X1057673Y824705D1*
X1037209Y824709D1*
Y845198D1*
X2969126Y589756D2*
X2967887Y581930D1*
X2965438Y574395D1*
X2961841Y567336D1*
X2957185Y560925D1*
X2951583Y555323D1*
X2945172Y550667D1*
X2938113Y547070D1*
X2930577Y544621D1*
X2922752Y543382D1*
X2914828D1*
X2907003Y544621D1*
X2899467Y547070D1*
X2892408Y550667D1*
X2885997Y555323D1*
X2880395Y560925D1*
X2875739Y567336D1*
X2872142Y574395D1*
X2869693Y581930D1*
X2868454Y589756D1*
Y597680D1*
X2869693Y605505D1*
X2872142Y613041D1*
X2875739Y620100D1*
X2880395Y626510D1*
X2885997Y632113D1*
X2892408Y636769D1*
X2899467Y640366D1*
X2907003Y642815D1*
X2914828Y644054D1*
X2922752D1*
X2930577Y642815D1*
X2938113Y640366D1*
X2945172Y636769D1*
X2951583Y632113D1*
X2957185Y626510D1*
X2961841Y620100D1*
X2965438Y613041D1*
X2967887Y605505D1*
X2969126Y597680D1*
Y589756D1*
X3159126D2*
X3157887Y581930D1*
X3155438Y574395D1*
X3151841Y567336D1*
X3147185Y560925D1*
X3141583Y555323D1*
X3135172Y550667D1*
X3128113Y547070D1*
X3120577Y544621D1*
X3112752Y543382D1*
X3104828D1*
X3097003Y544621D1*
X3089467Y547070D1*
X3082408Y550667D1*
X3075997Y555323D1*
X3070395Y560925D1*
X3065739Y567336D1*
X3062142Y574395D1*
X3059693Y581930D1*
X3058454Y589756D1*
Y597680D1*
X3059693Y605505D1*
X3062142Y613041D1*
X3065739Y620100D1*
X3070395Y626510D1*
X3075997Y632113D1*
X3082408Y636769D1*
X3089467Y640366D1*
X3097003Y642815D1*
X3104828Y644054D1*
X3112752D1*
X3120577Y642815D1*
X3128113Y640366D1*
X3135172Y636769D1*
X3141583Y632113D1*
X3147185Y626510D1*
X3151841Y620100D1*
X3155438Y613041D1*
X3157887Y605505D1*
X3159126Y597680D1*
Y589756D1*
X3638797Y1898717D2*
X3637916Y1891278D1*
X3636455Y1883933D1*
X3634421Y1876723D1*
X3631829Y1869697D1*
X3628694Y1862895D1*
X3625034Y1856360D1*
X3620873Y1850133D1*
X3616236Y1844251D1*
X3611151Y1838751D1*
X3605651Y1833665D1*
X3599769Y1829029D1*
X3593542Y1824867D1*
X3587007Y1821207D1*
X3580205Y1818072D1*
X3573178Y1815480D1*
X3565969Y1813446D1*
X3558623Y1811986D1*
X3551185Y1811105D1*
X3543701Y1810811D1*
X3536217Y1811105D1*
X3528778Y1811986D1*
X3521433Y1813446D1*
X3514223Y1815480D1*
X3507197Y1818072D1*
X3500395Y1821207D1*
X3493860Y1824867D1*
X3487633Y1829029D1*
X3481751Y1833665D1*
X3476251Y1838751D1*
X3471165Y1844251D1*
X3466529Y1850133D1*
X3462367Y1856360D1*
X3458707Y1862895D1*
X3455572Y1869697D1*
X3452980Y1876723D1*
X3450946Y1883933D1*
X3449486Y1891278D1*
X3448605Y1898717D1*
X3448311Y1906201D1*
X3448605Y1913685D1*
X3449486Y1921123D1*
X3450946Y1928469D1*
X3452980Y1935678D1*
X3455572Y1942705D1*
X3458707Y1949507D1*
X3462367Y1956042D1*
X3466529Y1962269D1*
X3471165Y1968151D1*
X3476251Y1973651D1*
X3481751Y1978736D1*
X3487633Y1983373D1*
X3493860Y1987534D1*
X3500395Y1991194D1*
X3507197Y1994329D1*
X3514223Y1996921D1*
X3521433Y1998955D1*
X3528778Y2000416D1*
X3536217Y2001297D1*
X3543701Y2001591D1*
X3551185Y2001297D1*
X3558623Y2000416D1*
X3565969Y1998955D1*
X3573178Y1996921D1*
X3580205Y1994329D1*
X3587007Y1991194D1*
X3593542Y1987534D1*
X3599769Y1983373D1*
X3605651Y1978736D1*
X3611151Y1973651D1*
X3616236Y1968151D1*
X3620873Y1962269D1*
X3625034Y1956042D1*
X3628694Y1949507D1*
X3631829Y1942705D1*
X3634421Y1935678D1*
X3636455Y1928469D1*
X3637916Y1921123D1*
X3638797Y1913685D1*
X3639091Y1906201D1*
X3638797Y1898717D1*
Y1236217D2*
X3637916Y1228778D1*
X3636455Y1221433D1*
X3634421Y1214223D1*
X3631829Y1207197D1*
X3628694Y1200395D1*
X3625034Y1193860D1*
X3620873Y1187633D1*
X3616236Y1181751D1*
X3611151Y1176251D1*
X3605651Y1171165D1*
X3599769Y1166529D1*
X3593542Y1162367D1*
X3587007Y1158707D1*
X3580205Y1155572D1*
X3573178Y1152980D1*
X3565969Y1150946D1*
X3558623Y1149486D1*
X3551185Y1148605D1*
X3543701Y1148311D1*
X3536217Y1148605D1*
X3528778Y1149486D1*
X3521433Y1150946D1*
X3514223Y1152980D1*
X3507197Y1155572D1*
X3500395Y1158707D1*
X3493860Y1162367D1*
X3487633Y1166529D1*
X3481751Y1171165D1*
X3476251Y1176251D1*
X3471165Y1181751D1*
X3466529Y1187633D1*
X3462367Y1193860D1*
X3458707Y1200395D1*
X3455572Y1207197D1*
X3452980Y1214223D1*
X3450946Y1221433D1*
X3449486Y1228778D1*
X3448605Y1236217D1*
X3448311Y1243701D1*
X3448605Y1251185D1*
X3449486Y1258623D1*
X3450946Y1265969D1*
X3452980Y1273178D1*
X3455572Y1280205D1*
X3458707Y1287007D1*
X3462367Y1293542D1*
X3466529Y1299769D1*
X3471165Y1305651D1*
X3476251Y1311151D1*
X3481751Y1316236D1*
X3487633Y1320873D1*
X3493860Y1325034D1*
X3500395Y1328694D1*
X3507197Y1331829D1*
X3514223Y1334421D1*
X3521433Y1336455D1*
X3528778Y1337916D1*
X3536217Y1338797D1*
X3543701Y1339091D1*
X3551185Y1338797D1*
X3558623Y1337916D1*
X3565969Y1336455D1*
X3573178Y1334421D1*
X3580205Y1331829D1*
X3587007Y1328694D1*
X3593542Y1325034D1*
X3599769Y1320873D1*
X3605651Y1316236D1*
X3611151Y1311151D1*
X3616236Y1305651D1*
X3620873Y1299769D1*
X3625034Y1293542D1*
X3628694Y1287007D1*
X3631829Y1280205D1*
X3634421Y1273178D1*
X3636455Y1265969D1*
X3637916Y1258623D1*
X3638797Y1251185D1*
X3639091Y1243701D1*
X3638797Y1236217D1*
X638797Y1898717D2*
X637916Y1891278D1*
X636455Y1883933D1*
X634421Y1876723D1*
X631829Y1869697D1*
X628694Y1862895D1*
X625034Y1856360D1*
X620873Y1850133D1*
X616236Y1844251D1*
X611151Y1838751D1*
X605651Y1833665D1*
X599769Y1829029D1*
X593542Y1824867D1*
X587007Y1821207D1*
X580205Y1818072D1*
X573178Y1815480D1*
X565969Y1813446D1*
X558623Y1811986D1*
X551185Y1811105D1*
X543701Y1810811D1*
X536217Y1811105D1*
X528778Y1811986D1*
X521433Y1813446D1*
X514223Y1815480D1*
X507197Y1818072D1*
X500395Y1821207D1*
X493860Y1824867D1*
X487633Y1829029D1*
X481751Y1833665D1*
X476251Y1838751D1*
X471165Y1844251D1*
X466529Y1850133D1*
X462367Y1856360D1*
X458707Y1862895D1*
X455572Y1869697D1*
X452980Y1876723D1*
X450946Y1883933D1*
X449486Y1891278D1*
X448605Y1898717D1*
X448311Y1906201D1*
X448605Y1913685D1*
X449486Y1921123D1*
X450946Y1928469D1*
X452980Y1935678D1*
X455572Y1942705D1*
X458707Y1949507D1*
X462367Y1956042D1*
X466529Y1962269D1*
X471165Y1968151D1*
X476251Y1973651D1*
X481751Y1978736D1*
X487633Y1983373D1*
X493860Y1987534D1*
X500395Y1991194D1*
X507197Y1994329D1*
X514223Y1996921D1*
X521433Y1998955D1*
X528778Y2000416D1*
X536217Y2001297D1*
X543701Y2001591D1*
X551185Y2001297D1*
X558623Y2000416D1*
X565969Y1998955D1*
X573178Y1996921D1*
X580205Y1994329D1*
X587007Y1991194D1*
X593542Y1987534D1*
X599769Y1983373D1*
X605651Y1978736D1*
X611151Y1973651D1*
X616236Y1968151D1*
X620873Y1962269D1*
X625034Y1956042D1*
X628694Y1949507D1*
X631829Y1942705D1*
X634421Y1935678D1*
X636455Y1928469D1*
X637916Y1921123D1*
X638797Y1913685D1*
X639091Y1906201D1*
X638797Y1898717D1*
Y1236217D2*
X637916Y1228778D1*
X636455Y1221433D1*
X634421Y1214223D1*
X631829Y1207197D1*
X628694Y1200395D1*
X625034Y1193860D1*
X620873Y1187633D1*
X616236Y1181751D1*
X611151Y1176251D1*
X605651Y1171165D1*
X599769Y1166529D1*
X593542Y1162367D1*
X587007Y1158707D1*
X580205Y1155572D1*
X573178Y1152980D1*
X565969Y1150946D1*
X558623Y1149486D1*
X551185Y1148605D1*
X543701Y1148311D1*
X536217Y1148605D1*
X528778Y1149486D1*
X521433Y1150946D1*
X514223Y1152980D1*
X507197Y1155572D1*
X500395Y1158707D1*
X493860Y1162367D1*
X487633Y1166529D1*
X481751Y1171165D1*
X476251Y1176251D1*
X471165Y1181751D1*
X466529Y1187633D1*
X462367Y1193860D1*
X458707Y1200395D1*
X455572Y1207197D1*
X452980Y1214223D1*
X450946Y1221433D1*
X449486Y1228778D1*
X448605Y1236217D1*
X448311Y1243701D1*
X448605Y1251185D1*
X449486Y1258623D1*
X450946Y1265969D1*
X452980Y1273178D1*
X455572Y1280205D1*
X458707Y1287007D1*
X462367Y1293542D1*
X466529Y1299769D1*
X471165Y1305651D1*
X476251Y1311151D1*
X481751Y1316236D1*
X487633Y1320873D1*
X493860Y1325034D1*
X500395Y1328694D1*
X507197Y1331829D1*
X514223Y1334421D1*
X521433Y1336455D1*
X528778Y1337916D1*
X536217Y1338797D1*
X543701Y1339091D1*
X551185Y1338797D1*
X558623Y1337916D1*
X565969Y1336455D1*
X573178Y1334421D1*
X580205Y1331829D1*
X587007Y1328694D1*
X593542Y1325034D1*
X599769Y1320873D1*
X605651Y1316236D1*
X611151Y1311151D1*
X616236Y1305651D1*
X620873Y1299769D1*
X625034Y1293542D1*
X628694Y1287007D1*
X631829Y1280205D1*
X634421Y1273178D1*
X636455Y1265969D1*
X637916Y1258623D1*
X638797Y1251185D1*
X639091Y1243701D1*
X638797Y1236217D1*
X2064324Y1279327D2*
X2068849Y1283171D1*
X2074236Y1286472D1*
X2080075Y1288891D1*
X2086219Y1290366D1*
X2092520Y1290862D1*
X2098820Y1290366D1*
X2104965Y1288891D1*
X2106877Y1288186D1*
X2113189Y1292190D1*
X2119028Y1294609D1*
X2125172Y1296084D1*
X2130139Y1296617D1*
X2131534Y1298012D1*
X2131513Y1324298D1*
X2127218Y1320660D1*
X2121831Y1317358D1*
X2115992Y1314940D1*
X2109848Y1313465D1*
X2103547Y1312969D1*
X2097247Y1313465D1*
X2091102Y1314940D1*
X2085264Y1317358D1*
X2079877Y1320660D1*
X2075071Y1324764D1*
X2070967Y1329570D1*
X2067665Y1334957D1*
X2065247Y1340795D1*
X2064323Y1344167D1*
X2064325Y1279366D1*
X2694896Y801122D2*
X2700507Y804600D1*
X2706345Y807018D1*
X2712490Y808493D1*
X2718790Y808990D1*
X2720605Y808919D1*
X2720594Y829743D1*
X2412604Y829803D1*
X2408039Y830526D1*
X2403646Y831954D1*
X2399529Y834051D1*
X2395790Y836768D1*
X2335631Y896798D1*
X2262364Y970194D1*
X2259647Y973933D1*
X2257550Y978050D1*
X2256122Y982444D1*
X2255399Y987008D1*
X2255308Y1071995D1*
Y1135331D1*
X2235203Y1115239D1*
X2234723Y1110323D1*
X2233248Y1104178D1*
X2230829Y1098340D1*
X2227528Y1092953D1*
X2223424Y1088147D1*
X2218618Y1084043D1*
X2213231Y1080741D1*
X2207392Y1078323D1*
X2203731Y1077341D1*
X2209228Y1075030D1*
X2214615Y1071728D1*
X2219421Y1067625D1*
X2223525Y1062819D1*
X2226827Y1057432D1*
X2229245Y1051593D1*
X2230720Y1045449D1*
X2231217Y1039148D1*
X2230720Y1032848D1*
X2229245Y1026703D1*
X2226827Y1020865D1*
X2223525Y1015478D1*
X2220390Y1011589D1*
Y828831D1*
X2223525Y825049D1*
X2226827Y819661D1*
X2229245Y813823D1*
X2230720Y807678D1*
X2231206Y801118D1*
X2694844Y801115D1*
X1606524Y1338902D2*
X1599940Y1339387D1*
X1593795Y1340862D1*
X1587957Y1343281D1*
X1582570Y1346583D1*
X1577764Y1350686D1*
X1573660Y1355492D1*
X1570358Y1360879D1*
X1567940Y1366718D1*
X1566465Y1372862D1*
X1566298Y1374273D1*
X1566297Y932050D1*
X1691114Y807236D1*
X1708873Y807244D1*
X1613576Y902682D1*
X1610860Y906421D1*
X1608762Y910538D1*
X1607335Y914932D1*
X1606612Y919496D1*
X1606521Y1004483D1*
Y1338887D1*
X2161504Y1011715D2*
X2158365Y1015478D1*
X2155063Y1020865D1*
X2152644Y1026703D1*
X2151169Y1032848D1*
X2150673Y1039148D1*
X2151169Y1045449D1*
X2152644Y1051593D1*
X2155063Y1057432D1*
X2158365Y1062819D1*
X2162469Y1067625D1*
X2167274Y1071728D1*
X2172661Y1075030D1*
X2178500Y1077449D1*
X2182161Y1078430D1*
X2176664Y1080741D1*
X2171277Y1084043D1*
X2166471Y1088147D1*
X2162367Y1092953D1*
X2159066Y1098340D1*
X2157819Y1101043D1*
X2153039Y1096222D1*
X2147927Y1092508D1*
X2142295Y1089639D1*
X2136286Y1087686D1*
X2130045Y1086698D1*
X2124923Y1086651D1*
X2124818Y865808D1*
X2124020Y860778D1*
X2129600Y853465D1*
X2158197Y824869D1*
X2161500Y828937D1*
Y1011696D1*
X2555301Y1105156D2*
X2549573Y1101587D1*
X2543735Y1099168D1*
X2537591Y1097693D1*
X2531290Y1097197D1*
X2524990Y1097693D1*
X2518845Y1099168D1*
X2514207Y1101033D1*
X2514198Y1006772D1*
X2555303Y1047894D1*
X2555308Y1105139D1*
X2647663Y1071453D2*
X2647222Y1066572D1*
X2645747Y1060428D1*
X2643328Y1054589D1*
X2640026Y1049202D1*
X2635923Y1044396D1*
X2631117Y1040293D1*
X2625730Y1036991D1*
X2619891Y1034572D1*
X2614097Y1033167D1*
X2613385Y1028829D1*
X2611957Y1024436D1*
X2609860Y1020319D1*
X2607143Y1016580D1*
X2561753Y971062D1*
X2610766Y971068D1*
X2655283Y1015602D1*
X2655308Y1079110D1*
X2647710Y1071495D1*
X1939102Y911571D2*
X1942865Y914710D1*
X1948252Y918012D1*
X1954091Y920430D1*
X1960235Y921906D1*
X1966535Y922402D1*
X1972836Y921906D1*
X1978980Y920430D1*
X1984819Y918012D1*
X1990206Y914710D1*
X1995012Y910606D1*
X1999115Y905801D1*
X2002417Y900413D1*
X2004836Y894575D1*
X2006213Y888927D1*
X2060106Y888937D1*
X2060122Y1002521D1*
X2056151Y999231D1*
X2050764Y995929D1*
X2044925Y993510D1*
X2038781Y992035D1*
X2032480Y991539D1*
X2026180Y992035D1*
X2020035Y993510D1*
X2014197Y995929D1*
X2008810Y999231D1*
X2004004Y1003335D1*
X1999900Y1008140D1*
X1996598Y1013528D1*
X1994180Y1019366D1*
X1992705Y1025510D1*
X1992209Y1031811D1*
X1992705Y1038112D1*
X1994180Y1044256D1*
X1996598Y1050094D1*
X1999900Y1055482D1*
X2004004Y1060287D1*
X2005428Y1061604D1*
X2005436Y1235024D1*
X2000039Y1234696D1*
X1993739Y1235192D1*
X1987594Y1236667D1*
X1981756Y1239085D1*
X1976369Y1242387D1*
X1971563Y1246491D1*
X1967459Y1251297D1*
X1965238Y1254755D1*
X1965142Y1183425D1*
X1964419Y1178861D1*
X1962991Y1174467D1*
X1960894Y1170350D1*
X1958177Y1166612D1*
X1948261Y1156696D1*
X1944522Y1153979D1*
X1940406Y1151882D1*
X1936012Y1150454D1*
X1931448Y1149731D1*
X1846461Y1149640D1*
X1807096D1*
X1790092Y1132612D1*
X1790075Y972440D1*
X1850899Y911581D1*
X1939076Y911575D1*
X3662866Y2012466D2*
X425395D1*
X425391Y424997D1*
X3662886Y424966D1*
X3662890Y2012434D1*
X3256201Y1068701D2*
D17*
Y1010748D1*
X3198248Y1068701D2*
X3314154D1*
X540991Y1531059D2*
X628516Y1443534D1*
Y1531059D2*
X540991Y1443534D1*
X693701Y781201D2*
Y724744D1*
X637244Y781201D2*
X693701D1*
X1093701D2*
Y724744D1*
D20*
X3256201Y1168701D3*
D21*
Y1068701D3*
D23*
X3484753Y1687297D3*
Y1487297D3*
X3384753Y1687297D3*
Y1487297D3*
X2984753Y1687297D3*
Y1487297D3*
X2884753Y1687297D3*
Y1487297D3*
X2784753Y1687297D3*
Y1487297D3*
X2484753D3*
Y1687297D3*
X2384753D3*
Y1487297D3*
X1984753D3*
X1884753D3*
X1784753D3*
X1684753D3*
X1584753D3*
X584753D3*
X684753D3*
X784753D3*
X884753D3*
X984753D3*
X1084753D3*
X1184753D3*
X1284753D3*
X1384753D3*
X1484753D3*
X1984753Y1687297D3*
X1884753D3*
X1784753D3*
X1684753D3*
X1584753D3*
X1484753D3*
X1384753D3*
X1284753D3*
X1184753D3*
X1084753D3*
X984753D3*
X884753D3*
X784753D3*
X684753D3*
X584753D3*
X2084753Y1487297D3*
Y1687297D3*
X2184753D3*
Y1487297D3*
X2284753Y1687297D3*
Y1487297D3*
X2584753D3*
Y1687297D3*
X2684753D3*
Y1487297D3*
X3084753D3*
Y1687297D3*
X3184753Y1487297D3*
Y1687297D3*
X3284753Y1487297D3*
Y1687297D3*
D27*
X693701Y781201D3*
Y881201D3*
X793701D3*
Y781201D3*
X893701Y881201D3*
Y781201D3*
X993701Y881201D3*
Y781201D3*
X1093701D3*
D28*
Y881201D3*
D35*
X2918790Y593718D3*
X3108790D3*
X2628697Y597873D3*
X2438697D3*
M02*
