G04 DipTrace 3.3.1.3*
G04 BottomMask.gbr*
%MOIN*%
G04 #@! TF.FileFunction,Soldermask,Bot*
G04 #@! TF.Part,Single*
%ADD37C,0.137795*%
%ADD38C,0.035433*%
%ADD43C,0.055874*%
%ADD53R,0.067874X0.067874*%
%ADD55C,0.067874*%
%ADD61C,0.07874*%
%ADD65C,0.070866*%
%ADD67R,0.070866X0.070866*%
%FSLAX26Y26*%
G04*
G70*
G90*
G75*
G01*
G04 BotMask*
%LPD*%
D67*
X3256201Y1168701D3*
D65*
Y1068701D3*
D37*
X3543701Y1906201D3*
Y1243701D3*
X543701Y1906201D3*
Y1243701D3*
D61*
X3484753Y1687297D3*
Y1487297D3*
X3384753Y1687297D3*
Y1487297D3*
X2984753Y1687297D3*
Y1487297D3*
X2884753Y1687297D3*
Y1487297D3*
X2784753Y1687297D3*
Y1487297D3*
X2484753D3*
Y1687297D3*
X2384753D3*
Y1487297D3*
X1984753D3*
X1884753D3*
X1784753D3*
X1684753D3*
X1584753D3*
X584753D3*
X684753D3*
X784753D3*
X884753D3*
X984753D3*
X1084753D3*
X1184753D3*
X1284753D3*
X1384753D3*
X1484753D3*
X1984753Y1687297D3*
X1884753D3*
X1784753D3*
X1684753D3*
X1584753D3*
X1484753D3*
X1384753D3*
X1284753D3*
X1184753D3*
X1084753D3*
X984753D3*
X884753D3*
X784753D3*
X684753D3*
X584753D3*
X2084753Y1487297D3*
Y1687297D3*
X2184753D3*
Y1487297D3*
X2284753Y1687297D3*
Y1487297D3*
X2584753D3*
Y1687297D3*
X2684753D3*
Y1487297D3*
X3084753D3*
Y1687297D3*
X3184753Y1487297D3*
Y1687297D3*
X3284753Y1487297D3*
Y1687297D3*
D38*
X3483966Y682647D3*
Y855875D3*
D55*
X693701Y781201D3*
Y881201D3*
X793701D3*
Y781201D3*
X893701Y881201D3*
Y781201D3*
X993701Y881201D3*
Y781201D3*
X1093701D3*
D53*
Y881201D3*
D43*
X2918790Y593718D3*
X3108790D3*
X2628697Y597873D3*
X2438697D3*
M02*
