M48
INCH
T01C0.0118
T02C0.032
T03C0.0354
T04C0.038
T05C0.1378
%
T01
X+007363Y-000792
X+006113Y-000792
X+006551Y-001979
X+005551Y-002292
X+007142Y-003339
X+008188Y-003000
X+007651Y-005127
X+007085Y-005121
X+007077Y-005731
X+007641Y-005729
X+009551Y-006604
X+010000Y-006000
X+010301Y-007542
X+009788Y-008141
X+010700Y-009100
X+013849Y-009903
X+012162Y-004264
X+012003Y-000784
X+010844Y+001518
X+009061Y-000794
X+005062Y-004646
X+004426Y-005229
X+004113Y-006167
X+004426Y-006479
X+005176Y-007042
X+005863Y-007354
X+006930Y-007748
X+007363Y-008917
X+004812Y-009812
X+004242Y-008174
X+003875Y-007625
X+003079Y-007756
X+002688Y-006000
X+002438Y-005062
X+002952Y-004455
X+002613Y-003729
X+003312Y-003438
X+002551Y-002792
X+001250Y-003938
X+001562Y-004250
X+001618Y-005154
X+000510Y-005121
X+000803Y-003665
X+000563Y-003359
X+000740Y-003041
X+000562Y-002750
X-000169Y-002349
X-000812Y-003000
X-001493Y-002898
X-001187Y-003625
X-000853Y-003775
X-001137Y-004292
X-002262Y-005042
X-003097Y-005345
X-002467Y-005991
X-002152Y-006388
X-001137Y-005667
X-000853Y-006152
X-000860Y-007750
X-001207Y-007747
X-001837Y-007736
X-000250Y-008062
X-003755Y-009321
X-005631Y-009689
X-006154Y-008875
X-006517Y-008580
X-006567Y-009164
X-005635Y-007041
X-005137Y-006667
X-004671Y-007632
X-004356Y-005630
X-004041Y-004577
X-005382Y-003966
X-004808Y-002900
X-004356Y-001719
X-004950Y-001417
X-004949Y-000729
X-003820Y-001074
X-002762Y-001417
X-002123Y-001330
X-001837Y-001660
X-001447Y-001603
X-001726Y-000634
X-001152Y+000068
X-000174Y-001104
X+001062Y+001625
X+001676Y+002271
X+003830Y+001634
X-002413Y+003140
X-007449Y+001771
X-006700Y-000375
X-006825Y-001417
X-005923Y-001739
X-007012Y-003917
X-007699Y-004792
X-008950Y-004979
X-009952Y-004383
X-009887Y-002292
X-009325Y-001417
X-008762Y-002292
X-008762Y-000542
X-009887Y-000542
X-011450Y-001417
X-012449Y-002792
X-013762Y-001417
X-014540Y-002288
X-014558Y-000548
X-015449Y-000479
X-014938Y+004062
X-018492Y+005938
X-013202Y-007735
X-011404Y-009059
X-010493Y-008883
X-010730Y-007915
X-011069Y-007006
X-009323Y-007354
X-008533Y-007863
X-009284Y-009637
X-002437Y-003848
X-018492Y-009893
X+013826Y+005934
T02
X+006426Y-008229
X+008326Y-008229
X+003525Y-008188
X+001625Y-008188
T03
X+009800Y-002479
X+009800Y-003479
X+012078Y-005607
X+012078Y-007340
T04
X+012086Y+002707
X+011086Y+002707
X+010086Y+002707
X+009086Y+002707
X+008086Y+002707
X+007086Y+002707
X+006086Y+002707
X+005086Y+002707
X+004086Y+002707
X+003086Y+002707
X+002086Y+002707
X+001086Y+002707
X+000086Y+002707
X-000914Y+002707
X-001914Y+002707
X-002914Y+002707
X-003914Y+002707
X-004914Y+002707
X-005914Y+002707
X-006914Y+002707
X-007914Y+002707
X-008914Y+002707
X-009914Y+002707
X-010914Y+002707
X-011914Y+002707
X-012914Y+002707
X-013914Y+002707
X-014914Y+002707
X-015914Y+002707
X-016914Y+002707
X-016914Y+000707
X-015914Y+000707
X-014914Y+000707
X-013914Y+000707
X-012914Y+000707
X-011914Y+000707
X-010914Y+000707
X-009914Y+000707
X-008914Y+000707
X-007914Y+000707
X-006914Y+000707
X-005914Y+000707
X-004914Y+000707
X-003914Y+000707
X-002914Y+000707
X-001914Y+000707
X-000914Y+000707
X+000086Y+000707
X+001086Y+000707
X+002086Y+000707
X+003086Y+000707
X+004086Y+000707
X+005086Y+000707
X+006086Y+000707
X+007086Y+000707
X+008086Y+000707
X+009086Y+000707
X+010086Y+000707
X+011086Y+000707
X+012086Y+000707
X-011825Y-005354
X-011825Y-006354
X-012825Y-006354
X-013825Y-006354
X-013825Y-005354
X-012825Y-005354
X-014825Y-005354
X-014825Y-006354
X-015825Y-006354
X-015825Y-005354
T05
X+012675Y+004896
X+012675Y-001729
X-017325Y-001729
X-017325Y+004896
T00
M30
