G04 DipTrace 3.3.1.3*
G04 Top.gbr*
%MOIN*%
G04 #@! TF.FileFunction,Copper,L1,Top*
G04 #@! TF.Part,Single*
G04 #@! TA.AperFunction,Conductor*
%ADD14C,0.011811*%
%ADD15C,0.005906*%
G04 #@! TA.AperFunction,CopperBalancing*
%ADD16C,0.025*%
%ADD17C,0.012992*%
%ADD18R,0.043307X0.03937*%
%ADD19R,0.03937X0.043307*%
G04 #@! TA.AperFunction,ComponentPad*
%ADD20R,0.062992X0.062992*%
%ADD21C,0.062992*%
%ADD22R,0.03937X0.057087*%
G04 #@! TA.AperFunction,ComponentPad*
%ADD23C,0.070866*%
%ADD25R,0.090551X0.019685*%
%ADD26R,0.098425X0.07874*%
G04 #@! TA.AperFunction,ComponentPad*
%ADD27C,0.06*%
%ADD28R,0.06X0.06*%
%ADD29R,0.059055X0.03937*%
%ADD31R,0.070866X0.019685*%
%ADD32R,0.019685X0.070866*%
%ADD34R,0.025X0.05*%
G04 #@! TA.AperFunction,ComponentPad*
%ADD35C,0.048*%
G04 #@! TA.AperFunction,ViaPad*
%ADD36C,0.027559*%
%FSLAX26Y26*%
G04*
G70*
G90*
G75*
G01*
G04 Top*
%LPD*%
X1840551Y853587D2*
D14*
Y575394D1*
X1777559Y1189567D2*
Y1228932D1*
X1763774Y1242717D1*
X1683858D1*
Y1197619D1*
X1691911Y1189567D1*
X1714567D1*
X2092520Y1250591D2*
Y1189567D1*
X1683858Y1242717D2*
X744917D1*
X529881Y1457753D1*
Y1632424D1*
X584753Y1687297D1*
X3381604Y706251D2*
X3350073D1*
X3306290Y662467D1*
X2837541Y962467D2*
Y912469D1*
X2818790Y893718D1*
X2762541D1*
X2718790D2*
X2762541D1*
X2718790Y768718D2*
Y893718D1*
X793701Y781201D2*
Y776012D1*
X742222Y724533D1*
X654588D1*
X622592Y756529D1*
Y1120391D1*
X744917Y1242717D1*
X925992Y528867D2*
X850253D1*
X654588Y724533D1*
X1840551Y575394D2*
Y530406D1*
X1784320Y474175D1*
Y458311D1*
X1784753Y1487297D2*
D15*
X1848675Y1423375D1*
X2160958D1*
X2131472Y1256308D2*
Y1237556D1*
X2125222Y1231306D1*
Y1189567D1*
X2124016D1*
X2160958Y1423375D2*
X2920832D1*
X2984753Y1487297D1*
X1684753D2*
X1601866Y1404409D1*
X1589787D1*
X1576625Y1391247D1*
Y1366836D1*
X1588777Y1354684D1*
X1636007D1*
X1657201Y1375878D1*
X2143701D1*
X2155512Y1364067D1*
X3048640D1*
X3136000Y1451427D1*
Y1527483D1*
X3107265Y1556218D1*
X2768718D1*
X2735524Y1523024D1*
Y1464483D1*
X2758383Y1441623D1*
X2839080D1*
X2884753Y1487297D1*
X2155512Y1364067D2*
Y1189567D1*
X2784753Y1487297D2*
X2841175Y1543718D1*
X3007955D1*
X3031290Y1520383D1*
Y1452966D1*
X2969856Y1391531D1*
X1647083D1*
X1606240Y1379163D1*
X2437992Y901181D2*
X2460630Y923819D1*
Y1183127D1*
X2398088Y1245669D1*
X2198819D1*
X2187008Y1233858D1*
Y1189567D1*
X2684753Y1487297D2*
X2615832Y1556218D1*
X1518521D1*
X1484753Y1522450D1*
Y1487297D1*
X2350245Y1112543D2*
X2312741D1*
X2306584Y1118701D1*
X2257874D1*
X2584753Y1487297D2*
X2528332Y1543718D1*
X1562123D1*
X1531290Y1512885D1*
Y1461259D1*
X1506941Y1436909D1*
X1435140D1*
X1384753Y1487297D1*
X2332487Y1080710D2*
X2313322D1*
X2306491Y1087541D1*
X2278955D1*
X2278619Y1087205D1*
X2257874D1*
X2356546Y1050171D2*
X2331589D1*
X2321235Y1055709D1*
X2257874D1*
X2190213Y641613D2*
Y801378D1*
X2190945D1*
X2257874Y1055709D2*
X2218403D1*
X2201843Y1039148D1*
X2190945D1*
X2382446Y1579123D2*
X2360446D1*
X2350041Y1568718D1*
X1266175D1*
X1184753Y1487297D1*
X2401197Y1022873D2*
Y1022874D1*
X2257874D1*
Y1024213D1*
X2443790Y1643718D2*
X2440791D1*
X2426197Y1629123D1*
X1109537D1*
X1084753Y1604340D1*
Y1487297D1*
X2432446Y991623D2*
X2257874D1*
Y992717D1*
X2584753Y1687297D2*
Y1734004D1*
X2562539Y1756218D1*
X1075206D1*
X1034392Y1715404D1*
Y1536936D1*
X984753Y1487297D1*
X2257874Y709252D2*
X2512576D1*
X2628150Y824825D1*
Y990577D1*
X2650787Y1013215D1*
Y1111722D1*
X2625041Y1137469D1*
X2531290D1*
X2684753Y1687297D2*
X2603332Y1768718D1*
X875346D1*
X834902Y1728273D1*
Y1537148D1*
X884753Y1487297D1*
X2607446Y1072873D2*
Y841622D1*
X2506572Y740748D1*
X2257874D1*
X2784753Y1687297D2*
X2690832Y1781218D1*
X789988D1*
X735186Y1726416D1*
Y1536864D1*
X784753Y1487297D1*
X2519948Y910374D2*
Y829123D1*
X2463068Y772244D1*
X2257874D1*
X2884753Y1687297D2*
X2772083Y1799967D1*
X711419D1*
X636938Y1725487D1*
Y1535112D1*
X684753Y1487297D1*
X2831290Y1187469D2*
X2536327D1*
X2496063Y1147205D1*
Y833491D1*
X2466312Y803740D1*
X2257874D1*
X2931290Y1218718D2*
X2531290D1*
X2484252Y1171680D1*
Y859180D1*
X2460308Y835236D1*
X2257874D1*
X2984753Y1687297D2*
X2849177Y1822873D1*
X782446D1*
X884753Y1687297D2*
X931290Y1640760D1*
Y1468718D1*
X964634Y1435374D1*
X1104197D1*
X1131290Y1462467D1*
Y1562467D1*
X1185446Y1616623D1*
X3014080D1*
X3084753Y1687297D1*
Y1683067D1*
X3138697Y1629123D1*
X3365076D1*
X3434661Y1559538D1*
Y1362588D1*
X3381356Y1309282D1*
X2546854D1*
X2472441Y1234869D1*
Y884869D1*
X2454304Y866732D1*
X2257874D1*
X1031290Y1137469D2*
X1694004D1*
X1777024Y1054449D1*
X2051887D1*
X2135827Y970509D1*
Y932262D1*
X2169861Y898228D1*
X2257874D1*
X1762541Y749967D2*
Y718609D1*
X1731430Y687499D1*
X1700177D1*
X1687992Y699684D1*
Y1024213D1*
X1643701D1*
X1903543Y1189567D2*
Y1114277D1*
X1938697Y1079123D1*
X2157448D1*
X2194948Y1116623D1*
X1894201Y1309194D2*
X2016904D1*
X2029528Y1296571D1*
Y1189567D1*
X1966535Y882130D2*
Y575394D1*
X1737992Y1019996D2*
X1926954D1*
X1998031Y948919D1*
Y575394D1*
X2029528Y817533D2*
Y575394D1*
X1531290Y1593718D2*
X1553291D1*
X1562820Y1603247D1*
X3359261D1*
X3384753Y1577755D1*
Y1487297D1*
X2061024Y777799D2*
Y575394D1*
X2092520Y643013D2*
Y575394D1*
X2034932Y1730610D2*
X2021824Y1743718D1*
X1341175D1*
X1284753Y1687297D1*
X2032480Y1031811D2*
X2124016Y940276D1*
Y575394D1*
X3360630Y1568385D2*
Y1566596D1*
X3338802Y1588424D1*
X2670937D1*
X2662508Y1579995D1*
X2659185D1*
X1184753Y1687297D2*
X1230427Y1641623D1*
X2110446D1*
X2136217Y1667394D1*
Y1711906D1*
X2168029Y1743718D1*
X2507955D1*
X2535626Y1716047D1*
Y1654066D1*
X2556113Y1633579D1*
X2999403D1*
X3031290Y1665466D1*
Y1718789D1*
X3062469Y1749967D1*
X3222083D1*
X3284753Y1687297D1*
X2155512Y641892D2*
Y575394D1*
X3094948Y1116623D2*
X3091262D1*
X3089583Y1114944D1*
X2802516D1*
X2644946Y957374D1*
Y797873D1*
X2532446Y685373D1*
X2369948D1*
X2257448Y572873D1*
X2184487D1*
X2187008Y575394D1*
X1872047Y958972D2*
D14*
Y575394D1*
X1619529Y500245D2*
X1576270D1*
Y456495D1*
X2063919Y1283642D2*
X2061024D1*
Y1189567D1*
X1795374Y1126575D2*
X1746063D1*
Y1189567D1*
X3182310Y1337206D2*
X3012451Y1337451D1*
X2887451D1*
X2290007D1*
X2258773Y1306218D1*
X1781201Y1274950D2*
X1593701D1*
X1343701D1*
X1131201D1*
X899950D1*
X750188D1*
X662451Y1362686D1*
Y1409598D1*
X584753Y1487297D1*
X3381604Y832235D2*
X3293123D1*
X3262841Y862517D1*
Y912522D1*
X3294759Y944440D1*
X3385541D1*
X2973219Y456218D2*
X3058110D1*
X2762541Y826789D2*
X2816970D1*
X2837541Y806218D1*
Y762467D1*
X2762541Y826789D2*
Y749969D1*
X2750041Y737469D1*
X2700041D1*
X2687541Y749969D1*
Y799967D1*
X2973219Y456218D2*
Y485648D1*
X3012539Y524969D1*
X3058110Y456218D2*
Y479398D1*
X3012539Y524969D1*
X3276197Y816623D2*
X3277512D1*
X3293123Y832235D1*
X3602076Y594046D2*
Y944440D1*
X3385541D1*
Y594046D2*
X3602076D1*
X2409268Y454123D2*
Y446052D1*
X2438697Y416623D1*
X2618126D1*
X2655626Y454123D1*
X3385541Y594046D2*
Y545949D1*
X3346199Y506608D1*
X2655626Y454123D2*
X2738697D1*
X2757446Y435374D1*
X1135773Y458252D2*
Y510727D1*
X1872047Y575394D2*
Y524638D1*
X1851249Y503840D1*
Y458311D1*
X1874458D1*
X1900710Y484563D1*
X3109211Y1037564D2*
X3225064D1*
X3256201Y1068701D1*
X1643701Y646260D2*
D15*
X1593333D1*
X1582029Y634955D1*
Y568995D1*
X1515100D2*
Y458316D1*
X1513278Y456495D1*
X731290Y1368718D2*
X793694Y1306314D1*
X1791749D1*
X1809055Y1289008D1*
Y1189567D1*
X2906290Y1037469D2*
X2962539D1*
X2987541Y1012467D1*
Y962467D1*
Y762467D2*
Y772514D1*
X3013136Y798110D1*
Y1008419D1*
X3042282Y1037564D1*
X3187541Y762467D2*
Y734514D1*
X3168446Y715420D1*
Y703525D1*
X3156516Y691596D1*
X3085030D1*
X3019696Y626261D1*
Y614978D1*
Y605529D1*
X3031507Y593718D1*
X3108790D1*
X3125039Y456218D2*
Y577469D1*
X3108790Y593718D1*
X3137541Y762467D2*
Y734514D1*
X3156635Y715420D1*
Y708417D1*
X3151623Y703407D1*
X3080138D1*
X3007885Y631154D1*
Y614978D1*
Y605529D1*
X2996073Y593718D1*
X2918790D1*
X2906290Y456218D2*
Y581218D1*
X2918790Y593718D1*
X2588697Y454123D2*
X2550163D1*
X2538352Y465934D1*
Y475383D1*
Y572916D1*
X2539602Y574165D1*
Y586062D1*
X2551413Y597873D1*
X2628697D1*
X1935039Y575394D2*
Y537008D1*
X1925197Y527165D1*
Y520163D1*
X1930207Y515152D1*
X2226871Y515249D1*
X2358804Y647184D1*
X2513996D1*
X2539602Y621579D1*
Y609684D1*
X2551413Y597873D1*
X2476197Y454123D2*
X2514731D1*
X2526542Y465934D1*
Y475383D1*
X2526541Y577811D1*
X2527791Y579060D1*
Y586062D1*
X2515980Y597873D1*
X2438697D1*
X1903543Y575394D2*
Y537008D1*
X1913386Y527165D1*
Y515270D1*
X1925318Y503339D1*
X2231766Y503441D1*
X2363697Y635373D1*
X2509104D1*
X2527791Y616686D1*
Y609684D1*
X2515980Y597873D1*
X2332446Y1141623D2*
X2179196D1*
X2141696Y1104123D1*
X1957448D1*
X1935039Y1126531D1*
Y1189567D1*
X2126885Y1126845D2*
X1980049D1*
X1966535Y1140358D1*
Y1189567D1*
X2103547Y1353240D2*
X2102449Y1354339D1*
X1867244D1*
X1859252Y1346346D1*
Y1285531D1*
X1872047Y1272736D1*
Y1189567D1*
X1438114Y569501D2*
Y468419D1*
X1488232Y418301D1*
X1615367D1*
X1714567Y517500D1*
Y575394D1*
X1371185Y569501D2*
X1339797D1*
X1191077Y420782D1*
X1083953D1*
X1072781Y431954D1*
Y458252D1*
X1712678Y712501D2*
Y1073345D1*
X1698819Y1087205D1*
X1643701D1*
X1513093D1*
X1488339Y1062450D1*
X1449950D1*
X2887541Y762467D2*
Y731218D1*
X2868791Y712469D1*
X2793790D1*
X1169252Y715996D2*
X1568657D1*
X1575402Y709252D1*
X1643701D1*
Y803740D2*
X1591951D1*
X1583240Y812451D1*
X1449951D1*
X1376259D1*
X1245029Y943681D1*
X756181D1*
X693701Y881201D1*
X1643701Y740748D2*
X1305437D1*
X1220220Y825965D1*
X1048937D1*
X993701Y881201D1*
X1643701Y772244D2*
X1337512D1*
X1189697Y920059D1*
X932559D1*
X893701Y881201D1*
X1449951Y937451D2*
X1506290D1*
Y937469D1*
Y1034833D1*
X1527165Y1055709D1*
X1643701D1*
X2937541Y762467D2*
Y706218D1*
X2912541Y681218D1*
X2862541D1*
X3381604Y737747D2*
X3333375D1*
X3323533Y747589D1*
X3314084D1*
X3285715D1*
X3211777Y821528D1*
X3073457D1*
X3068446Y816517D1*
Y809514D1*
X3087541Y790420D1*
Y762467D1*
X3381604Y769243D2*
X3333375D1*
X3323533Y759400D1*
X3314084D1*
X3290608D1*
X3216669Y833339D1*
X3068564D1*
X3056635Y821409D1*
Y809514D1*
X3037541Y790420D1*
Y762467D1*
X2000039Y1274967D2*
Y1231136D1*
X1998963Y1230060D1*
Y1210052D1*
X1998031Y1209121D1*
Y1189567D1*
X1809055Y575394D2*
Y653453D1*
X2839361Y1037469D2*
X2743791D1*
X2663697Y957374D1*
Y654123D1*
X1660782Y529150D2*
Y589172D1*
X1725063Y653453D1*
X1809055D1*
X1449951Y687450D2*
X1409273D1*
X1250173Y528350D1*
X1226924D1*
X1154505D1*
X1146068Y536787D1*
X1123512D1*
X1115592Y528867D1*
X992921D1*
X1226924Y528350D2*
Y547978D1*
X993701Y781201D1*
X1840551Y1244685D2*
Y1189567D1*
D36*
X1135773Y510727D3*
X1809055Y653453D3*
X2663697Y654123D3*
X1809055Y653453D3*
X3012451Y1337451D3*
X2887451D3*
X3182310Y1337206D3*
X3476459Y1338176D3*
X3658816Y2010028D3*
X427003Y2010399D3*
Y427343D3*
X3661083Y426318D3*
X899950Y1274950D3*
X1131201D3*
X1781290Y1343718D3*
X1287451Y1362450D3*
X1399950Y1362451D3*
X1287451Y1187451D3*
X1399950D3*
X1281014Y978306D3*
X1381201Y918701D3*
X1574950Y1024951D3*
X2990438Y1082689D3*
X3276197Y816623D3*
X3492386Y990209D3*
X2782442Y951993D3*
X2983883Y843559D3*
X2687541Y799967D3*
X2259325Y1181769D3*
X2258773Y1306218D3*
X2162451Y987450D3*
Y849950D3*
X1203219Y625106D3*
X1624533Y558573D3*
X2157448Y1054123D3*
X2049950Y912451D3*
X1343701Y1274950D3*
X1593701D3*
X1781201D3*
X2251197Y610374D3*
X2984652Y904551D3*
X2544948Y816623D3*
X2537451Y1043701D3*
X2700441Y599197D3*
X3231290Y756218D3*
X3254961Y602483D3*
X3012539Y524969D3*
X1422942Y630370D3*
X1343890Y681248D3*
X2969205Y641787D3*
X2571366Y971073D3*
X3346199Y506608D3*
X1713143Y447764D3*
X1347752Y452970D3*
X956042Y643087D3*
X2327163Y904545D3*
X822165Y1187782D3*
X820356Y1361794D3*
X2584125Y640986D3*
X3041322Y903971D3*
X3040298Y843724D3*
X1840551Y853587D3*
X1683858Y1242717D3*
X2092520Y1250591D3*
X3306290Y662467D3*
X2718790Y768718D3*
Y893718D3*
X2131472Y1256308D3*
X2160958Y1423375D3*
X1606240Y1379163D3*
X2437992Y901181D3*
X2350245Y1112543D3*
X2332487Y1080710D3*
X2190945Y1039148D3*
Y801378D3*
X2190213Y641613D3*
X2356546Y1050171D3*
X2382446Y1579123D3*
X2401197Y1022873D3*
X2443790Y1643718D3*
X2432446Y991623D3*
X2531290Y1137469D3*
X2607446Y1072873D3*
X2519948Y910374D3*
X2831290Y1187469D3*
X2931290Y1218718D3*
X782446Y1822873D3*
X1031290Y1137469D3*
X1762541Y749967D3*
X2194948Y1116623D3*
X1894201Y1309194D3*
X1966535Y882130D3*
X1737992Y1019996D3*
X2029528Y817533D3*
X2061024Y777799D3*
X1531290Y1593718D3*
X2092520Y643013D3*
X2032480Y1031811D3*
X2659185Y1579995D3*
X3360630Y1568385D3*
X2034932Y1730610D3*
X2155512Y641892D3*
X3094948Y1116623D3*
X2862541Y681218D3*
X1506290Y937469D3*
X1712678Y712501D3*
X2793790Y712469D3*
X1619529Y500245D3*
X2063919Y1283642D3*
X1900710Y484563D3*
X1872047Y958972D3*
X2757446Y435374D3*
X1795374Y1126575D3*
X731290Y1368718D3*
X2332446Y1141623D3*
X2126885Y1126845D3*
X2103547Y1353240D3*
X1169252Y715996D3*
X2000039Y1274967D3*
X1226924Y528350D3*
X1660782Y529150D3*
X1840551Y1244685D3*
X427470Y1987581D2*
D16*
X491438D1*
X595982D2*
X3491429D1*
X3595971D2*
X3659976D1*
X427470Y1962713D2*
X464346D1*
X623038D2*
X3464336D1*
X3623064D2*
X3659976D1*
X427470Y1937844D2*
X451213D1*
X636172D2*
X3451202D1*
X3636197D2*
X3659976D1*
X427470Y1912975D2*
X446046D1*
X641339D2*
X3446035D1*
X3641365D2*
X3659976D1*
X427470Y1888106D2*
X447552D1*
X639867D2*
X3447542D1*
X3639858D2*
X3659976D1*
X427470Y1863238D2*
X456021D1*
X631364D2*
X3456047D1*
X3631353D2*
X3659976D1*
X427470Y1838369D2*
X474143D1*
X613278D2*
X742772D1*
X2877822D2*
X3474133D1*
X3613268D2*
X3660012D1*
X427470Y1813500D2*
X518711D1*
X568673D2*
X680799D1*
X2902689D2*
X3518701D1*
X3568699D2*
X3660012D1*
X427470Y1788631D2*
X655932D1*
X2927556D2*
X3660012D1*
X427470Y1763762D2*
X631064D1*
X2952424D2*
X3032112D1*
X3252416D2*
X3660012D1*
X427470Y1738894D2*
X548028D1*
X3321493D2*
X3348000D1*
X3421503D2*
X3448009D1*
X3521512D2*
X3660012D1*
X427470Y1714025D2*
X526390D1*
X3543114D2*
X3660049D1*
X427470Y1689156D2*
X520361D1*
X3549143D2*
X3660049D1*
X427470Y1664287D2*
X513436D1*
X3544728D2*
X3660049D1*
X427470Y1639419D2*
X495745D1*
X3426526D2*
X3442984D1*
X3526535D2*
X3660049D1*
X427470Y1614550D2*
X494991D1*
X3423799D2*
X3660049D1*
X427470Y1589681D2*
X494991D1*
X3448667D2*
X3660084D1*
X427470Y1564812D2*
X494991D1*
X3466142D2*
X3660084D1*
X427470Y1539944D2*
X494991D1*
X3519861D2*
X3660084D1*
X427470Y1515075D2*
X494991D1*
X3542612D2*
X3660084D1*
X427470Y1490206D2*
X494991D1*
X3549106D2*
X3660084D1*
X427470Y1465337D2*
X494991D1*
X3545159D2*
X3660084D1*
X427470Y1440469D2*
X499979D1*
X627774D2*
X641722D1*
X727785D2*
X741731D1*
X827757D2*
X841740D1*
X1227759D2*
X1241741D1*
X1327768D2*
X1341751D1*
X3227764D2*
X3241747D1*
X3327773D2*
X3341719D1*
X3527756D2*
X3660121D1*
X427470Y1415600D2*
X523735D1*
X620346D2*
X940278D1*
X1128575D2*
X1412335D1*
X1529760D2*
X1556840D1*
X3144297D2*
X3402723D1*
X3466609D2*
X3660121D1*
X427470Y1390731D2*
X548602D1*
X645215D2*
X695081D1*
X767508D2*
X1544676D1*
X3119429D2*
X3402723D1*
X3466609D2*
X3660121D1*
X427470Y1365862D2*
X573470D1*
X670083D2*
X688622D1*
X778273D2*
X1544711D1*
X3094562D2*
X3393787D1*
X3466609D2*
X3660121D1*
X427470Y1340993D2*
X598337D1*
X803140D2*
X1558311D1*
X1666442D2*
X1827299D1*
X3069442D2*
X3368920D1*
X3457207D2*
X3660121D1*
X427470Y1316125D2*
X479130D1*
X608290D2*
X623206D1*
X719818D2*
X739757D1*
X2054028D2*
X2085415D1*
X2187445D2*
X2509566D1*
X3432340D2*
X3479121D1*
X3608280D2*
X3660156D1*
X427470Y1291256D2*
X458497D1*
X628887D2*
X648073D1*
X744685D2*
X764625D1*
X2061455D2*
X2108954D1*
X2187445D2*
X2484698D1*
X3407471D2*
X3458522D1*
X3628877D2*
X3660156D1*
X427470Y1266387D2*
X448558D1*
X638864D2*
X672941D1*
X2421518D2*
X2459829D1*
X2548117D2*
X3448547D1*
X3638853D2*
X3660156D1*
X427470Y1241518D2*
X445829D1*
X641554D2*
X695404D1*
X2966993D2*
X3445820D1*
X3641580D2*
X3660156D1*
X427470Y1216650D2*
X449741D1*
X637678D2*
X670537D1*
X2973991D2*
X3195707D1*
X3316685D2*
X3449731D1*
X3637669D2*
X3660156D1*
X427470Y1191781D2*
X461189D1*
X626232D2*
X645669D1*
X742281D2*
X1649493D1*
X2225841D2*
X2407833D1*
X2963728D2*
X3195707D1*
X3316685D2*
X3461178D1*
X3626222D2*
X3660192D1*
X427470Y1166912D2*
X484621D1*
X602799D2*
X620802D1*
X717413D2*
X1001318D1*
X2366291D2*
X2428682D1*
X2868420D2*
X3195707D1*
X3316685D2*
X3484610D1*
X3602789D2*
X3660192D1*
X427470Y1142043D2*
X596005D1*
X692546D2*
X988794D1*
X2380143D2*
X2428682D1*
X2664597D2*
X2788493D1*
X3128688D2*
X3195707D1*
X3316685D2*
X3660192D1*
X427470Y1117175D2*
X587680D1*
X667678D2*
X993997D1*
X1758450D2*
X1871580D1*
X2392739D2*
X2428682D1*
X2682217D2*
X2760612D1*
X3137730D2*
X3195707D1*
X3316685D2*
X3660192D1*
X427470Y1092306D2*
X587680D1*
X657487D2*
X1391415D1*
X1783318D2*
X1881377D1*
X2387571D2*
X2428682D1*
X2528022D2*
X2569672D1*
X2682719D2*
X2735744D1*
X3129549D2*
X3200731D1*
X3311661D2*
X3660192D1*
X427470Y1067437D2*
X587680D1*
X657487D2*
X1391415D1*
X2395430D2*
X2428682D1*
X2528022D2*
X2565042D1*
X2682719D2*
X2710875D1*
X2956946D2*
X2991634D1*
X3092911D2*
X3195743D1*
X3316685D2*
X3660192D1*
X427470Y1042568D2*
X587680D1*
X657487D2*
X1391415D1*
X2107925D2*
X2148319D1*
X2528022D2*
X2575484D1*
X3092911D2*
X3201951D1*
X3310476D2*
X3660228D1*
X427470Y1017699D2*
X587680D1*
X657487D2*
X1391415D1*
X1538228D2*
X1579268D1*
X1973396D2*
X1992259D1*
X2132794D2*
X2154348D1*
X2528022D2*
X2575484D1*
X3092911D2*
X3226101D1*
X3286291D2*
X3660228D1*
X427470Y992831D2*
X587680D1*
X657487D2*
X1474343D1*
X1538228D2*
X1579268D1*
X1998264D2*
X2019854D1*
X2157661D2*
X2193462D1*
X2528022D2*
X2575484D1*
X2743291D2*
X2788709D1*
X3229020D2*
X3660228D1*
X427470Y967962D2*
X587680D1*
X657487D2*
X737030D1*
X1264181D2*
X1391415D1*
X1538228D2*
X1579268D1*
X1744634D2*
X1934844D1*
X2022988D2*
X2052185D1*
X2167781D2*
X2193462D1*
X2528022D2*
X2575484D1*
X2718424D2*
X2796064D1*
X3229020D2*
X3660228D1*
X427470Y943093D2*
X587680D1*
X657487D2*
X711445D1*
X1289766D2*
X1391415D1*
X1548671D2*
X1579268D1*
X1744634D2*
X1959713D1*
X2029986D2*
X2077054D1*
X2169144D2*
X2193462D1*
X2322298D2*
X2428682D1*
X2545928D2*
X2575484D1*
X2695636D2*
X2796064D1*
X3229020D2*
X3660228D1*
X427470Y918224D2*
X587680D1*
X1314634D2*
X1391415D1*
X1544150D2*
X1579268D1*
X1744634D2*
X1946184D1*
X2029986D2*
X2092052D1*
X2322298D2*
X2399007D1*
X2561933D2*
X2575484D1*
X3229020D2*
X3660264D1*
X427470Y893356D2*
X587680D1*
X1339501D2*
X1391415D1*
X1508480D2*
X1579268D1*
X1744634D2*
X1831713D1*
X1849423D2*
X1925371D1*
X2029986D2*
X2092052D1*
X2558954D2*
X2575484D1*
X2866194D2*
X2981192D1*
X3045077D2*
X3458021D1*
X3509921D2*
X3660264D1*
X427470Y868487D2*
X587680D1*
X1364370D2*
X1579268D1*
X1744634D2*
X1800638D1*
X1880455D2*
X1926160D1*
X2029986D2*
X2092052D1*
X2155975D2*
X2193462D1*
X2551885D2*
X2575484D1*
X2841614D2*
X2981192D1*
X3045077D2*
X3307343D1*
X3528832D2*
X3660264D1*
X427470Y843618D2*
X587680D1*
X1508480D2*
X1579268D1*
X1744634D2*
X1799022D1*
X1882071D2*
X1934593D1*
X2062711D2*
X2092052D1*
X2155975D2*
X2193462D1*
X2551885D2*
X2565294D1*
X2811220D2*
X2981192D1*
X3250514D2*
X3307343D1*
X3528940D2*
X3660264D1*
X427470Y818749D2*
X587680D1*
X1744634D2*
X1805661D1*
X1875432D2*
X1934593D1*
X2072293D2*
X2092052D1*
X2811220D2*
X2981192D1*
X3275382D2*
X3307343D1*
X3510459D2*
X3660264D1*
X427470Y793881D2*
X587680D1*
X1151253D2*
X1208154D1*
X1744634D2*
X1805661D1*
X1875432D2*
X1934593D1*
X2811220D2*
X2846051D1*
X3455879D2*
X3660299D1*
X427470Y769012D2*
X587680D1*
X1151361D2*
X1233021D1*
X1875432D2*
X1934593D1*
X2761556D2*
X2846051D1*
X3455879D2*
X3660299D1*
X427470Y744143D2*
X590156D1*
X1875432D2*
X1934593D1*
X2753196D2*
X2766424D1*
X2821160D2*
X2846051D1*
X3229020D2*
X3245012D1*
X3455879D2*
X3660299D1*
X427470Y719274D2*
X611543D1*
X785270D2*
X1011472D1*
X1099760D2*
X1126625D1*
X1875432D2*
X1934593D1*
X2610484D2*
X2631751D1*
X2695636D2*
X2751604D1*
X3229020D2*
X3275118D1*
X3511213D2*
X3660299D1*
X427470Y694406D2*
X636411D1*
X756635D2*
X1036340D1*
X1782492D2*
X1805661D1*
X1875432D2*
X1934593D1*
X2585615D2*
X2631751D1*
X2695636D2*
X2755301D1*
X2967029D2*
X3026979D1*
X3198949D2*
X3279245D1*
X3529083D2*
X3660299D1*
X427470Y669537D2*
X661278D1*
X757891D2*
X1061207D1*
X1149495D2*
X1347205D1*
X1508480D2*
X1572808D1*
X1875432D2*
X1934593D1*
X2560748D2*
X2624000D1*
X2703388D2*
X2821507D1*
X2944996D2*
X3002112D1*
X3178530D2*
X3264138D1*
X3361684D2*
X3439253D1*
X3528689D2*
X3660299D1*
X427470Y644668D2*
X686147D1*
X782759D2*
X1086076D1*
X1174362D2*
X1322337D1*
X1508480D2*
X1551744D1*
X1875432D2*
X1934593D1*
X2560640D2*
X2607243D1*
X2705325D2*
X2843144D1*
X2881948D2*
X2979218D1*
X3082253D2*
X3267655D1*
X3344925D2*
X3458845D1*
X3509096D2*
X3660336D1*
X427470Y619799D2*
X711014D1*
X807626D2*
X1110944D1*
X1199231D2*
X1297470D1*
X1385757D2*
X1550094D1*
X2687276D2*
X2873072D1*
X3154524D2*
X3660336D1*
X427470Y594930D2*
X735882D1*
X832495D2*
X1135846D1*
X1224098D2*
X1272601D1*
X2367404D2*
X2385801D1*
X2681606D2*
X2865824D1*
X3161773D2*
X3660336D1*
X427470Y570062D2*
X760749D1*
X857362D2*
X875364D1*
X1043566D2*
X1160715D1*
X2342537D2*
X2394054D1*
X2673353D2*
X2871673D1*
X3157000D2*
X3660336D1*
X427470Y545193D2*
X785617D1*
X2317669D2*
X2494602D1*
X2570294D2*
X2874328D1*
X2938251D2*
X3092324D1*
X3157000D2*
X3660336D1*
X427470Y520324D2*
X810486D1*
X1334765D2*
X1406163D1*
X1547056D2*
X1618992D1*
X2292801D2*
X2494602D1*
X2570294D2*
X2874328D1*
X2938251D2*
X3093079D1*
X3157000D2*
X3660371D1*
X427470Y495455D2*
X875364D1*
X1184446D2*
X1201192D1*
X1309898D2*
X1406163D1*
X2267933D2*
X2425560D1*
X2639335D2*
X2855633D1*
X2956946D2*
X3074382D1*
X3175696D2*
X3660371D1*
X427470Y470587D2*
X1024104D1*
X1285030D2*
X1406163D1*
X1711801D2*
X1733677D1*
X1901879D2*
X2425560D1*
X2639335D2*
X2855633D1*
X2956946D2*
X3074382D1*
X3175696D2*
X3660371D1*
X427470Y445718D2*
X1024104D1*
X1260161D2*
X1416677D1*
X1686933D2*
X1733677D1*
X1901879D2*
X2425560D1*
X2639335D2*
X2855633D1*
X2956946D2*
X3074382D1*
X3175696D2*
X3660371D1*
X2867331Y1083646D2*
X2954436D1*
Y1066887D1*
X2964849Y1066823D1*
X2969413Y1066100D1*
X2973807Y1064672D1*
X2977924Y1062575D1*
X2981663Y1059858D1*
X2994144Y1047505D1*
X2994136Y1083741D1*
X3071682D1*
X3069424Y1085504D1*
X2814745Y1085499D1*
X2818774Y1083646D1*
X2867331D1*
X2798550Y991291D2*
X2791215D1*
Y1008050D1*
X2756001Y1008024D1*
X2693134Y945169D1*
X2693142Y924756D1*
X2697748Y928055D1*
X2703379Y930924D1*
X2709388Y932877D1*
X2716358Y933894D1*
X2716364Y941864D1*
X2798575D1*
X2798549Y991319D1*
X1740948Y504488D2*
X1768794D1*
X1777778Y513449D1*
X1743740Y513469D1*
X1742571Y508402D1*
X1741766Y506223D1*
X1735381Y496673D1*
X1663655Y424948D1*
X1736184Y424958D1*
X1736175Y497503D1*
X1860454Y504488D2*
X1885990D1*
X1884755Y508396D1*
X1884031Y512969D1*
X1875573Y513469D1*
X1868156D1*
X1865186Y509365D1*
X1860441Y504478D1*
X1899395Y487615D2*
Y424962D1*
X2428030D1*
X2428051Y500301D1*
X2497129D1*
X2497096Y568430D1*
X2479701Y568428D1*
X2474400Y562169D1*
X2468375Y557024D1*
X2461619Y552885D1*
X2454299Y549852D1*
X2446596Y548003D1*
X2438697Y547381D1*
X2430798Y548003D1*
X2423094Y549852D1*
X2415774Y552885D1*
X2409018Y557024D1*
X2402993Y562169D1*
X2397848Y568194D1*
X2393709Y574950D1*
X2390676Y582270D1*
X2388827Y589974D1*
X2388205Y597873D1*
X2388860Y605938D1*
X2375866Y605928D1*
X2250890Y481051D1*
X2247151Y478335D1*
X2243034Y476238D1*
X2238640Y474810D1*
X2234077Y474087D1*
X2149098Y473969D1*
X1923017Y473984D1*
X1918453Y474705D1*
X1914059Y476131D1*
X1909941Y478227D1*
X1906202Y480942D1*
X1899398Y487617D1*
X2808718Y861320D2*
Y778643D1*
X2757812D1*
X2758937Y771878D1*
Y765558D1*
X2757949Y759316D1*
X2755996Y753307D1*
X2753127Y747676D1*
X2749413Y742563D1*
X2744945Y738094D1*
X2739832Y734381D1*
X2734201Y731512D1*
X2728192Y729559D1*
X2721950Y728571D1*
X2715630D1*
X2709388Y729559D1*
X2703379Y731512D1*
X2697748Y734381D1*
X2693150Y737690D1*
X2693142Y681604D1*
X2696277Y677794D1*
X2699579Y672407D1*
X2701997Y666568D1*
X2703472Y660424D1*
X2703969Y654123D1*
X2703472Y647823D1*
X2701997Y641678D1*
X2699579Y635840D1*
X2696277Y630453D1*
X2692173Y625647D1*
X2687367Y621543D1*
X2681980Y618241D1*
X2675916Y615759D1*
X2677794Y609660D1*
X2679033Y601835D1*
Y593911D1*
X2677794Y586085D1*
X2675345Y578550D1*
X2671748Y571491D1*
X2667092Y565080D1*
X2661490Y559478D1*
X2655079Y554822D1*
X2648020Y551224D1*
X2640484Y548776D1*
X2632659Y547537D1*
X2624735D1*
X2616909Y548776D1*
X2609374Y551224D1*
X2602315Y554822D1*
X2595904Y559478D1*
X2590302Y565080D1*
X2587685Y568438D1*
X2568448Y568428D1*
X2567797Y563730D1*
Y500323D1*
X2636843Y500301D1*
Y424979D1*
X2858138Y424965D1*
X2858144Y502395D1*
X2876840D1*
X2876845Y565629D1*
X2873802Y570795D1*
X2870769Y578115D1*
X2868920Y585819D1*
X2868298Y593718D1*
X2868920Y601617D1*
X2870769Y609320D1*
X2873802Y616640D1*
X2877941Y623396D1*
X2883087Y629421D1*
X2889112Y634567D1*
X2895867Y638706D1*
X2903188Y641739D1*
X2910891Y643588D1*
X2918790Y644210D1*
X2926689Y643588D1*
X2934392Y641739D1*
X2941713Y638706D1*
X2948469Y634567D1*
X2954493Y629421D1*
X2959802Y623152D1*
X2978466Y623163D1*
X2978530Y633463D1*
X2979253Y638028D1*
X2980681Y642421D1*
X2982778Y646538D1*
X2985495Y650277D1*
X3046058Y710969D1*
X2967001Y710975D1*
X2966895Y703908D1*
X2966172Y699344D1*
X2964744Y694950D1*
X2962647Y690833D1*
X2959930Y687094D1*
X2933361Y660398D1*
X2929848Y657396D1*
X2925908Y654982D1*
X2921639Y653214D1*
X2917147Y652135D1*
X2912541Y651773D1*
X2890041D1*
X2886211Y648638D1*
X2880824Y645336D1*
X2874986Y642917D1*
X2868841Y641442D1*
X2862541Y640946D1*
X2856240Y641442D1*
X2850096Y642917D1*
X2844257Y645336D1*
X2838870Y648638D1*
X2834064Y652741D1*
X2829961Y657547D1*
X2826659Y662934D1*
X2824240Y668773D1*
X2822765Y674917D1*
X2822269Y681218D1*
X2822340Y683033D1*
X2819945Y681845D1*
X2814832Y678131D1*
X2809201Y675262D1*
X2803192Y673310D1*
X2796950Y672322D1*
X2790630D1*
X2784388Y673310D1*
X2778379Y675262D1*
X2772748Y678131D1*
X2767635Y681845D1*
X2763167Y686314D1*
X2759453Y691427D1*
X2756584Y697058D1*
X2754631Y703067D1*
X2753643Y709308D1*
Y715629D1*
X2754631Y721870D1*
X2756584Y727879D1*
X2759453Y733510D1*
X2763167Y738623D1*
X2767635Y743092D1*
X2772748Y746806D1*
X2778379Y749675D1*
X2784388Y751627D1*
X2790630Y752615D1*
X2796950D1*
X2803192Y751627D1*
X2809201Y749675D1*
X2814832Y746806D1*
X2819945Y743092D1*
X2821349Y741913D1*
X2848513D1*
X2848549Y813959D1*
X2976533Y813924D1*
X2983692Y816483D1*
Y910967D1*
X2869895Y910975D1*
X2869043Y904906D1*
X2867472Y900071D1*
X2865164Y895541D1*
X2862176Y891428D1*
X2841698Y870810D1*
X2837833Y867508D1*
X2833499Y864852D1*
X2828802Y862906D1*
X2823858Y861719D1*
X2818790Y861320D1*
X2808706D1*
X3207399Y1226689D2*
X3314189D1*
Y1110713D1*
X3296139D1*
X3300294Y1106362D1*
X3304701Y1100487D1*
X3308329Y1094102D1*
X3311122Y1087310D1*
X3313034Y1080218D1*
X3314034Y1072942D1*
X3314072Y1065029D1*
X3313144Y1057744D1*
X3311303Y1050634D1*
X3308577Y1043814D1*
X3305012Y1037394D1*
X3300663Y1031475D1*
X3295601Y1026154D1*
X3289908Y1021516D1*
X3283673Y1017634D1*
X3276999Y1014571D1*
X3269990Y1012375D1*
X3262760Y1011085D1*
X3255425Y1010718D1*
X3248102Y1011281D1*
X3240909Y1012765D1*
X3233962Y1015146D1*
X3227371Y1018387D1*
X3221243Y1022434D1*
X3215676Y1027223D1*
X3210759Y1032678D1*
X3206570Y1038711D1*
X3203177Y1045224D1*
X3200635Y1052114D1*
X3198984Y1059270D1*
X3198252Y1066579D1*
X3198448Y1073920D1*
X3199571Y1081178D1*
X3201602Y1088235D1*
X3204509Y1094980D1*
X3208245Y1101303D1*
X3212751Y1107102D1*
X3216235Y1110709D1*
X3198213Y1110713D1*
Y1226689D1*
X3207399D1*
X2935762Y502395D2*
X2954436D1*
Y424992D1*
X3076888Y424966D1*
X3076894Y502395D1*
X3095589D1*
X3095594Y544959D1*
X3089467Y547070D1*
X3082408Y550667D1*
X3075997Y555323D1*
X3070395Y560925D1*
X3067778Y564283D1*
X3029197Y564364D1*
X3024633Y565087D1*
X3020239Y566514D1*
X3016122Y568612D1*
X3014192Y569902D1*
X3013381Y569896D1*
X3009441Y567482D1*
X3005172Y565714D1*
X3000680Y564635D1*
X2996073Y564273D1*
X2959794D1*
X2954493Y558014D1*
X2948469Y552869D1*
X2941713Y548730D1*
X2935744Y546196D1*
X2935735Y502381D1*
X3154512Y502395D2*
X3173185D1*
Y424992D1*
X3662877Y424970D1*
X3662454Y2012434D1*
X424955Y2012450D1*
X424951Y424982D1*
X1026609Y424954D1*
X1026604Y482699D1*
X877846Y482690D1*
Y496505D1*
X847711Y496570D1*
X842690Y497365D1*
X837856Y498936D1*
X833325Y501244D1*
X829213Y504232D1*
X781874Y551429D1*
X597957Y735488D1*
X594969Y739601D1*
X592660Y744131D1*
X591089Y748966D1*
X590294Y753987D1*
X590194Y820833D1*
X590294Y1122933D1*
X591089Y1127954D1*
X592660Y1132789D1*
X594969Y1137319D1*
X597957Y1141432D1*
X645154Y1188770D1*
X699123Y1242740D1*
X505245Y1436713D1*
X502257Y1440825D1*
X499949Y1445356D1*
X498378Y1450190D1*
X497583Y1455211D1*
X497483Y1522058D1*
X497583Y1634966D1*
X498378Y1639987D1*
X499949Y1644822D1*
X502257Y1649352D1*
X505245Y1653465D1*
X524505Y1672866D1*
X523018Y1682438D1*
Y1692155D1*
X524539Y1701753D1*
X527542Y1710995D1*
X531953Y1719652D1*
X537665Y1727514D1*
X544535Y1734385D1*
X552398Y1740097D1*
X561055Y1744508D1*
X570297Y1747510D1*
X579895Y1749031D1*
X589612D1*
X599210Y1747510D1*
X608451Y1744508D1*
X612883Y1742463D1*
X616118Y1746307D1*
X692295Y1822357D1*
X696034Y1825073D1*
X700151Y1827171D1*
X704545Y1828598D1*
X709109Y1829322D1*
X742673Y1829412D1*
X744146Y1835318D1*
X746564Y1841156D1*
X749866Y1846543D1*
X753970Y1851349D1*
X758776Y1855453D1*
X764163Y1858755D1*
X770001Y1861173D1*
X776146Y1862648D1*
X782446Y1863144D1*
X788747Y1862648D1*
X794891Y1861173D1*
X800730Y1858755D1*
X806117Y1855453D1*
X810005Y1852318D1*
X2851487Y1852227D1*
X2856051Y1851504D1*
X2860445Y1850076D1*
X2864562Y1847979D1*
X2868301Y1845262D1*
X2928459Y1785232D1*
X2967054Y1746638D1*
X2975066Y1748459D1*
X2984753Y1749222D1*
X2994441Y1748459D1*
X3003890Y1746192D1*
X3012866Y1742472D1*
X3013181Y1742297D1*
X3043345Y1772357D1*
X3047084Y1775073D1*
X3051201Y1777171D1*
X3055594Y1778598D1*
X3060159Y1779322D1*
X3145146Y1779412D1*
X3224392Y1779322D1*
X3228957Y1778598D1*
X3233350Y1777171D1*
X3237467Y1775073D1*
X3241206Y1772357D1*
X3267034Y1746657D1*
X3275066Y1748459D1*
X3284753Y1749222D1*
X3294441Y1748459D1*
X3303890Y1746192D1*
X3312866Y1742472D1*
X3321152Y1737395D1*
X3328541Y1731084D1*
X3334745Y1723829D1*
X3340966Y1731084D1*
X3348354Y1737395D1*
X3356640Y1742472D1*
X3365617Y1746192D1*
X3375066Y1748459D1*
X3384753Y1749222D1*
X3394441Y1748459D1*
X3403890Y1746192D1*
X3412866Y1742472D1*
X3421152Y1737395D1*
X3428541Y1731084D1*
X3434745Y1723829D1*
X3440966Y1731084D1*
X3448354Y1737395D1*
X3456640Y1742472D1*
X3465617Y1746192D1*
X3475066Y1748459D1*
X3484753Y1749222D1*
X3494441Y1748459D1*
X3503890Y1746192D1*
X3512866Y1742472D1*
X3521152Y1737395D1*
X3528541Y1731084D1*
X3534852Y1723696D1*
X3539929Y1715409D1*
X3543648Y1706433D1*
X3545916Y1696984D1*
X3546678Y1687297D1*
X3545916Y1677609D1*
X3543648Y1668160D1*
X3539929Y1659184D1*
X3534852Y1650898D1*
X3528541Y1643509D1*
X3521152Y1637198D1*
X3512866Y1632121D1*
X3503890Y1628402D1*
X3494441Y1626134D1*
X3484753Y1625371D1*
X3475066Y1626134D1*
X3465617Y1628402D1*
X3456640Y1632121D1*
X3448354Y1637198D1*
X3440966Y1643509D1*
X3434761Y1650764D1*
X3428541Y1643509D1*
X3421152Y1637198D1*
X3412866Y1632121D1*
X3406472Y1629356D1*
X3457051Y1578661D1*
X3459768Y1574923D1*
X3461865Y1570806D1*
X3463293Y1566412D1*
X3464016Y1561848D1*
X3464106Y1545651D1*
X3470297Y1547510D1*
X3479895Y1549031D1*
X3489612D1*
X3499210Y1547510D1*
X3508451Y1544508D1*
X3517109Y1540097D1*
X3524971Y1534385D1*
X3531841Y1527514D1*
X3537554Y1519652D1*
X3541965Y1510995D1*
X3544967Y1501753D1*
X3546488Y1492155D1*
Y1482438D1*
X3544967Y1472840D1*
X3541965Y1463598D1*
X3537554Y1454941D1*
X3531841Y1447079D1*
X3524971Y1440209D1*
X3517109Y1434496D1*
X3508451Y1430085D1*
X3499210Y1427083D1*
X3489612Y1425562D1*
X3479895D1*
X3470297Y1427083D1*
X3464102Y1428961D1*
X3464016Y1360278D1*
X3463293Y1355714D1*
X3461865Y1351320D1*
X3459768Y1347203D1*
X3457051Y1343465D1*
X3402176Y1288462D1*
X3398663Y1285461D1*
X3394723Y1283046D1*
X3390454Y1281278D1*
X3385962Y1280199D1*
X3381356Y1279837D1*
X2559070D1*
X2527051Y1247837D1*
X2531299Y1248163D1*
X2903803D1*
X2907619Y1251298D1*
X2913007Y1254600D1*
X2918845Y1257018D1*
X2924990Y1258493D1*
X2931290Y1258990D1*
X2937591Y1258493D1*
X2943735Y1257018D1*
X2949573Y1254600D1*
X2954961Y1251298D1*
X2959766Y1247194D1*
X2963870Y1242388D1*
X2967172Y1237001D1*
X2969591Y1231163D1*
X2971066Y1225018D1*
X2971562Y1218718D1*
X2971066Y1212417D1*
X2969591Y1206273D1*
X2967172Y1200434D1*
X2963870Y1195047D1*
X2959766Y1190241D1*
X2954961Y1186138D1*
X2949573Y1182836D1*
X2943735Y1180417D1*
X2937591Y1178942D1*
X2931290Y1178446D1*
X2924990Y1178942D1*
X2918845Y1180417D1*
X2913007Y1182836D1*
X2907619Y1186138D1*
X2903731Y1189273D1*
X2871543D1*
X2871437Y1184308D1*
X2870449Y1178067D1*
X2868496Y1172058D1*
X2865627Y1166427D1*
X2861913Y1161314D1*
X2857445Y1156845D1*
X2852332Y1153131D1*
X2846701Y1150262D1*
X2840692Y1148310D1*
X2834450Y1147322D1*
X2828130D1*
X2821888Y1148310D1*
X2815879Y1150262D1*
X2810248Y1153131D1*
X2805135Y1156845D1*
X2803731Y1158024D1*
X2646092D1*
X2673177Y1130845D1*
X2675894Y1127106D1*
X2677991Y1122990D1*
X2679419Y1118596D1*
X2680142Y1114031D1*
X2680232Y1034320D1*
X2783392Y1137333D1*
X2787131Y1140050D1*
X2791248Y1142147D1*
X2795642Y1143575D1*
X2800206Y1144298D1*
X2885193Y1144388D1*
X3065798D1*
X3071277Y1149203D1*
X3076664Y1152505D1*
X3082503Y1154924D1*
X3088647Y1156399D1*
X3094948Y1156895D1*
X3101248Y1156399D1*
X3107392Y1154924D1*
X3113231Y1152505D1*
X3118618Y1149203D1*
X3123424Y1145100D1*
X3127528Y1140294D1*
X3130829Y1134907D1*
X3133248Y1129068D1*
X3134723Y1122924D1*
X3135219Y1116623D1*
X3134723Y1110323D1*
X3133248Y1104178D1*
X3130829Y1098340D1*
X3127528Y1092953D1*
X3123424Y1088147D1*
X3118618Y1084043D1*
X3113231Y1080741D1*
X3107392Y1078323D1*
X3101248Y1076848D1*
X3094948Y1076352D1*
X3090427Y1076636D1*
X3090428Y1013946D1*
X3226533Y1013959D1*
Y910975D1*
X3042551D1*
X3042583Y848986D1*
X3049441Y855728D1*
X3053180Y858445D1*
X3057297Y860542D1*
X3061690Y861970D1*
X3066255Y862693D1*
X3151241Y862783D1*
X3218979Y862693D1*
X3223543Y861970D1*
X3227937Y860542D1*
X3232054Y858445D1*
X3235793Y855728D1*
X3295951Y795698D1*
X3302828Y788822D1*
X3309837Y788845D1*
X3309836Y868570D1*
X3441625D1*
X3444576Y875946D1*
X3448201Y881861D1*
X3452706Y887135D1*
X3457980Y891640D1*
X3463895Y895265D1*
X3470304Y897920D1*
X3477050Y899539D1*
X3483966Y900084D1*
X3490882Y899539D1*
X3497627Y897920D1*
X3504037Y895265D1*
X3509951Y891640D1*
X3515226Y887135D1*
X3519731Y881861D1*
X3523356Y875946D1*
X3526010Y869537D1*
X3527630Y862791D1*
X3528175Y855875D1*
X3527630Y848959D1*
X3526010Y842214D1*
X3523356Y835804D1*
X3519731Y829890D1*
X3515226Y824615D1*
X3509951Y820110D1*
X3504037Y816486D1*
X3497627Y813831D1*
X3490882Y812211D1*
X3483966Y811667D1*
X3477050Y812211D1*
X3470304Y813831D1*
X3463895Y816486D1*
X3457980Y820110D1*
X3453373Y823999D1*
X3453371Y714550D1*
X3457980Y718412D1*
X3463895Y722037D1*
X3470304Y724692D1*
X3477050Y726311D1*
X3483966Y726856D1*
X3490882Y726311D1*
X3497627Y724692D1*
X3504037Y722037D1*
X3509951Y718412D1*
X3515226Y713907D1*
X3519731Y708633D1*
X3523356Y702718D1*
X3526010Y696308D1*
X3527630Y689563D1*
X3528175Y682647D1*
X3527630Y675731D1*
X3526010Y668986D1*
X3523356Y662576D1*
X3519731Y656661D1*
X3515226Y651387D1*
X3509951Y646882D1*
X3504037Y643257D1*
X3497627Y640602D1*
X3490882Y638983D1*
X3483966Y638438D1*
X3477050Y638983D1*
X3470304Y640602D1*
X3463895Y643257D1*
X3457980Y646882D1*
X3452706Y651387D1*
X3448201Y656661D1*
X3444576Y662576D1*
X3441921Y668986D1*
X3441660Y669912D1*
X3359534Y669916D1*
X3346066Y656167D1*
X3344591Y650022D1*
X3342172Y644184D1*
X3338870Y638797D1*
X3334766Y633991D1*
X3329961Y629887D1*
X3324573Y626585D1*
X3318735Y624167D1*
X3312591Y622692D1*
X3306290Y622196D1*
X3299990Y622692D1*
X3293845Y624167D1*
X3288007Y626585D1*
X3282619Y629887D1*
X3277814Y633991D1*
X3273710Y638797D1*
X3270408Y644184D1*
X3267990Y650022D1*
X3266514Y656167D1*
X3266018Y662467D1*
X3266514Y668768D1*
X3267990Y674912D1*
X3270408Y680751D1*
X3273710Y686138D1*
X3277814Y690944D1*
X3282619Y695047D1*
X3288007Y698349D1*
X3293845Y700768D1*
X3300272Y702277D1*
X3309846Y711841D1*
X3309836Y718180D1*
X3283406Y718235D1*
X3278841Y718958D1*
X3274448Y720386D1*
X3270331Y722483D1*
X3266592Y725199D1*
X3226554Y765109D1*
X3226533Y710975D1*
X3205613D1*
X3197882Y703214D1*
X3197529Y698917D1*
X3196450Y694424D1*
X3194681Y690156D1*
X3192266Y686217D1*
X3189266Y682703D1*
X3175639Y669206D1*
X3171900Y666490D1*
X3167783Y664392D1*
X3163390Y662965D1*
X3158825Y662241D1*
X3097199Y662151D1*
X3058224Y623148D1*
X3067786Y623163D1*
X3073087Y629421D1*
X3079112Y634567D1*
X3085867Y638706D1*
X3093188Y641739D1*
X3100891Y643588D1*
X3108790Y644210D1*
X3116689Y643588D1*
X3124392Y641739D1*
X3131713Y638706D1*
X3138469Y634567D1*
X3144493Y629421D1*
X3149639Y623396D1*
X3153778Y616640D1*
X3156811Y609320D1*
X3158660Y601617D1*
X3159282Y593718D1*
X3158660Y585819D1*
X3156811Y578115D1*
X3154486Y572328D1*
X3154484Y502364D1*
X1544575Y511530D2*
X1622448D1*
Y467026D1*
X1646791Y491366D1*
X1639740Y494812D1*
X1634627Y498526D1*
X1630159Y502995D1*
X1626445Y508108D1*
X1623576Y513739D1*
X1621623Y519748D1*
X1620988Y522818D1*
X1544550D1*
X1544545Y511545D1*
X1181950Y498912D2*
Y453297D1*
X1217522Y489192D1*
X1211513Y491144D1*
X1205882Y494013D1*
X1200769Y497727D1*
X1199365Y498906D1*
X1181961D1*
X3405226Y1428895D2*
X3399210Y1427083D1*
X3389612Y1425562D1*
X3379895D1*
X3370297Y1427083D1*
X3361055Y1430085D1*
X3352398Y1434496D1*
X3344535Y1440209D1*
X3337665Y1447079D1*
X3334761Y1450764D1*
X3328541Y1443509D1*
X3321152Y1437198D1*
X3312866Y1432121D1*
X3303890Y1428402D1*
X3294441Y1426134D1*
X3284753Y1425371D1*
X3275066Y1426134D1*
X3265617Y1428402D1*
X3256640Y1432121D1*
X3248354Y1437198D1*
X3240966Y1443509D1*
X3234761Y1450764D1*
X3228541Y1443509D1*
X3221152Y1437198D1*
X3212866Y1432121D1*
X3203890Y1428402D1*
X3194441Y1426134D1*
X3184753Y1425371D1*
X3175066Y1426134D1*
X3165617Y1428402D1*
X3157761Y1431604D1*
X3067764Y1341677D1*
X3064017Y1338957D1*
X3088849Y1338727D1*
X3369140D1*
X3405218Y1374786D1*
X3405217Y1428866D1*
X1570874Y1426967D2*
X1565617Y1428402D1*
X1556640Y1432121D1*
X1548655Y1436997D1*
X1526064Y1414520D1*
X1522325Y1411803D1*
X1518209Y1409706D1*
X1513815Y1408278D1*
X1509251Y1407555D1*
X1435140Y1407465D1*
X1430534Y1407827D1*
X1426042Y1408906D1*
X1421773Y1410673D1*
X1417833Y1413088D1*
X1414320Y1416089D1*
X1402470Y1427938D1*
X1394441Y1426134D1*
X1384753Y1425371D1*
X1375066Y1426134D1*
X1365617Y1428402D1*
X1356640Y1432121D1*
X1348354Y1437198D1*
X1340966Y1443509D1*
X1334761Y1450764D1*
X1328541Y1443509D1*
X1321152Y1437198D1*
X1312866Y1432121D1*
X1303890Y1428402D1*
X1294441Y1426134D1*
X1284753Y1425371D1*
X1275066Y1426134D1*
X1265617Y1428402D1*
X1256640Y1432121D1*
X1248354Y1437198D1*
X1240966Y1443509D1*
X1234761Y1450764D1*
X1228541Y1443509D1*
X1221152Y1437198D1*
X1212866Y1432121D1*
X1203890Y1428402D1*
X1194441Y1426134D1*
X1184753Y1425371D1*
X1175066Y1426134D1*
X1165617Y1428402D1*
X1156640Y1432121D1*
X1148354Y1437198D1*
X1147982Y1437492D1*
X1123320Y1412984D1*
X1119581Y1410268D1*
X1115465Y1408171D1*
X1111071Y1406743D1*
X1106507Y1406020D1*
X1021520Y1405929D1*
X962324Y1406020D1*
X957760Y1406743D1*
X953366Y1408171D1*
X949249Y1410268D1*
X945510Y1412984D1*
X921152Y1437198D1*
X912866Y1432121D1*
X903890Y1428402D1*
X894441Y1426134D1*
X884753Y1425371D1*
X875066Y1426134D1*
X865617Y1428402D1*
X856640Y1432121D1*
X848354Y1437198D1*
X840966Y1443509D1*
X834761Y1450764D1*
X828541Y1443509D1*
X821152Y1437198D1*
X812866Y1432121D1*
X803890Y1428402D1*
X794441Y1426134D1*
X784753Y1425371D1*
X775066Y1426134D1*
X765617Y1428402D1*
X756640Y1432121D1*
X748354Y1437198D1*
X740966Y1443509D1*
X734761Y1450764D1*
X728541Y1443509D1*
X721152Y1437198D1*
X712866Y1432121D1*
X703890Y1428402D1*
X694441Y1426134D1*
X684753Y1425371D1*
X675066Y1426134D1*
X665617Y1428402D1*
X656640Y1432121D1*
X648354Y1437198D1*
X640966Y1443509D1*
X634761Y1450764D1*
X630411Y1445462D1*
X625136Y1440350D1*
X619294Y1435899D1*
X612966Y1432172D1*
X606240Y1429219D1*
X604759Y1428696D1*
X758344Y1275108D1*
X1660188Y1275297D1*
X1662539Y1276869D1*
X791385Y1276959D1*
X786820Y1277682D1*
X782427Y1279110D1*
X778310Y1281207D1*
X774571Y1283924D1*
X729916Y1328451D1*
X724990Y1328942D1*
X718845Y1330417D1*
X713007Y1332836D1*
X707619Y1336138D1*
X702814Y1340241D1*
X698710Y1345047D1*
X695408Y1350434D1*
X692990Y1356273D1*
X691514Y1362417D1*
X691018Y1368718D1*
X691514Y1375018D1*
X692990Y1381163D1*
X695408Y1387001D1*
X698710Y1392388D1*
X702814Y1397194D1*
X707619Y1401298D1*
X713007Y1404600D1*
X718845Y1407018D1*
X724990Y1408493D1*
X731290Y1408990D1*
X737591Y1408493D1*
X743735Y1407018D1*
X749573Y1404600D1*
X754961Y1401298D1*
X759766Y1397194D1*
X763870Y1392388D1*
X767172Y1387001D1*
X769591Y1381163D1*
X771066Y1375018D1*
X771598Y1370051D1*
X805878Y1335772D1*
X1566030Y1335759D1*
X1554235Y1347713D1*
X1551518Y1351451D1*
X1549421Y1355568D1*
X1547993Y1359962D1*
X1547270Y1364526D1*
Y1393556D1*
X1547993Y1398121D1*
X1549421Y1402514D1*
X1551518Y1406631D1*
X1554235Y1410370D1*
X1570672Y1426804D1*
X654990Y922287D2*
X660496Y926904D1*
X668054Y931535D1*
X676244Y934928D1*
X684864Y936997D1*
X693701Y937693D1*
X702538Y936997D1*
X706972Y936109D1*
X737058Y966071D1*
X740797Y968787D1*
X744913Y970885D1*
X749307Y972312D1*
X753871Y973035D1*
X838858Y973126D1*
X1247339Y973035D1*
X1251903Y972312D1*
X1256297Y970885D1*
X1260413Y968787D1*
X1264152Y966071D1*
X1324311Y906041D1*
X1388432Y841920D1*
X1393932Y848951D1*
Y858629D1*
X1505971D1*
Y841870D1*
X1581760Y841896D1*
X1581776Y1026299D1*
X1539386Y1026264D1*
X1535735Y1016461D1*
Y964967D1*
X1538870Y961139D1*
X1542172Y955752D1*
X1544591Y949913D1*
X1546066Y943769D1*
X1546562Y937469D1*
X1546066Y931168D1*
X1544591Y925024D1*
X1542172Y919185D1*
X1538870Y913798D1*
X1534766Y908992D1*
X1529961Y904888D1*
X1524573Y901587D1*
X1518735Y899168D1*
X1512591Y897693D1*
X1505982Y897209D1*
X1505971Y891274D1*
X1393932D1*
Y983629D1*
X1476860D1*
X1476845Y1016306D1*
X1393930Y1016273D1*
Y1108029D1*
X1058747Y1108024D1*
X1054961Y1104888D1*
X1049573Y1101587D1*
X1043735Y1099168D1*
X1037591Y1097693D1*
X1031290Y1097197D1*
X1024990Y1097693D1*
X1018845Y1099168D1*
X1013007Y1101587D1*
X1007619Y1104888D1*
X1002814Y1108992D1*
X998710Y1113798D1*
X995408Y1119185D1*
X992990Y1125024D1*
X991514Y1131168D1*
X991018Y1137469D1*
X991514Y1143769D1*
X992990Y1149913D1*
X995408Y1155752D1*
X998710Y1161139D1*
X1002814Y1165945D1*
X1007619Y1170049D1*
X1013007Y1173350D1*
X1018845Y1175769D1*
X1024990Y1177244D1*
X1031290Y1177740D1*
X1037591Y1177244D1*
X1043735Y1175769D1*
X1049573Y1173350D1*
X1054961Y1170049D1*
X1058849Y1166913D1*
X1668773D1*
X1659223Y1176579D1*
X1656235Y1180692D1*
X1653927Y1185222D1*
X1652356Y1190056D1*
X1651560Y1195077D1*
X1651461Y1210286D1*
X758369Y1210319D1*
X654988Y1106970D1*
X654990Y922346D1*
X843689Y754934D2*
X839404Y747996D1*
X833647Y741255D1*
X826906Y735497D1*
X819348Y730866D1*
X811157Y727474D1*
X802538Y725404D1*
X793701Y724709D1*
X788495Y724975D1*
X763262Y699898D1*
X759150Y696909D1*
X754619Y694601D1*
X749785Y693030D1*
X744764Y692235D1*
X732785Y692135D1*
X863665Y561273D1*
X877848Y561265D1*
X877846Y575045D1*
X1041067D1*
Y558286D1*
X1103408Y558312D1*
X1108127Y561894D1*
X1112244Y563991D1*
X1116638Y565419D1*
X1121202Y566142D1*
X1148378D1*
X1152942Y565419D1*
X1157336Y563991D1*
X1161453Y561894D1*
X1165198Y559172D1*
X1172878Y557795D1*
X1175497D1*
X1006888Y726269D1*
X998133Y724883D1*
X989269D1*
X980513Y726269D1*
X972083Y729009D1*
X964184Y733033D1*
X957012Y738244D1*
X950744Y744512D1*
X945533Y751684D1*
X943713Y754934D1*
X939404Y747996D1*
X933647Y741255D1*
X926906Y735497D1*
X919348Y730866D1*
X911157Y727474D1*
X902538Y725404D1*
X893701Y724709D1*
X884864Y725404D1*
X876244Y727474D1*
X868054Y730866D1*
X860496Y735497D1*
X853755Y741255D1*
X847997Y747996D1*
X843713Y754934D1*
X1150163Y779364D2*
X1149448Y772055D1*
X1147790Y764900D1*
X1145219Y758021D1*
X1141777Y751534D1*
X1137522Y745549D1*
X1132526Y740165D1*
X1126875Y735475D1*
X1120663Y731558D1*
X1113995Y728480D1*
X1106984Y726293D1*
X1099749Y725033D1*
X1091789Y724748D1*
X1247751Y568791D1*
X1248840Y568659D1*
X1366558Y686551D1*
X1196718D1*
X1192923Y683416D1*
X1187535Y680114D1*
X1181697Y677696D1*
X1175552Y676220D1*
X1169252Y675724D1*
X1162951Y676220D1*
X1156807Y677696D1*
X1150969Y680114D1*
X1145581Y683416D1*
X1140776Y687520D1*
X1136672Y692325D1*
X1133370Y697713D1*
X1130951Y703551D1*
X1129476Y709696D1*
X1128980Y715996D1*
X1129476Y722297D1*
X1130951Y728441D1*
X1133370Y734280D1*
X1136672Y739667D1*
X1140776Y744472D1*
X1145581Y748576D1*
X1150969Y751878D1*
X1156807Y754297D1*
X1162951Y755772D1*
X1169252Y756268D1*
X1175552Y755772D1*
X1181697Y754297D1*
X1187535Y751878D1*
X1192923Y748576D1*
X1196811Y745441D1*
X1259070D1*
X1208012Y796531D1*
X1148058Y796520D1*
X1149388Y790699D1*
X1150151Y783395D1*
X1150163Y779364D1*
X1543070Y615172D2*
X1552579D1*
X1552675Y637265D1*
X1553398Y641829D1*
X1554825Y646223D1*
X1556923Y650340D1*
X1559639Y654079D1*
X1572513Y667080D1*
X1576026Y670081D1*
X1579974Y672499D1*
X1581776Y674230D1*
Y679818D1*
X1573092Y679898D1*
X1568528Y680621D1*
X1564134Y682049D1*
X1560017Y684146D1*
X1558087Y685436D1*
X1550285Y686551D1*
X1505967D1*
X1505971Y641273D1*
X1404741D1*
X1379118Y615654D1*
X1486260Y615678D1*
Y615140D1*
X1543070Y615172D1*
X1630175Y609896D2*
Y555353D1*
X1631337Y556709D1*
X1631428Y591482D1*
X1632151Y596046D1*
X1633579Y600440D1*
X1635676Y604556D1*
X1638398Y608302D1*
X1632135Y609925D1*
X1630161D1*
X1408673Y523324D2*
X1335255D1*
X1236869Y424932D1*
X1439924Y424957D1*
X1415724Y449295D1*
X1413008Y453034D1*
X1410911Y457151D1*
X1409483Y461545D1*
X1408760Y466109D1*
X1408669Y523357D1*
X1872932Y637319D2*
X1937101D1*
X1937091Y854680D1*
X1933955Y858459D1*
X1930654Y863846D1*
X1928235Y869685D1*
X1926760Y875829D1*
X1926264Y882130D1*
X1926760Y888430D1*
X1928235Y894575D1*
X1930654Y900413D1*
X1933955Y905801D1*
X1938059Y910606D1*
X1942865Y914710D1*
X1948252Y918012D1*
X1954091Y920430D1*
X1960235Y921906D1*
X1966535Y922402D1*
X1968597Y922320D1*
X1968587Y936711D1*
X1914765Y990543D1*
X1765440Y990551D1*
X1761663Y987416D1*
X1756276Y984114D1*
X1750437Y981696D1*
X1744293Y980220D1*
X1742121Y979963D1*
X1742123Y784657D1*
X1747130Y787173D1*
X1753139Y789126D1*
X1759381Y790114D1*
X1765701D1*
X1771942Y789126D1*
X1777951Y787173D1*
X1783583Y784304D1*
X1788696Y780591D1*
X1793164Y776122D1*
X1796878Y771009D1*
X1799747Y765378D1*
X1801699Y759369D1*
X1802688Y753127D1*
Y746807D1*
X1801699Y740566D1*
X1799747Y734556D1*
X1796878Y728925D1*
X1793164Y723812D1*
X1791986Y722408D1*
X1791623Y714003D1*
X1790545Y709510D1*
X1788777Y705241D1*
X1786362Y701302D1*
X1783354Y697782D1*
X1768467Y682894D1*
X1781580Y682898D1*
X1785385Y686033D1*
X1790772Y689335D1*
X1796610Y691753D1*
X1802755Y693228D1*
X1808154Y693689D1*
X1807971Y829916D1*
X1804669Y835303D1*
X1802251Y841142D1*
X1800776Y847286D1*
X1800280Y853587D1*
X1800776Y859887D1*
X1802251Y866031D1*
X1804669Y871870D1*
X1807971Y877257D1*
X1812075Y882063D1*
X1816881Y886167D1*
X1822268Y889469D1*
X1828106Y891887D1*
X1834251Y893362D1*
X1840551Y893858D1*
X1846852Y893362D1*
X1852996Y891887D1*
X1858835Y889469D1*
X1864222Y886167D1*
X1869028Y882063D1*
X1873131Y877257D1*
X1876433Y871870D1*
X1878852Y866031D1*
X1880327Y859887D1*
X1880823Y853587D1*
X1880327Y847286D1*
X1878852Y841142D1*
X1876433Y835303D1*
X1872955Y829693D1*
X1872949Y637312D1*
X2195949Y841353D2*
Y868794D1*
X2167551Y868874D1*
X2162987Y869597D1*
X2158593Y871025D1*
X2154469Y873127D1*
X2153461Y866785D1*
Y816080D1*
X2156608Y822420D1*
X2160322Y827533D1*
X2164790Y832001D1*
X2169903Y835715D1*
X2175534Y838584D1*
X2181543Y840537D1*
X2187785Y841525D1*
X2194105D1*
X2195957Y841306D1*
X2195949Y927668D2*
X2195984Y997555D1*
X2194105Y999001D1*
X2187785D1*
X2181543Y999990D1*
X2175534Y1001942D1*
X2169903Y1004811D1*
X2164790Y1008525D1*
X2160322Y1012993D1*
X2156608Y1018106D1*
X2153739Y1023738D1*
X2151786Y1029747D1*
X2150798Y1035988D1*
Y1042308D1*
X2151786Y1048550D1*
X2152105Y1049678D1*
X2098274D1*
X2158217Y989633D1*
X2160933Y985894D1*
X2163030Y981777D1*
X2164458Y977383D1*
X2165181Y972819D1*
X2165272Y944493D1*
X2182047Y927684D1*
X2195949Y927673D1*
X2319799Y924900D2*
Y896167D1*
X2398001Y896177D1*
X2397720Y901181D1*
X2398217Y907482D1*
X2399692Y913626D1*
X2402110Y919465D1*
X2405412Y924852D1*
X2409516Y929657D1*
X2414322Y933761D1*
X2419709Y937063D1*
X2425547Y939482D1*
X2431196Y940858D1*
X2431185Y951343D1*
X2426146Y951848D1*
X2420001Y953323D1*
X2414163Y955741D1*
X2408776Y959043D1*
X2404887Y962178D1*
X2319806D1*
X2319764Y924886D1*
X2223343Y1216218D2*
Y1171076D1*
X2304970Y1171068D1*
X2308776Y1174203D1*
X2314163Y1177505D1*
X2320001Y1179924D1*
X2326146Y1181399D1*
X2332446Y1181895D1*
X2338747Y1181399D1*
X2344891Y1179924D1*
X2350730Y1177505D1*
X2356117Y1174203D1*
X2360923Y1170100D1*
X2365026Y1165294D1*
X2368328Y1159907D1*
X2370747Y1154068D1*
X2372222Y1147924D1*
X2372433Y1146144D1*
X2376400Y1143167D1*
X2380869Y1138698D1*
X2384583Y1133585D1*
X2387451Y1127954D1*
X2389404Y1121945D1*
X2390392Y1115703D1*
Y1109383D1*
X2389404Y1103142D1*
X2387451Y1097133D1*
X2384583Y1091501D1*
X2380869Y1086388D1*
X2378550Y1083908D1*
X2382701Y1080794D1*
X2387169Y1076325D1*
X2390883Y1071213D1*
X2393752Y1065581D1*
X2394896Y1062648D1*
X2401197Y1063144D1*
X2407497Y1062648D1*
X2413642Y1061173D1*
X2419480Y1058755D1*
X2424867Y1055453D1*
X2429673Y1051349D1*
X2431190Y1049707D1*
X2431185Y1170953D1*
X2385890Y1216226D1*
X2223367Y1216224D1*
X1874113Y1127642D2*
X1745483D1*
X1789196Y1083919D1*
X1892319Y1083894D1*
X1881154Y1095154D1*
X1878437Y1098892D1*
X1876340Y1103009D1*
X1874912Y1107403D1*
X1874189Y1111967D1*
X1874098Y1127661D1*
X2587685Y627307D2*
X2592993Y633576D1*
X2599018Y638722D1*
X2605774Y642861D1*
X2613094Y645894D1*
X2620798Y647743D1*
X2623890Y648109D1*
X2623425Y654123D1*
X2623921Y660424D1*
X2625396Y666568D1*
X2627815Y672407D1*
X2631117Y677794D1*
X2634252Y681682D1*
Y745521D1*
X2551570Y662983D1*
X2547831Y660266D1*
X2545806Y659134D1*
X2547808Y655014D1*
X2561992Y640702D1*
X2564709Y636963D1*
X2566806Y632846D1*
X2568235Y628444D1*
X2569786Y627318D1*
X2587693D1*
X3638797Y1898717D2*
X3637916Y1891278D1*
X3636455Y1883933D1*
X3634421Y1876723D1*
X3631829Y1869697D1*
X3628694Y1862895D1*
X3625034Y1856360D1*
X3620873Y1850133D1*
X3616236Y1844251D1*
X3611151Y1838751D1*
X3605651Y1833665D1*
X3599769Y1829029D1*
X3593542Y1824867D1*
X3587007Y1821207D1*
X3580205Y1818072D1*
X3573178Y1815480D1*
X3565969Y1813446D1*
X3558623Y1811986D1*
X3551185Y1811105D1*
X3543701Y1810811D1*
X3536217Y1811105D1*
X3528778Y1811986D1*
X3521433Y1813446D1*
X3514223Y1815480D1*
X3507197Y1818072D1*
X3500395Y1821207D1*
X3493860Y1824867D1*
X3487633Y1829029D1*
X3481751Y1833665D1*
X3476251Y1838751D1*
X3471165Y1844251D1*
X3466529Y1850133D1*
X3462367Y1856360D1*
X3458707Y1862895D1*
X3455572Y1869697D1*
X3452980Y1876723D1*
X3450946Y1883933D1*
X3449486Y1891278D1*
X3448605Y1898717D1*
X3448311Y1906201D1*
X3448605Y1913685D1*
X3449486Y1921123D1*
X3450946Y1928469D1*
X3452980Y1935678D1*
X3455572Y1942705D1*
X3458707Y1949507D1*
X3462367Y1956042D1*
X3466529Y1962269D1*
X3471165Y1968151D1*
X3476251Y1973651D1*
X3481751Y1978736D1*
X3487633Y1983373D1*
X3493860Y1987534D1*
X3500395Y1991194D1*
X3507197Y1994329D1*
X3514223Y1996921D1*
X3521433Y1998955D1*
X3528778Y2000416D1*
X3536217Y2001297D1*
X3543701Y2001591D1*
X3551185Y2001297D1*
X3558623Y2000416D1*
X3565969Y1998955D1*
X3573178Y1996921D1*
X3580205Y1994329D1*
X3587007Y1991194D1*
X3593542Y1987534D1*
X3599769Y1983373D1*
X3605651Y1978736D1*
X3611151Y1973651D1*
X3616236Y1968151D1*
X3620873Y1962269D1*
X3625034Y1956042D1*
X3628694Y1949507D1*
X3631829Y1942705D1*
X3634421Y1935678D1*
X3636455Y1928469D1*
X3637916Y1921123D1*
X3638797Y1913685D1*
X3639091Y1906201D1*
X3638797Y1898717D1*
Y1236217D2*
X3637916Y1228778D1*
X3636455Y1221433D1*
X3634421Y1214223D1*
X3631829Y1207197D1*
X3628694Y1200395D1*
X3625034Y1193860D1*
X3620873Y1187633D1*
X3616236Y1181751D1*
X3611151Y1176251D1*
X3605651Y1171165D1*
X3599769Y1166529D1*
X3593542Y1162367D1*
X3587007Y1158707D1*
X3580205Y1155572D1*
X3573178Y1152980D1*
X3565969Y1150946D1*
X3558623Y1149486D1*
X3551185Y1148605D1*
X3543701Y1148311D1*
X3536217Y1148605D1*
X3528778Y1149486D1*
X3521433Y1150946D1*
X3514223Y1152980D1*
X3507197Y1155572D1*
X3500395Y1158707D1*
X3493860Y1162367D1*
X3487633Y1166529D1*
X3481751Y1171165D1*
X3476251Y1176251D1*
X3471165Y1181751D1*
X3466529Y1187633D1*
X3462367Y1193860D1*
X3458707Y1200395D1*
X3455572Y1207197D1*
X3452980Y1214223D1*
X3450946Y1221433D1*
X3449486Y1228778D1*
X3448605Y1236217D1*
X3448311Y1243701D1*
X3448605Y1251185D1*
X3449486Y1258623D1*
X3450946Y1265969D1*
X3452980Y1273178D1*
X3455572Y1280205D1*
X3458707Y1287007D1*
X3462367Y1293542D1*
X3466529Y1299769D1*
X3471165Y1305651D1*
X3476251Y1311151D1*
X3481751Y1316236D1*
X3487633Y1320873D1*
X3493860Y1325034D1*
X3500395Y1328694D1*
X3507197Y1331829D1*
X3514223Y1334421D1*
X3521433Y1336455D1*
X3528778Y1337916D1*
X3536217Y1338797D1*
X3543701Y1339091D1*
X3551185Y1338797D1*
X3558623Y1337916D1*
X3565969Y1336455D1*
X3573178Y1334421D1*
X3580205Y1331829D1*
X3587007Y1328694D1*
X3593542Y1325034D1*
X3599769Y1320873D1*
X3605651Y1316236D1*
X3611151Y1311151D1*
X3616236Y1305651D1*
X3620873Y1299769D1*
X3625034Y1293542D1*
X3628694Y1287007D1*
X3631829Y1280205D1*
X3634421Y1273178D1*
X3636455Y1265969D1*
X3637916Y1258623D1*
X3638797Y1251185D1*
X3639091Y1243701D1*
X3638797Y1236217D1*
X638797Y1898717D2*
X637916Y1891278D1*
X636455Y1883933D1*
X634421Y1876723D1*
X631829Y1869697D1*
X628694Y1862895D1*
X625034Y1856360D1*
X620873Y1850133D1*
X616236Y1844251D1*
X611151Y1838751D1*
X605651Y1833665D1*
X599769Y1829029D1*
X593542Y1824867D1*
X587007Y1821207D1*
X580205Y1818072D1*
X573178Y1815480D1*
X565969Y1813446D1*
X558623Y1811986D1*
X551185Y1811105D1*
X543701Y1810811D1*
X536217Y1811105D1*
X528778Y1811986D1*
X521433Y1813446D1*
X514223Y1815480D1*
X507197Y1818072D1*
X500395Y1821207D1*
X493860Y1824867D1*
X487633Y1829029D1*
X481751Y1833665D1*
X476251Y1838751D1*
X471165Y1844251D1*
X466529Y1850133D1*
X462367Y1856360D1*
X458707Y1862895D1*
X455572Y1869697D1*
X452980Y1876723D1*
X450946Y1883933D1*
X449486Y1891278D1*
X448605Y1898717D1*
X448311Y1906201D1*
X448605Y1913685D1*
X449486Y1921123D1*
X450946Y1928469D1*
X452980Y1935678D1*
X455572Y1942705D1*
X458707Y1949507D1*
X462367Y1956042D1*
X466529Y1962269D1*
X471165Y1968151D1*
X476251Y1973651D1*
X481751Y1978736D1*
X487633Y1983373D1*
X493860Y1987534D1*
X500395Y1991194D1*
X507197Y1994329D1*
X514223Y1996921D1*
X521433Y1998955D1*
X528778Y2000416D1*
X536217Y2001297D1*
X543701Y2001591D1*
X551185Y2001297D1*
X558623Y2000416D1*
X565969Y1998955D1*
X573178Y1996921D1*
X580205Y1994329D1*
X587007Y1991194D1*
X593542Y1987534D1*
X599769Y1983373D1*
X605651Y1978736D1*
X611151Y1973651D1*
X616236Y1968151D1*
X620873Y1962269D1*
X625034Y1956042D1*
X628694Y1949507D1*
X631829Y1942705D1*
X634421Y1935678D1*
X636455Y1928469D1*
X637916Y1921123D1*
X638797Y1913685D1*
X639091Y1906201D1*
X638797Y1898717D1*
Y1236217D2*
X637916Y1228778D1*
X636455Y1221433D1*
X634421Y1214223D1*
X631829Y1207197D1*
X628694Y1200395D1*
X625034Y1193860D1*
X620873Y1187633D1*
X616236Y1181751D1*
X611151Y1176251D1*
X605651Y1171165D1*
X599769Y1166529D1*
X593542Y1162367D1*
X587007Y1158707D1*
X580205Y1155572D1*
X573178Y1152980D1*
X565969Y1150946D1*
X558623Y1149486D1*
X551185Y1148605D1*
X543701Y1148311D1*
X536217Y1148605D1*
X528778Y1149486D1*
X521433Y1150946D1*
X514223Y1152980D1*
X507197Y1155572D1*
X500395Y1158707D1*
X493860Y1162367D1*
X487633Y1166529D1*
X481751Y1171165D1*
X476251Y1176251D1*
X471165Y1181751D1*
X466529Y1187633D1*
X462367Y1193860D1*
X458707Y1200395D1*
X455572Y1207197D1*
X452980Y1214223D1*
X450946Y1221433D1*
X449486Y1228778D1*
X448605Y1236217D1*
X448311Y1243701D1*
X448605Y1251185D1*
X449486Y1258623D1*
X450946Y1265969D1*
X452980Y1273178D1*
X455572Y1280205D1*
X458707Y1287007D1*
X462367Y1293542D1*
X466529Y1299769D1*
X471165Y1305651D1*
X476251Y1311151D1*
X481751Y1316236D1*
X487633Y1320873D1*
X493860Y1325034D1*
X500395Y1328694D1*
X507197Y1331829D1*
X514223Y1334421D1*
X521433Y1336455D1*
X528778Y1337916D1*
X536217Y1338797D1*
X543701Y1339091D1*
X551185Y1338797D1*
X558623Y1337916D1*
X565969Y1336455D1*
X573178Y1334421D1*
X580205Y1331829D1*
X587007Y1328694D1*
X593542Y1325034D1*
X599769Y1320873D1*
X605651Y1316236D1*
X611151Y1311151D1*
X616236Y1305651D1*
X620873Y1299769D1*
X625034Y1293542D1*
X628694Y1287007D1*
X631829Y1280205D1*
X634421Y1273178D1*
X636455Y1265969D1*
X637916Y1258623D1*
X638797Y1251185D1*
X639091Y1243701D1*
X638797Y1236217D1*
X1705177Y1276869D2*
X1707752Y1275121D1*
X1766316Y1275014D1*
X1771337Y1274219D1*
X1776172Y1272648D1*
X1778491Y1271579D1*
X1779610Y1272244D1*
Y1276802D1*
X1705232Y1276869D1*
X2058971Y1272814D2*
X2061896Y1276745D1*
X2066365Y1281214D1*
X2071478Y1284928D1*
X2077109Y1287797D1*
X2083118Y1289749D1*
X2089360Y1290738D1*
X2095680D1*
X2101921Y1289749D1*
X2106877Y1288186D1*
X2113189Y1292190D1*
X2119028Y1294609D1*
X2126068Y1296190D1*
X2126067Y1319862D1*
X2121831Y1317358D1*
X2115992Y1314940D1*
X2109848Y1313465D1*
X2103547Y1312969D1*
X2097247Y1313465D1*
X2091102Y1314940D1*
X2085264Y1317358D1*
X2079877Y1320660D1*
X2074890Y1324894D1*
X2042845D1*
X2051917Y1315694D1*
X2054634Y1311955D1*
X2056731Y1307839D1*
X2058159Y1303445D1*
X2058882Y1298881D1*
X2058972Y1272852D1*
X2558723Y1108028D2*
X2554961Y1104888D1*
X2549573Y1101587D1*
X2543735Y1099168D1*
X2537591Y1097693D1*
X2531290Y1097197D1*
X2525517Y1097630D1*
X2525508Y950236D1*
X2532392Y948675D1*
X2538231Y946256D1*
X2543618Y942954D1*
X2548424Y938850D1*
X2552528Y934045D1*
X2555829Y928657D1*
X2558248Y922819D1*
X2559723Y916675D1*
X2560219Y910374D1*
X2559723Y904073D1*
X2558248Y897929D1*
X2555829Y892091D1*
X2552528Y886703D1*
X2549392Y882815D1*
X2549301Y826804D1*
X2550709Y826526D1*
X2577986Y853803D1*
X2578001Y1045408D1*
X2574866Y1049202D1*
X2571564Y1054589D1*
X2569146Y1060428D1*
X2567671Y1066572D1*
X2567175Y1072873D1*
X2567671Y1079173D1*
X2569146Y1085318D1*
X2571564Y1091156D1*
X2574866Y1096543D1*
X2578970Y1101349D1*
X2583776Y1105453D1*
X2587860Y1108025D1*
X2558762Y1108024D1*
X2027466Y857723D2*
X2032688Y857680D1*
X2038929Y856692D1*
X2044938Y854739D1*
X2050570Y851870D1*
X2055682Y848156D1*
X2060151Y843688D1*
X2063865Y838575D1*
X2066734Y832944D1*
X2068686Y826934D1*
X2069675Y820693D1*
X2069782Y817101D1*
X2076434Y815005D1*
X2082066Y812136D1*
X2087178Y808423D1*
X2091647Y803954D1*
X2094572Y800022D1*
X2094571Y928100D1*
X2031108Y991542D1*
X2026180Y992035D1*
X2020035Y993510D1*
X2014197Y995929D1*
X2008810Y999231D1*
X2004004Y1003335D1*
X1999900Y1008140D1*
X1996598Y1013528D1*
X1994180Y1019366D1*
X1992803Y1025014D1*
X1963576Y1025004D1*
X2020421Y968042D1*
X2023138Y964303D1*
X2025235Y960186D1*
X2026663Y955793D1*
X2027386Y951228D1*
X2027476Y866241D1*
Y857738D1*
X1669420Y1346455D2*
X1658711Y1335748D1*
X1794059Y1335668D1*
X1798623Y1334945D1*
X1803017Y1333517D1*
X1807134Y1331420D1*
X1810873Y1328703D1*
X1829791Y1309913D1*
X1829807Y1346356D1*
X1669420Y1346433D1*
X2531873Y1334622D2*
X2184944D1*
X2184957Y1271665D1*
X2189720Y1273673D1*
X2194213Y1274752D1*
X2198828Y1275114D1*
X2400398Y1275024D1*
X2404962Y1274301D1*
X2409356Y1272873D1*
X2413472Y1270776D1*
X2417211Y1268059D1*
X2443801Y1241598D1*
X2445238Y1246136D1*
X2447335Y1250253D1*
X2450051Y1253992D1*
X2510081Y1314151D1*
X2527731Y1331672D1*
X2531478Y1334392D1*
X1781622Y682894D2*
X1785385Y686033D1*
X1790772Y689335D1*
X1796610Y691753D1*
X1802755Y693228D1*
X1808154Y693689D1*
X1851249Y458311D2*
D17*
X1899360D1*
X2762541Y826789D2*
X2808682D1*
X3256201Y1068701D2*
Y1010748D1*
X3198248Y1068701D2*
X3314154D1*
X1135773Y458252D2*
X1181915D1*
X584753Y1487297D2*
X628516Y1443534D1*
X3381604Y868533D2*
Y832235D1*
X1093701Y781201D2*
Y724744D1*
Y781201D2*
X1150157D1*
D18*
X2906290Y1037469D3*
X2839361D3*
X1784320Y458311D3*
X1851249D3*
D19*
X2762541Y893718D3*
Y826789D3*
D20*
X3256201Y1168701D3*
D21*
Y1068701D3*
D18*
X2588697Y454123D3*
X2655626D3*
X2906290Y456218D3*
X2973219D3*
X3125039D3*
X3058110D3*
X3042282Y1037564D3*
X3109211D3*
X2476197Y454123D3*
X2409268D3*
D22*
X1513278Y456495D3*
X1576270D3*
X1072781Y458252D3*
X1135773D3*
D23*
X3484753Y1687297D3*
Y1487297D3*
X3384753Y1687297D3*
Y1487297D3*
X2984753Y1687297D3*
Y1487297D3*
X2884753Y1687297D3*
Y1487297D3*
X2784753Y1687297D3*
Y1487297D3*
X2484753D3*
Y1687297D3*
X2384753D3*
Y1487297D3*
X1984753D3*
X1884753D3*
X1784753D3*
X1684753D3*
X1584753D3*
X584753D3*
X684753D3*
X784753D3*
X884753D3*
X984753D3*
X1084753D3*
X1184753D3*
X1284753D3*
X1384753D3*
X1484753D3*
X1984753Y1687297D3*
X1884753D3*
X1784753D3*
X1684753D3*
X1584753D3*
X1484753D3*
X1384753D3*
X1284753D3*
X1184753D3*
X1084753D3*
X984753D3*
X884753D3*
X784753D3*
X684753D3*
X584753D3*
X2084753Y1487297D3*
Y1687297D3*
X2184753D3*
Y1487297D3*
X2284753Y1687297D3*
Y1487297D3*
X2584753D3*
Y1687297D3*
X2684753D3*
Y1487297D3*
X3084753D3*
Y1687297D3*
X3184753Y1487297D3*
Y1687297D3*
X3284753Y1487297D3*
Y1687297D3*
D25*
X3381604Y706251D3*
Y737747D3*
Y769243D3*
Y800739D3*
Y832235D3*
D26*
X3385541Y594046D3*
Y944440D3*
X3602076Y594046D3*
Y944440D3*
D27*
X693701Y781201D3*
Y881201D3*
X793701D3*
Y781201D3*
X893701Y881201D3*
Y781201D3*
X993701Y881201D3*
Y781201D3*
X1093701D3*
D28*
Y881201D3*
D29*
X1449951Y687450D3*
X1449950Y1062450D3*
X1449951Y937451D3*
Y812451D3*
D18*
X1582029Y568995D3*
X1515100D3*
X1438114Y569501D3*
X1371185D3*
X992921Y528867D3*
X925992D3*
D31*
X1643701Y1118701D3*
Y1087205D3*
Y1055709D3*
Y1024213D3*
Y992717D3*
Y961220D3*
Y929724D3*
Y898228D3*
Y866732D3*
Y835236D3*
Y803740D3*
Y772244D3*
Y740748D3*
Y709252D3*
Y677756D3*
Y646260D3*
D32*
X1714567Y575394D3*
X1746063D3*
X1777559D3*
X1809055D3*
X1840551D3*
X1872047D3*
X1903543D3*
X1935039D3*
X1966535D3*
X1998031D3*
X2029528D3*
X2061024D3*
X2092520D3*
X2124016D3*
X2155512D3*
X2187008D3*
D31*
X2257874Y646260D3*
Y677756D3*
Y709252D3*
Y740748D3*
Y772244D3*
Y803740D3*
Y835236D3*
Y866732D3*
Y898228D3*
Y929724D3*
Y961220D3*
Y992717D3*
Y1024213D3*
Y1055709D3*
Y1087205D3*
Y1118701D3*
D32*
X2187008Y1189567D3*
X2155512D3*
X2124016D3*
X2092520D3*
X2061024D3*
X2029528D3*
X1998031D3*
X1966535D3*
X1935039D3*
X1903543D3*
X1872047D3*
X1840551D3*
X1809055D3*
X1777559D3*
X1746063D3*
X1714567D3*
D34*
X2837541Y762467D3*
X2887541D3*
X2937541D3*
X2987541D3*
X3037541D3*
X3087541D3*
X3137541D3*
X3187541D3*
Y962467D3*
X3137541D3*
X3087541D3*
X3037541D3*
X2987541D3*
X2937541D3*
X2887541D3*
X2837541D3*
D35*
X2918790Y593718D3*
X3108790D3*
X2628697Y597873D3*
X2438697D3*
M02*
