G04 DipTrace 3.3.1.3*
G04 TopMask.gbr*
%MOIN*%
G04 #@! TF.FileFunction,Soldermask,Top*
G04 #@! TF.Part,Single*
%ADD37C,0.137795*%
%ADD38C,0.035433*%
%ADD43C,0.055874*%
%ADD45R,0.032874X0.057874*%
%ADD47R,0.027559X0.07874*%
%ADD49R,0.07874X0.027559*%
%ADD51R,0.066929X0.047244*%
%ADD53R,0.067874X0.067874*%
%ADD55C,0.067874*%
%ADD57R,0.106299X0.086614*%
%ADD59R,0.098425X0.027559*%
%ADD61C,0.07874*%
%ADD63R,0.047244X0.064961*%
%ADD65C,0.070866*%
%ADD67R,0.070866X0.070866*%
%ADD69R,0.047244X0.051181*%
%ADD71R,0.051181X0.047244*%
%FSLAX26Y26*%
G04*
G70*
G90*
G75*
G01*
G04 TopMask*
%LPD*%
D71*
X2906290Y1037469D3*
X2839361D3*
X1784320Y458311D3*
X1851249D3*
D69*
X2762541Y893718D3*
Y826789D3*
D67*
X3256201Y1168701D3*
D65*
Y1068701D3*
D71*
X2588697Y454123D3*
X2655626D3*
X2906290Y456218D3*
X2973219D3*
X3125039D3*
X3058110D3*
X3042282Y1037564D3*
X3109211D3*
X2476197Y454123D3*
X2409268D3*
D63*
X1513278Y456495D3*
X1576270D3*
X1072781Y458252D3*
X1135773D3*
D37*
X3543701Y1906201D3*
Y1243701D3*
X543701Y1906201D3*
Y1243701D3*
D61*
X3484753Y1687297D3*
Y1487297D3*
X3384753Y1687297D3*
Y1487297D3*
X2984753Y1687297D3*
Y1487297D3*
X2884753Y1687297D3*
Y1487297D3*
X2784753Y1687297D3*
Y1487297D3*
X2484753D3*
Y1687297D3*
X2384753D3*
Y1487297D3*
X1984753D3*
X1884753D3*
X1784753D3*
X1684753D3*
X1584753D3*
X584753D3*
X684753D3*
X784753D3*
X884753D3*
X984753D3*
X1084753D3*
X1184753D3*
X1284753D3*
X1384753D3*
X1484753D3*
X1984753Y1687297D3*
X1884753D3*
X1784753D3*
X1684753D3*
X1584753D3*
X1484753D3*
X1384753D3*
X1284753D3*
X1184753D3*
X1084753D3*
X984753D3*
X884753D3*
X784753D3*
X684753D3*
X584753D3*
X2084753Y1487297D3*
Y1687297D3*
X2184753D3*
Y1487297D3*
X2284753Y1687297D3*
Y1487297D3*
X2584753D3*
Y1687297D3*
X2684753D3*
Y1487297D3*
X3084753D3*
Y1687297D3*
X3184753Y1487297D3*
Y1687297D3*
X3284753Y1487297D3*
Y1687297D3*
D59*
X3381604Y706251D3*
Y737747D3*
Y769243D3*
Y800739D3*
Y832235D3*
D57*
X3385541Y594046D3*
Y944440D3*
X3602076Y594046D3*
Y944440D3*
D38*
X3483966Y682647D3*
Y855875D3*
D55*
X693701Y781201D3*
Y881201D3*
X793701D3*
Y781201D3*
X893701Y881201D3*
Y781201D3*
X993701Y881201D3*
Y781201D3*
X1093701D3*
D53*
Y881201D3*
D51*
X1449951Y687450D3*
X1449950Y1062450D3*
X1449951Y937451D3*
Y812451D3*
D71*
X1582029Y568995D3*
X1515100D3*
X1438114Y569501D3*
X1371185D3*
X992921Y528867D3*
X925992D3*
D49*
X1643701Y1118701D3*
Y1087205D3*
Y1055709D3*
Y1024213D3*
Y992717D3*
Y961220D3*
Y929724D3*
Y898228D3*
Y866732D3*
Y835236D3*
Y803740D3*
Y772244D3*
Y740748D3*
Y709252D3*
Y677756D3*
Y646260D3*
D47*
X1714567Y575394D3*
X1746063D3*
X1777559D3*
X1809055D3*
X1840551D3*
X1872047D3*
X1903543D3*
X1935039D3*
X1966535D3*
X1998031D3*
X2029528D3*
X2061024D3*
X2092520D3*
X2124016D3*
X2155512D3*
X2187008D3*
D49*
X2257874Y646260D3*
Y677756D3*
Y709252D3*
Y740748D3*
Y772244D3*
Y803740D3*
Y835236D3*
Y866732D3*
Y898228D3*
Y929724D3*
Y961220D3*
Y992717D3*
Y1024213D3*
Y1055709D3*
Y1087205D3*
Y1118701D3*
D47*
X2187008Y1189567D3*
X2155512D3*
X2124016D3*
X2092520D3*
X2061024D3*
X2029528D3*
X1998031D3*
X1966535D3*
X1935039D3*
X1903543D3*
X1872047D3*
X1840551D3*
X1809055D3*
X1777559D3*
X1746063D3*
X1714567D3*
D45*
X2837541Y762467D3*
X2887541D3*
X2937541D3*
X2987541D3*
X3037541D3*
X3087541D3*
X3137541D3*
X3187541D3*
Y962467D3*
X3137541D3*
X3087541D3*
X3037541D3*
X2987541D3*
X2937541D3*
X2887541D3*
X2837541D3*
D43*
X2918790Y593718D3*
X3108790D3*
X2628697Y597873D3*
X2438697D3*
M02*
