G04 DipTrace 3.3.1.3*
G04 TopPaste.gbr*
%MOIN*%
G04 #@! TF.FileFunction,Paste,Top*
G04 #@! TF.Part,Single*
%ADD46R,0.017126X0.042126*%
%ADD48R,0.011811X0.062992*%
%ADD50R,0.062992X0.011811*%
%ADD52R,0.051181X0.031496*%
%ADD58R,0.090551X0.070866*%
%ADD60R,0.082677X0.011811*%
%ADD64R,0.031496X0.049213*%
%ADD70R,0.031496X0.035433*%
%ADD72R,0.035433X0.031496*%
%FSLAX26Y26*%
G04*
G70*
G90*
G75*
G01*
G04 TopPaste*
%LPD*%
D72*
X2906290Y1037469D3*
X2839361D3*
X1784320Y458311D3*
X1851249D3*
D70*
X2762541Y893718D3*
Y826789D3*
D72*
X2588697Y454123D3*
X2655626D3*
X2906290Y456218D3*
X2973219D3*
X3125039D3*
X3058110D3*
X3042282Y1037564D3*
X3109211D3*
X2476197Y454123D3*
X2409268D3*
D64*
X1513278Y456495D3*
X1576270D3*
X1072781Y458252D3*
X1135773D3*
D60*
X3381604Y706251D3*
Y737747D3*
Y769243D3*
Y800739D3*
Y832235D3*
D58*
X3385541Y594046D3*
Y944440D3*
X3602076Y594046D3*
Y944440D3*
D52*
X1449951Y687450D3*
X1449950Y1062450D3*
X1449951Y937451D3*
Y812451D3*
D72*
X1582029Y568995D3*
X1515100D3*
X1438114Y569501D3*
X1371185D3*
X992921Y528867D3*
X925992D3*
D50*
X1643701Y1118701D3*
Y1087205D3*
Y1055709D3*
Y1024213D3*
Y992717D3*
Y961220D3*
Y929724D3*
Y898228D3*
Y866732D3*
Y835236D3*
Y803740D3*
Y772244D3*
Y740748D3*
Y709252D3*
Y677756D3*
Y646260D3*
D48*
X1714567Y575394D3*
X1746063D3*
X1777559D3*
X1809055D3*
X1840551D3*
X1872047D3*
X1903543D3*
X1935039D3*
X1966535D3*
X1998031D3*
X2029528D3*
X2061024D3*
X2092520D3*
X2124016D3*
X2155512D3*
X2187008D3*
D50*
X2257874Y646260D3*
Y677756D3*
Y709252D3*
Y740748D3*
Y772244D3*
Y803740D3*
Y835236D3*
Y866732D3*
Y898228D3*
Y929724D3*
Y961220D3*
Y992717D3*
Y1024213D3*
Y1055709D3*
Y1087205D3*
Y1118701D3*
D48*
X2187008Y1189567D3*
X2155512D3*
X2124016D3*
X2092520D3*
X2061024D3*
X2029528D3*
X1998031D3*
X1966535D3*
X1935039D3*
X1903543D3*
X1872047D3*
X1840551D3*
X1809055D3*
X1777559D3*
X1746063D3*
X1714567D3*
D46*
X2837541Y762467D3*
X2887541D3*
X2937541D3*
X2987541D3*
X3037541D3*
X3087541D3*
X3137541D3*
X3187541D3*
Y962467D3*
X3137541D3*
X3087541D3*
X3037541D3*
X2987541D3*
X2937541D3*
X2887541D3*
X2837541D3*
M02*
