G04 DipTrace 3.3.1.3*
G04 TopSilk.gbr*
%MOIN*%
G04 #@! TF.FileFunction,Legend,Top*
G04 #@! TF.Part,Single*
%ADD10C,0.009843*%
%ADD24C,0.019677*%
%ADD30C,0.015345*%
%ADD33C,0.005*%
%ADD41C,0.007874*%
%ADD73C,0.00772*%
%ADD74C,0.012351*%
%FSLAX26Y26*%
G04*
G70*
G90*
G75*
G01*
G04 TopSilk*
%LPD*%
X3244381Y1248582D2*
D10*
X3268021D1*
X3256201Y1260401D2*
Y1236787D1*
X3156201Y1118671D2*
G02X3156201Y1118671I100000J0D01*
G01*
X1612885Y432872D2*
Y480117D1*
X1172387Y434630D2*
Y481874D1*
X3684819Y1779275D2*
X3684491Y1401549D1*
X3584825Y1637323D2*
Y1537291D1*
X406315Y1772251D2*
Y1402289D1*
X484999Y1637249D2*
Y1537365D1*
X3680557Y1399405D2*
X409921Y1399775D1*
X3684819Y1774986D2*
X409921Y1774765D1*
X3584825Y1537291D2*
X484999Y1537365D1*
X3584825Y1637323D2*
X484999Y1637249D1*
X3718218Y615699D2*
Y922787D1*
Y615699D2*
X3669025D1*
X3535915D2*
X3451667D1*
X3348155Y651145D2*
Y678696D1*
Y859790D2*
Y887340D1*
X3451667Y922787D2*
X3535915D1*
X3669025D2*
X3718218D1*
D24*
X3314671Y706246D3*
X1268901Y881251D2*
D10*
X1293701D1*
X1268901Y781151D2*
Y881251D1*
Y781151D2*
X1293701D1*
X493701Y881251D2*
X518501D1*
Y781151D2*
Y881251D1*
X493701Y781151D2*
X518501D1*
X1293701Y656201D2*
Y1006201D1*
X493701Y656201D2*
Y1006201D1*
Y656201D2*
X1293701D1*
X973701Y976101D2*
Y1006201D1*
X813701Y976101D2*
X973701D1*
X813701D2*
Y1006201D1*
X973701D2*
X1293701D1*
X493701D2*
X813701D1*
X1694857Y1138411D2*
X2206718D1*
Y626550D1*
X1694857D1*
Y1138411D1*
D30*
X1642999Y1149817D3*
G36*
X1694857Y1138411D2*
Y1099021D1*
X1734246Y1138411D1*
X1694857D1*
G37*
X2812541Y792467D2*
D33*
Y932467D1*
X3212541D1*
Y792467D1*
X2812541D1*
X2825061Y824967D2*
G02X2825061Y824967I12480J0D01*
G01*
X2874126Y500844D2*
D10*
X3153454D1*
X2874126Y686592D2*
X3153454D1*
X2874126D2*
G03X2874126Y500844I8216J-92874D01*
G01*
X3153454D2*
G03X3153454Y686592I-8216J92874D01*
G01*
X2673361Y690747D2*
X2394033D1*
X2673361Y504999D2*
X2394033D1*
X2673361D2*
G03X2673361Y690747I-8216J92874D01*
G01*
X2394033D2*
G03X2394033Y504999I8216J-92874D01*
G01*
X2877044Y1118438D2*
D73*
X2874667Y1123192D1*
X2869859Y1128000D1*
X2865106Y1130377D1*
X2855544D1*
X2850736Y1128000D1*
X2845983Y1123192D1*
X2843551Y1118438D1*
X2841174Y1111253D1*
Y1099260D1*
X2843551Y1092130D1*
X2845983Y1087322D1*
X2850736Y1082568D1*
X2855544Y1080137D1*
X2865106D1*
X2869859Y1082568D1*
X2874667Y1087322D1*
X2877044Y1092130D1*
X2892483Y1120760D2*
X2897292Y1123192D1*
X2904477Y1130321D1*
Y1080137D1*
X1947225Y477432D2*
X1944848Y482185D1*
X1940040Y486993D1*
X1935286Y489370D1*
X1925725D1*
X1920916Y486993D1*
X1916163Y482185D1*
X1913731Y477432D1*
X1911355Y470247D1*
Y458253D1*
X1913731Y451124D1*
X1916163Y446315D1*
X1920916Y441562D1*
X1925725Y439130D1*
X1935286D1*
X1940040Y441562D1*
X1944848Y446315D1*
X1947225Y451124D1*
X1965096Y477377D2*
Y479753D1*
X1967472Y484562D1*
X1969849Y486938D1*
X1974657Y489315D1*
X1984219D1*
X1988972Y486938D1*
X1991349Y484562D1*
X1993781Y479753D1*
Y475000D1*
X1991349Y470192D1*
X1986596Y463062D1*
X1962664Y439130D1*
X1996157D1*
X2681571Y853722D2*
X2676818Y851345D1*
X2672009Y846537D1*
X2669633Y841784D1*
Y832222D1*
X2672009Y827414D1*
X2676818Y822661D1*
X2681571Y820229D1*
X2688756Y817852D1*
X2700749D1*
X2707879Y820229D1*
X2712688Y822661D1*
X2717441Y827414D1*
X2719873Y832222D1*
Y841784D1*
X2717441Y846537D1*
X2712688Y851345D1*
X2707879Y853722D1*
X2669688Y873970D2*
Y900223D1*
X2688811Y885908D1*
Y893093D1*
X2691188Y897846D1*
X2693564Y900223D1*
X2700749Y902655D1*
X2705503D1*
X2712688Y900223D1*
X2717496Y895470D1*
X2719873Y888284D1*
Y881099D1*
X2717496Y873970D1*
X2715064Y871593D1*
X2710311Y869161D1*
X3248481Y1321686D2*
X3246105Y1326439D1*
X3241296Y1331247D1*
X3236543Y1333624D1*
X3226981D1*
X3222173Y1331247D1*
X3217420Y1326439D1*
X3214988Y1321686D1*
X3212611Y1314501D1*
Y1302507D1*
X3214988Y1295377D1*
X3217420Y1290569D1*
X3222173Y1285816D1*
X3226981Y1283384D1*
X3236543D1*
X3241296Y1285816D1*
X3246105Y1290569D1*
X3248481Y1295377D1*
X3287852Y1283384D2*
Y1333569D1*
X3263920Y1300131D1*
X3299790D1*
X2730620Y468256D2*
X2728243Y473009D1*
X2723435Y477818D1*
X2718681Y480194D1*
X2709120D1*
X2704311Y477818D1*
X2699558Y473009D1*
X2697126Y468256D1*
X2694750Y461071D1*
Y449077D1*
X2697126Y441948D1*
X2699558Y437139D1*
X2704311Y432386D1*
X2709120Y429954D1*
X2718681D1*
X2723435Y432386D1*
X2728243Y437139D1*
X2730620Y441948D1*
X2774744Y480139D2*
X2750867D1*
X2748491Y458639D1*
X2750867Y461016D1*
X2758052Y463448D1*
X2765182D1*
X2772367Y461016D1*
X2777176Y456262D1*
X2779552Y449077D1*
Y444324D1*
X2777176Y437139D1*
X2772367Y432331D1*
X2765182Y429954D1*
X2758052D1*
X2750867Y432331D1*
X2748491Y434763D1*
X2746059Y439516D1*
X2828189Y468437D2*
X2825812Y473190D1*
X2821003Y477999D1*
X2816250Y480375D1*
X2806689D1*
X2801880Y477999D1*
X2797127Y473190D1*
X2794695Y468437D1*
X2792319Y461252D1*
Y449259D1*
X2794695Y442129D1*
X2797127Y437320D1*
X2801880Y432567D1*
X2806689Y430135D1*
X2816250D1*
X2821003Y432567D1*
X2825812Y437320D1*
X2828189Y442129D1*
X2872313Y473190D2*
X2869936Y477943D1*
X2862751Y480320D1*
X2857998D1*
X2850813Y477943D1*
X2846004Y470758D1*
X2843628Y458820D1*
Y446882D1*
X2846004Y437320D1*
X2850813Y432512D1*
X2857998Y430135D1*
X2860374D1*
X2867504Y432512D1*
X2872313Y437320D1*
X2874689Y444505D1*
Y446882D1*
X2872313Y454067D1*
X2867504Y458820D1*
X2860374Y461197D1*
X2857998D1*
X2850813Y458820D1*
X2846004Y454067D1*
X2843628Y446882D1*
X3191294Y468438D2*
X3188918Y473192D1*
X3184109Y478000D1*
X3179356Y480377D1*
X3169794D1*
X3164986Y478000D1*
X3160233Y473192D1*
X3157801Y468438D1*
X3155424Y461253D1*
Y449260D1*
X3157801Y442130D1*
X3160233Y437322D1*
X3164986Y432568D1*
X3169794Y430137D1*
X3179356D1*
X3184109Y432568D1*
X3188918Y437322D1*
X3191294Y442130D1*
X3216295Y430137D2*
X3240227Y480321D1*
X3206733D1*
X3069243Y1118534D2*
X3066866Y1123287D1*
X3062058Y1128096D1*
X3057305Y1130472D1*
X3047743D1*
X3042935Y1128096D1*
X3038182Y1123287D1*
X3035750Y1118534D1*
X3033373Y1111349D1*
Y1099356D1*
X3035750Y1092226D1*
X3038182Y1087417D1*
X3042935Y1082664D1*
X3047743Y1080232D1*
X3057305D1*
X3062058Y1082664D1*
X3066866Y1087417D1*
X3069243Y1092226D1*
X3096620Y1130417D2*
X3089491Y1128041D1*
X3087059Y1123287D1*
Y1118479D1*
X3089491Y1113726D1*
X3094244Y1111294D1*
X3103806Y1108917D1*
X3110991Y1106541D1*
X3115744Y1101732D1*
X3118120Y1096979D1*
Y1089794D1*
X3115744Y1085041D1*
X3113367Y1082609D1*
X3106182Y1080232D1*
X3096620D1*
X3089491Y1082609D1*
X3087059Y1085041D1*
X3084682Y1089794D1*
Y1096979D1*
X3087059Y1101732D1*
X3091867Y1106541D1*
X3098997Y1108917D1*
X3108559Y1111294D1*
X3113367Y1113726D1*
X3115744Y1118479D1*
Y1123287D1*
X3113367Y1128041D1*
X3106182Y1130417D1*
X3096620D1*
X2323837Y466818D2*
X2321460Y471571D1*
X2316652Y476379D1*
X2311899Y478756D1*
X2302337D1*
X2297528Y476379D1*
X2292775Y471571D1*
X2290343Y466818D1*
X2287967Y459633D1*
Y447639D1*
X2290343Y440509D1*
X2292775Y435701D1*
X2297528Y430948D1*
X2302337Y428516D1*
X2311899D1*
X2316652Y430948D1*
X2321460Y435701D1*
X2323837Y440509D1*
X2370393Y462009D2*
X2367961Y454824D1*
X2363208Y450016D1*
X2356023Y447639D1*
X2353646D1*
X2346461Y450016D1*
X2341708Y454824D1*
X2339276Y462009D1*
Y464386D1*
X2341708Y471571D1*
X2346461Y476324D1*
X2353646Y478701D1*
X2356023D1*
X2363208Y476324D1*
X2367961Y471571D1*
X2370393Y462009D1*
Y450016D1*
X2367961Y438078D1*
X2363208Y430892D1*
X2356023Y428516D1*
X2351269D1*
X2344084Y430892D1*
X2341708Y435701D1*
X1397776Y545761D2*
Y495521D1*
X1414522D1*
X1421708Y497953D1*
X1426516Y502706D1*
X1428893Y507515D1*
X1431269Y514644D1*
Y526638D1*
X1428893Y533823D1*
X1426516Y538576D1*
X1421708Y543385D1*
X1414522Y545761D1*
X1397776D1*
X1446708Y536144D2*
X1451517Y538576D1*
X1458702Y545706D1*
Y495521D1*
X1071529Y560018D2*
Y509778D1*
X1088275D1*
X1095460Y512210D1*
X1100269Y516963D1*
X1102645Y521772D1*
X1105022Y528902D1*
Y540895D1*
X1102645Y548080D1*
X1100269Y552833D1*
X1095460Y557642D1*
X1088275Y560018D1*
X1071529D1*
X1122893Y548025D2*
Y550401D1*
X1125270Y555210D1*
X1127646Y557586D1*
X1132455Y559963D1*
X1142016D1*
X1146769Y557586D1*
X1149146Y555210D1*
X1151578Y550401D1*
Y545648D1*
X1149146Y540840D1*
X1144393Y533710D1*
X1120461Y509778D1*
X1153954D1*
X2043816Y2026537D2*
Y1988290D1*
X2041440Y1981105D1*
X2039008Y1978729D1*
X2034255Y1976297D1*
X2029446D1*
X2024693Y1978729D1*
X2022317Y1981105D1*
X2019885Y1988290D1*
Y1993043D1*
X2059256Y2016920D2*
X2064064Y2019352D1*
X2071249Y2026481D1*
Y1976297D1*
X3499024Y1057033D2*
Y1018786D1*
X3496648Y1011601D1*
X3494216Y1009225D1*
X3489463Y1006793D1*
X3484654D1*
X3479901Y1009225D1*
X3477525Y1011601D1*
X3475093Y1018786D1*
Y1023539D1*
X3516896Y1045039D2*
Y1047416D1*
X3519272Y1052224D1*
X3521649Y1054601D1*
X3526457Y1056978D1*
X3536019D1*
X3540772Y1054601D1*
X3543149Y1052224D1*
X3545580Y1047416D1*
Y1042663D1*
X3543149Y1037854D1*
X3538395Y1030724D1*
X3514464Y1006793D1*
X3547957D1*
X881200Y1079424D2*
Y1041177D1*
X878824Y1033992D1*
X876392Y1031616D1*
X871639Y1029184D1*
X866830D1*
X862077Y1031616D1*
X859701Y1033992D1*
X857269Y1041177D1*
Y1045931D1*
X901448Y1079369D2*
X927701D1*
X913386Y1060245D1*
X920571D1*
X925324Y1057869D1*
X927701Y1055492D1*
X930133Y1048307D1*
Y1043554D1*
X927701Y1036369D1*
X922948Y1031560D1*
X915763Y1029184D1*
X908578D1*
X901448Y1031560D1*
X899071Y1033992D1*
X896640Y1038745D1*
X1518101Y637971D2*
X1539601D1*
X1546786Y640403D1*
X1549218Y642780D1*
X1551595Y647533D1*
Y652341D1*
X1549218Y657094D1*
X1546786Y659526D1*
X1539601Y661903D1*
X1518101D1*
Y611663D1*
X1534848Y637971D2*
X1551595Y611663D1*
X1567034Y652286D2*
X1571842Y654718D1*
X1579027Y661848D1*
Y611663D1*
X1363437Y638478D2*
X1384936D1*
X1392122Y640910D1*
X1394553Y643286D1*
X1396930Y648039D1*
Y652848D1*
X1394553Y657601D1*
X1392122Y660033D1*
X1384936Y662409D1*
X1363437D1*
Y612169D1*
X1380183Y638478D2*
X1396930Y612169D1*
X1414801Y650416D2*
Y652793D1*
X1417178Y657601D1*
X1419554Y659978D1*
X1424363Y662354D1*
X1433924D1*
X1438678Y659978D1*
X1441054Y657601D1*
X1443486Y652793D1*
Y648039D1*
X1441054Y643231D1*
X1436301Y636101D1*
X1412369Y612169D1*
X1445863D1*
X920025Y467282D2*
X941524D1*
X948709Y469714D1*
X951141Y472091D1*
X953518Y476844D1*
Y481652D1*
X951141Y486405D1*
X948709Y488837D1*
X941524Y491214D1*
X920025D1*
Y440974D1*
X936771Y467282D2*
X953518Y440974D1*
X973766Y491159D2*
X1000019D1*
X985704Y472035D1*
X992889D1*
X997642Y469659D1*
X1000019Y467282D1*
X1002450Y460097D1*
Y455344D1*
X1000019Y448159D1*
X995265Y443350D1*
X988080Y440974D1*
X980895D1*
X973766Y443350D1*
X971389Y445782D1*
X968957Y450536D1*
X1559574Y1248223D2*
Y1212353D1*
X1561951Y1205168D1*
X1566759Y1200415D1*
X1573945Y1197983D1*
X1578698D1*
X1585883Y1200415D1*
X1590691Y1205168D1*
X1593068Y1212353D1*
Y1248223D1*
X1610939Y1236230D2*
Y1238606D1*
X1613315Y1243415D1*
X1615692Y1245791D1*
X1620501Y1248168D1*
X1630062D1*
X1634815Y1245791D1*
X1637192Y1243415D1*
X1639624Y1238606D1*
Y1233853D1*
X1637192Y1229045D1*
X1632439Y1221915D1*
X1608507Y1197983D1*
X1642000D1*
X2703362Y781505D2*
Y745635D1*
X2705738Y738450D1*
X2710547Y733697D1*
X2717732Y731265D1*
X2722485D1*
X2729670Y733697D1*
X2734479Y738450D1*
X2736855Y745635D1*
Y781505D1*
X2757103Y781450D2*
X2783356D1*
X2769041Y762327D1*
X2776226D1*
X2780979Y759950D1*
X2783356Y757574D1*
X2785788Y750388D1*
Y745635D1*
X2783356Y738450D1*
X2778603Y733642D1*
X2771418Y731265D1*
X2764233D1*
X2757103Y733642D1*
X2754726Y736074D1*
X2752294Y740827D1*
X3247477Y558533D2*
X3266600Y534601D1*
Y508293D1*
X3285723Y558533D2*
X3266600Y534601D1*
X3301162Y548916D2*
X3305971Y551348D1*
X3313156Y558478D1*
Y508293D1*
X2490107Y763970D2*
X2509231Y740038D1*
Y713730D1*
X2528354Y763970D2*
X2509231Y740038D1*
X2546225Y751976D2*
Y754353D1*
X2548602Y759161D1*
X2550978Y761538D1*
X2555787Y763915D1*
X2565348D1*
X2570101Y761538D1*
X2572478Y759161D1*
X2574910Y754353D1*
Y749600D1*
X2572478Y744791D1*
X2567725Y737661D1*
X2543793Y713730D1*
X2577286D1*
X1362528Y751278D2*
D41*
Y717784D1*
Y736908D2*
X1364959Y744093D1*
X1369713Y748901D1*
X1374521Y751278D1*
X1381706D1*
X1397454Y736908D2*
X1426139D1*
Y741716D1*
X1423762Y746525D1*
X1421386Y748901D1*
X1416577Y751278D1*
X1409392D1*
X1404639Y748901D1*
X1399831Y744093D1*
X1397454Y736908D1*
Y732155D1*
X1399831Y724970D1*
X1404639Y720216D1*
X1409392Y717784D1*
X1416577D1*
X1421386Y720216D1*
X1426139Y724970D1*
X1468195Y744093D2*
X1465819Y748901D1*
X1458634Y751278D1*
X1451449D1*
X1444264Y748901D1*
X1441887Y744093D1*
X1444264Y739340D1*
X1449072Y736908D1*
X1461010Y734531D1*
X1465819Y732155D1*
X1468195Y727346D1*
Y724970D1*
X1465819Y720216D1*
X1458634Y717784D1*
X1451449D1*
X1444264Y720216D1*
X1441887Y724970D1*
X1483943Y736908D2*
X1512628D1*
Y741716D1*
X1510252Y746525D1*
X1507875Y748901D1*
X1503067Y751278D1*
X1495882D1*
X1491128Y748901D1*
X1486320Y744093D1*
X1483943Y736908D1*
Y732155D1*
X1486320Y724970D1*
X1491128Y720216D1*
X1495882Y717784D1*
X1503067D1*
X1507875Y720216D1*
X1512628Y724970D1*
X1535561Y768024D2*
Y727346D1*
X1537938Y720216D1*
X1542746Y717784D1*
X1547500D1*
X1528376Y751278D2*
X1545123D1*
X1420085Y869093D2*
X1417709Y873901D1*
X1410524Y876278D1*
X1403339D1*
X1396153Y873901D1*
X1393777Y869093D1*
X1396153Y864340D1*
X1400962Y861908D1*
X1412900Y859531D1*
X1417709Y857155D1*
X1420085Y852346D1*
Y849970D1*
X1417709Y845216D1*
X1410524Y842784D1*
X1403339D1*
X1396153Y845216D1*
X1393777Y849970D1*
X1464573Y869093D2*
X1459765Y873901D1*
X1454956Y876278D1*
X1447827D1*
X1443018Y873901D1*
X1438265Y869093D1*
X1435833Y861908D1*
Y857155D1*
X1438265Y849970D1*
X1443018Y845216D1*
X1447827Y842784D1*
X1454956D1*
X1459765Y845216D1*
X1464573Y849970D1*
X1480321Y893024D2*
Y842784D1*
X1504253Y876278D2*
X1480321Y852346D1*
X1489883Y861908D2*
X1506630Y842784D1*
X1375028Y1001278D2*
Y967784D1*
Y991716D2*
X1382213Y998901D1*
X1387021Y1001278D1*
X1394151D1*
X1398959Y998901D1*
X1401336Y991716D1*
Y967784D1*
Y991716D2*
X1408521Y998901D1*
X1413329Y1001278D1*
X1420459D1*
X1425268Y998901D1*
X1427699Y991716D1*
Y967784D1*
X1443447Y1018024D2*
X1445824Y1015648D1*
X1448256Y1018024D1*
X1445824Y1020456D1*
X1443447Y1018024D1*
X1445824Y1001278D2*
Y967784D1*
X1490312Y994093D2*
X1487936Y998901D1*
X1480751Y1001278D1*
X1473566D1*
X1466381Y998901D1*
X1464004Y994093D1*
X1466381Y989340D1*
X1471189Y986908D1*
X1483127Y984531D1*
X1487936Y982155D1*
X1490312Y977346D1*
Y974970D1*
X1487936Y970216D1*
X1480751Y967784D1*
X1473566D1*
X1466381Y970216D1*
X1464004Y974970D1*
X1517998Y1001278D2*
X1513245Y998901D1*
X1508437Y994093D1*
X1506060Y986908D1*
Y982155D1*
X1508437Y974970D1*
X1513245Y970216D1*
X1517998Y967784D1*
X1525184D1*
X1529992Y970216D1*
X1534745Y974970D1*
X1537177Y982155D1*
Y986908D1*
X1534745Y994093D1*
X1529992Y998901D1*
X1525184Y1001278D1*
X1517998D1*
X1368778Y1126278D2*
Y1092784D1*
Y1116716D2*
X1375963Y1123901D1*
X1380772Y1126278D1*
X1387901D1*
X1392710Y1123901D1*
X1395087Y1116716D1*
Y1092784D1*
Y1116716D2*
X1402272Y1123901D1*
X1407080Y1126278D1*
X1414210D1*
X1419018Y1123901D1*
X1421450Y1116716D1*
Y1092784D1*
X1449136Y1126278D2*
X1444383Y1123901D1*
X1439575Y1119093D1*
X1437198Y1111908D1*
Y1107155D1*
X1439575Y1099970D1*
X1444383Y1095216D1*
X1449136Y1092784D1*
X1456321D1*
X1461130Y1095216D1*
X1465883Y1099970D1*
X1468315Y1107155D1*
Y1111908D1*
X1465883Y1119093D1*
X1461130Y1123901D1*
X1456321Y1126278D1*
X1449136D1*
X1510371Y1119093D2*
X1507995Y1123901D1*
X1500810Y1126278D1*
X1493625D1*
X1486439Y1123901D1*
X1484063Y1119093D1*
X1486439Y1114340D1*
X1491248Y1111908D1*
X1503186Y1109531D1*
X1507995Y1107155D1*
X1510371Y1102346D1*
Y1099970D1*
X1507995Y1095216D1*
X1500810Y1092784D1*
X1493625D1*
X1486439Y1095216D1*
X1484063Y1099970D1*
X1526119Y1143024D2*
X1528496Y1140648D1*
X1530928Y1143024D1*
X1528496Y1145456D1*
X1526119Y1143024D1*
X1528496Y1126278D2*
Y1092784D1*
X682517Y1974275D2*
X651400D1*
Y1924035D1*
Y1950343D2*
X670524D1*
X726950Y1957528D2*
Y1924035D1*
Y1950343D2*
X722197Y1955152D1*
X717388Y1957528D1*
X710259D1*
X705450Y1955152D1*
X700697Y1950343D1*
X698265Y1943158D1*
Y1938405D1*
X700697Y1931220D1*
X705450Y1926467D1*
X710259Y1924035D1*
X717388D1*
X722197Y1926467D1*
X726950Y1931220D1*
X742698Y1957528D2*
Y1924035D1*
Y1947967D2*
X749883Y1955152D1*
X754691Y1957528D1*
X761821D1*
X766630Y1955152D1*
X769006Y1947967D1*
Y1924035D1*
Y1947967D2*
X776191Y1955152D1*
X781000Y1957528D1*
X788130D1*
X792938Y1955152D1*
X795370Y1947967D1*
Y1924035D1*
X811118Y1974275D2*
X813494Y1971899D1*
X815926Y1974275D1*
X813494Y1976707D1*
X811118Y1974275D1*
X813494Y1957528D2*
Y1924035D1*
X860414Y1950343D2*
X855606Y1955152D1*
X850798Y1957528D1*
X843668D1*
X838859Y1955152D1*
X834106Y1950343D1*
X831674Y1943158D1*
Y1938405D1*
X834106Y1931220D1*
X838859Y1926467D1*
X843668Y1924035D1*
X850798D1*
X855606Y1926467D1*
X860414Y1931220D1*
X888101Y1957528D2*
X883348Y1955152D1*
X878539Y1950343D1*
X876163Y1943158D1*
Y1938405D1*
X878539Y1931220D1*
X883348Y1926467D1*
X888101Y1924035D1*
X895286D1*
X900094Y1926467D1*
X904847Y1931220D1*
X907279Y1938405D1*
Y1943158D1*
X904847Y1950343D1*
X900094Y1955152D1*
X895286Y1957528D1*
X888101D1*
X923027D2*
Y1924035D1*
Y1947967D2*
X930212Y1955152D1*
X935021Y1957528D1*
X942151D1*
X946959Y1955152D1*
X949336Y1947967D1*
Y1924035D1*
Y1947967D2*
X956521Y1955152D1*
X961329Y1957528D1*
X968459D1*
X973267Y1955152D1*
X975699Y1947967D1*
Y1924035D1*
X1040357Y1974275D2*
Y1924035D1*
X1057104D1*
X1064289Y1926467D1*
X1069097Y1931220D1*
X1071474Y1936029D1*
X1073850Y1943158D1*
Y1955152D1*
X1071474Y1962337D1*
X1069097Y1967090D1*
X1064289Y1971899D1*
X1057104Y1974275D1*
X1040357D1*
X1089598Y1957528D2*
Y1933597D1*
X1091975Y1926467D1*
X1096783Y1924035D1*
X1103968D1*
X1108722Y1926467D1*
X1115907Y1933597D1*
Y1957528D2*
Y1924035D1*
X1131655Y1957528D2*
Y1924035D1*
Y1947967D2*
X1138840Y1955152D1*
X1143648Y1957528D1*
X1150778D1*
X1155586Y1955152D1*
X1157963Y1947967D1*
Y1924035D1*
Y1947967D2*
X1165148Y1955152D1*
X1169956Y1957528D1*
X1177086D1*
X1181895Y1955152D1*
X1184327Y1947967D1*
Y1924035D1*
X1200075Y1957528D2*
Y1907288D1*
Y1950343D2*
X1204883Y1955097D1*
X1209636Y1957528D1*
X1216821D1*
X1221630Y1955097D1*
X1226383Y1950343D1*
X1228815Y1943158D1*
Y1938350D1*
X1226383Y1931220D1*
X1221630Y1926412D1*
X1216821Y1924035D1*
X1209636D1*
X1204883Y1926412D1*
X1200075Y1931220D1*
X1244563Y1943158D2*
X1273248D1*
Y1947967D1*
X1270871Y1952775D1*
X1268494Y1955152D1*
X1263686Y1957528D1*
X1256501D1*
X1251748Y1955152D1*
X1246939Y1950343D1*
X1244563Y1943158D1*
Y1938405D1*
X1246939Y1931220D1*
X1251748Y1926467D1*
X1256501Y1924035D1*
X1263686D1*
X1268494Y1926467D1*
X1273248Y1931220D1*
X1288996Y1957528D2*
Y1924035D1*
Y1943158D2*
X1291428Y1950343D1*
X1296181Y1955152D1*
X1300989Y1957528D1*
X1308174D1*
X1323922Y1924035D2*
X1357416Y1974220D1*
X1373164Y1947967D2*
X1394719D1*
X1401848Y1950343D1*
X1404280Y1952775D1*
X1406657Y1957528D1*
Y1964714D1*
X1404280Y1969467D1*
X1401848Y1971899D1*
X1394719Y1974275D1*
X1373164D1*
Y1924035D1*
X1422405Y1957528D2*
Y1924035D1*
Y1943158D2*
X1424837Y1950343D1*
X1429590Y1955152D1*
X1434398Y1957528D1*
X1441583D1*
X1469270D2*
X1464517Y1955152D1*
X1459708Y1950343D1*
X1457332Y1943158D1*
Y1938405D1*
X1459708Y1931220D1*
X1464517Y1926467D1*
X1469270Y1924035D1*
X1476455D1*
X1481263Y1926467D1*
X1486016Y1931220D1*
X1488448Y1938405D1*
Y1943158D1*
X1486016Y1950343D1*
X1481263Y1955152D1*
X1476455Y1957528D1*
X1469270D1*
X1532881Y1955152D2*
Y1916850D1*
X1530505Y1909720D1*
X1528128Y1907288D1*
X1523320Y1904912D1*
X1516135D1*
X1511381Y1907288D1*
X1532881Y1947967D2*
X1528128Y1952720D1*
X1523320Y1955152D1*
X1516135D1*
X1511381Y1952720D1*
X1506573Y1947967D1*
X1504196Y1940782D1*
Y1935973D1*
X1506573Y1928844D1*
X1511381Y1924035D1*
X1516135Y1921659D1*
X1523320D1*
X1528128Y1924035D1*
X1532881Y1928844D1*
X1548629Y1957528D2*
Y1924035D1*
Y1943158D2*
X1551061Y1950343D1*
X1555814Y1955152D1*
X1560623Y1957528D1*
X1567808D1*
X1612241D2*
Y1924035D1*
Y1950343D2*
X1607487Y1955152D1*
X1602679Y1957528D1*
X1595549D1*
X1590741Y1955152D1*
X1585988Y1950343D1*
X1583556Y1943158D1*
Y1938405D1*
X1585988Y1931220D1*
X1590741Y1926467D1*
X1595549Y1924035D1*
X1602679D1*
X1607487Y1926467D1*
X1612241Y1931220D1*
X1627989Y1957528D2*
Y1924035D1*
Y1947967D2*
X1635174Y1955152D1*
X1639982Y1957528D1*
X1647112D1*
X1651920Y1955152D1*
X1654297Y1947967D1*
Y1924035D1*
Y1947967D2*
X1661482Y1955152D1*
X1666290Y1957528D1*
X1673420D1*
X1678229Y1955152D1*
X1680661Y1947967D1*
Y1924035D1*
X1696409Y1957528D2*
Y1924035D1*
Y1947967D2*
X1703594Y1955152D1*
X1708402Y1957528D1*
X1715532D1*
X1720340Y1955152D1*
X1722717Y1947967D1*
Y1924035D1*
Y1947967D2*
X1729902Y1955152D1*
X1734710Y1957528D1*
X1741840D1*
X1746649Y1955152D1*
X1749080Y1947967D1*
Y1924035D1*
X1764828Y1943158D2*
X1793513D1*
Y1947967D1*
X1791137Y1952775D1*
X1788760Y1955152D1*
X1783952Y1957528D1*
X1776767D1*
X1772014Y1955152D1*
X1767205Y1950343D1*
X1764828Y1943158D1*
Y1938405D1*
X1767205Y1931220D1*
X1772014Y1926467D1*
X1776767Y1924035D1*
X1783952D1*
X1788760Y1926467D1*
X1793513Y1931220D1*
X1809261Y1957528D2*
Y1924035D1*
Y1943158D2*
X1811693Y1950343D1*
X1816446Y1955152D1*
X1821255Y1957528D1*
X1828440D1*
X2675022Y1974275D2*
Y1924035D1*
Y1947967D2*
X2682207Y1955152D1*
X2687016Y1957528D1*
X2694201D1*
X2698954Y1955152D1*
X2701331Y1947967D1*
Y1924035D1*
X2724264Y1974275D2*
Y1933597D1*
X2726640Y1926467D1*
X2731449Y1924035D1*
X2736202D1*
X2717079Y1957528D2*
X2733825D1*
X2759135Y1974275D2*
Y1933597D1*
X2761512Y1926467D1*
X2766320Y1924035D1*
X2771073D1*
X2751950Y1957528D2*
X2768697D1*
X2786821D2*
Y1907288D1*
Y1950343D2*
X2791630Y1955097D1*
X2796383Y1957528D1*
X2803568D1*
X2808376Y1955097D1*
X2813130Y1950343D1*
X2815561Y1943158D1*
Y1938350D1*
X2813130Y1931220D1*
X2808376Y1926412D1*
X2803568Y1924035D1*
X2796383D1*
X2791630Y1926412D1*
X2786821Y1931220D1*
X2833741Y1957528D2*
X2831309Y1955097D1*
X2833741Y1952720D1*
X2836118Y1955097D1*
X2833741Y1957528D1*
Y1928844D2*
X2831309Y1926412D1*
X2833741Y1924035D1*
X2836118Y1926412D1*
X2833741Y1928844D1*
X2851866Y1924035D2*
X2885359Y1974220D1*
X2901107Y1924035D2*
X2934601Y1974220D1*
X2979089Y1950343D2*
X2974280Y1955152D1*
X2969472Y1957528D1*
X2962342D1*
X2957534Y1955152D1*
X2952780Y1950343D1*
X2950349Y1943158D1*
Y1938405D1*
X2952780Y1931220D1*
X2957534Y1926467D1*
X2962342Y1924035D1*
X2969472D1*
X2974280Y1926467D1*
X2979089Y1931220D1*
X2994837Y1974275D2*
Y1924035D1*
X3010585Y1957528D2*
Y1933597D1*
X3012961Y1926467D1*
X3017770Y1924035D1*
X3024955D1*
X3029708Y1926467D1*
X3036893Y1933597D1*
Y1957528D2*
Y1924035D1*
X3078949Y1950343D2*
X3076573Y1955152D1*
X3069388Y1957528D1*
X3062203D1*
X3055018Y1955152D1*
X3052641Y1950343D1*
X3055018Y1945590D1*
X3059826Y1943158D1*
X3071764Y1940782D1*
X3076573Y1938405D1*
X3078949Y1933597D1*
Y1931220D1*
X3076573Y1926467D1*
X3069388Y1924035D1*
X3062203D1*
X3055018Y1926467D1*
X3052641Y1931220D1*
X3101883Y1974275D2*
Y1933597D1*
X3104259Y1926467D1*
X3109068Y1924035D1*
X3113821D1*
X3094698Y1957528D2*
X3111444D1*
X3129569Y1943158D2*
X3158254D1*
Y1947967D1*
X3155877Y1952775D1*
X3153501Y1955152D1*
X3148692Y1957528D1*
X3141507D1*
X3136754Y1955152D1*
X3131945Y1950343D1*
X3129569Y1943158D1*
Y1938405D1*
X3131945Y1931220D1*
X3136754Y1926467D1*
X3141507Y1924035D1*
X3148692D1*
X3153501Y1926467D1*
X3158254Y1931220D1*
X3174002Y1957528D2*
Y1924035D1*
Y1943158D2*
X3176434Y1950343D1*
X3181187Y1955152D1*
X3185995Y1957528D1*
X3193180D1*
X3208928D2*
Y1924035D1*
Y1943158D2*
X3211360Y1950343D1*
X3216113Y1955152D1*
X3220922Y1957528D1*
X3228107D1*
X3243855D2*
Y1924035D1*
Y1943158D2*
X3246287Y1950343D1*
X3251040Y1955152D1*
X3255848Y1957528D1*
X3263033D1*
X3281158Y1928844D2*
X3278781Y1926412D1*
X3281158Y1924035D1*
X3283590Y1926412D1*
X3281158Y1928844D1*
X3328078Y1950343D2*
X3323270Y1955152D1*
X3318461Y1957528D1*
X3311331D1*
X3306523Y1955152D1*
X3301770Y1950343D1*
X3299338Y1943158D1*
Y1938405D1*
X3301770Y1931220D1*
X3306523Y1926467D1*
X3311331Y1924035D1*
X3318461D1*
X3323270Y1926467D1*
X3328078Y1931220D1*
X3355764Y1957528D2*
X3351011Y1955152D1*
X3346203Y1950343D1*
X3343826Y1943158D1*
Y1938405D1*
X3346203Y1931220D1*
X3351011Y1926467D1*
X3355764Y1924035D1*
X3362949D1*
X3367758Y1926467D1*
X3372511Y1931220D1*
X3374943Y1938405D1*
Y1943158D1*
X3372511Y1950343D1*
X3367758Y1955152D1*
X3362949Y1957528D1*
X3355764D1*
X3390691D2*
Y1924035D1*
Y1947967D2*
X3397876Y1955152D1*
X3402684Y1957528D1*
X3409814D1*
X3414623Y1955152D1*
X3416999Y1947967D1*
Y1924035D1*
Y1947967D2*
X3424184Y1955152D1*
X3428993Y1957528D1*
X3436122D1*
X3440931Y1955152D1*
X3443363Y1947967D1*
Y1924035D1*
X732300Y613398D2*
Y582800D1*
X730399Y577052D1*
X728453Y575151D1*
X724651Y573206D1*
X720804D1*
X717002Y575151D1*
X715100Y577052D1*
X713155Y582800D1*
Y586603D1*
X761446Y613398D2*
Y573206D1*
X748048Y613398D2*
X774843D1*
X821232Y573206D2*
X805890Y613398D1*
X790591Y573206D1*
X796339Y586603D2*
X815484D1*
X865676Y603847D2*
X863775Y607650D1*
X859928Y611496D1*
X856126Y613398D1*
X848476D1*
X844630Y611496D1*
X840827Y607650D1*
X838882Y603847D1*
X836980Y598099D1*
Y588504D1*
X838882Y582800D1*
X840827Y578954D1*
X844630Y575151D1*
X848476Y573206D1*
X856126D1*
X859928Y575151D1*
X863775Y578954D1*
X865676Y582800D1*
Y588504D1*
X856126D1*
X881424Y573206D2*
X908219Y613353D1*
X952663Y603847D2*
X950762Y607650D1*
X946915Y611496D1*
X943112Y613398D1*
X935463D1*
X931616Y611496D1*
X927814Y607650D1*
X925868Y603847D1*
X923967Y598099D1*
Y588504D1*
X925868Y582800D1*
X927814Y578954D1*
X931616Y575151D1*
X935463Y573206D1*
X943112D1*
X946915Y575151D1*
X950762Y578954D1*
X952663Y582800D1*
Y588504D1*
X943112D1*
X968411Y592351D2*
X985655D1*
X991359Y594252D1*
X993304Y596198D1*
X995206Y600000D1*
Y605748D1*
X993304Y609551D1*
X991359Y611496D1*
X985655Y613398D1*
X968411D1*
Y573206D1*
X1010954Y613398D2*
Y573206D1*
X1038198Y613398D2*
X1034351Y611496D1*
X1030549Y607650D1*
X1028603Y603847D1*
X1026702Y598099D1*
Y588504D1*
X1028603Y582800D1*
X1030549Y578954D1*
X1034351Y575151D1*
X1038198Y573206D1*
X1045847D1*
X1049650Y575151D1*
X1053496Y578954D1*
X1055398Y582800D1*
X1057299Y588504D1*
Y598099D1*
X1055398Y603847D1*
X1053496Y607650D1*
X1049650Y611496D1*
X1045847Y613398D1*
X1038198D1*
X1820682Y705889D2*
X1805339Y746081D1*
X1790041Y705889D1*
X1795789Y719287D2*
X1814934D1*
X1849827Y746081D2*
Y705889D1*
X1836430Y746081D2*
X1863225D1*
X1878973Y732684D2*
Y705889D1*
Y725035D2*
X1884721Y730783D1*
X1888568Y732684D1*
X1894271D1*
X1898118Y730783D1*
X1900019Y725035D1*
Y705889D1*
Y725035D2*
X1905768Y730783D1*
X1909614Y732684D1*
X1915318D1*
X1919165Y730783D1*
X1921110Y725035D1*
Y705889D1*
X1936858Y721188D2*
X1959806D1*
Y725035D1*
X1957905Y728881D1*
X1956004Y730783D1*
X1952157Y732684D1*
X1946409D1*
X1942606Y730783D1*
X1938760Y726936D1*
X1936858Y721188D1*
Y717385D1*
X1938760Y711637D1*
X1942606Y707835D1*
X1946409Y705889D1*
X1952157D1*
X1956004Y707835D1*
X1959806Y711637D1*
X1998502Y730783D2*
Y700141D1*
X1996601Y694437D1*
X1994700Y692492D1*
X1990853Y690591D1*
X1985105D1*
X1981302Y692492D1*
X1998502Y725035D2*
X1994700Y728837D1*
X1990853Y730783D1*
X1985105D1*
X1981302Y728837D1*
X1977456Y725035D1*
X1975554Y719287D1*
Y715440D1*
X1977456Y709736D1*
X1981302Y705889D1*
X1985105Y703988D1*
X1990853D1*
X1994700Y705889D1*
X1998502Y709736D1*
X2037198Y732684D2*
Y705889D1*
Y726936D2*
X2033396Y730783D1*
X2029549Y732684D1*
X2023845D1*
X2019998Y730783D1*
X2016196Y726936D1*
X2014250Y721188D1*
Y717385D1*
X2016196Y711637D1*
X2019998Y707835D1*
X2023845Y705889D1*
X2029549D1*
X2033396Y707835D1*
X2037198Y711637D1*
X2075894Y740333D2*
X2073993Y744136D1*
X2068245Y746037D1*
X2064442D1*
X2058694Y744136D1*
X2054847Y738388D1*
X2052946Y728837D1*
Y719287D1*
X2054847Y711637D1*
X2058694Y707791D1*
X2064442Y705889D1*
X2066344D1*
X2072047Y707791D1*
X2075894Y711637D1*
X2077795Y717385D1*
Y719287D1*
X2075894Y725035D1*
X2072047Y728837D1*
X2066344Y730738D1*
X2064442D1*
X2058694Y728837D1*
X2054847Y725035D1*
X2052946Y719287D1*
X2112689Y705889D2*
Y746037D1*
X2093543Y719287D1*
X2122239D1*
X2943985Y874899D2*
X2942083Y878702D1*
X2938237Y882549D1*
X2934434Y884450D1*
X2926785D1*
X2922938Y882549D1*
X2919135Y878702D1*
X2917190Y874899D1*
X2915289Y869151D1*
Y859557D1*
X2917190Y853853D1*
X2919135Y850006D1*
X2922938Y846204D1*
X2926785Y844258D1*
X2934434D1*
X2938237Y846204D1*
X2942083Y850006D1*
X2943985Y853853D1*
X2959733Y884450D2*
Y844258D1*
X2986527Y884450D2*
Y844258D1*
X2959733Y865305D2*
X2986527D1*
X3006122Y884406D2*
X3027125D1*
X3015673Y869107D1*
X3021421D1*
X3025223Y867206D1*
X3027125Y865305D1*
X3029070Y859557D1*
Y855754D1*
X3027125Y850006D1*
X3023322Y846159D1*
X3017574Y844258D1*
X3011826D1*
X3006122Y846159D1*
X3004221Y848105D1*
X3002275Y851907D1*
X3063963Y844258D2*
Y884406D1*
X3044818Y857655D1*
X3073514D1*
X3100758Y884406D2*
X3095010Y882505D1*
X3091163Y876757D1*
X3089262Y867206D1*
Y861458D1*
X3091163Y851907D1*
X3095010Y846159D1*
X3100758Y844258D1*
X3104561D1*
X3110309Y846159D1*
X3114111Y851907D1*
X3116057Y861458D1*
Y867206D1*
X3114111Y876757D1*
X3110309Y882505D1*
X3104561Y884406D1*
X3100758D1*
X3114111Y876757D2*
X3091163Y851907D1*
X3596049Y682557D2*
X3555857D1*
X3596049Y667258D1*
X3555857Y651959D1*
X3596049D1*
X3555857Y698305D2*
X3557758Y700206D1*
X3555857Y702151D1*
X3553912Y700206D1*
X3555857Y698305D1*
X3569254Y700206D2*
X3596049D1*
X3569254Y717899D2*
X3596049D1*
X3576904D2*
X3571156Y723647D1*
X3569254Y727494D1*
Y733198D1*
X3571156Y737045D1*
X3576904Y738946D1*
X3596049D1*
X3555857Y754694D2*
X3557758Y756595D1*
X3555857Y758541D1*
X3553912Y756595D1*
X3555857Y754694D1*
X3569254Y756595D2*
X3596049D1*
X3555857Y774289D2*
X3584553D1*
X3590301Y776190D1*
X3594104Y780037D1*
X3596049Y785785D1*
Y789587D1*
X3594104Y795335D1*
X3590301Y799182D1*
X3584553Y801083D1*
X3555857Y801084D1*
X3561605Y843626D2*
X3557758Y839824D1*
X3555857Y834076D1*
Y826426D1*
X3557758Y820678D1*
X3561605Y816832D1*
X3565408D1*
X3569254Y818777D1*
X3571156Y820678D1*
X3573057Y824481D1*
X3576904Y835977D1*
X3578805Y839824D1*
X3580750Y841725D1*
X3584553Y843626D1*
X3590301D1*
X3594104Y839824D1*
X3596049Y834076D1*
Y826426D1*
X3594104Y820678D1*
X3590301Y816832D1*
X3555857Y859374D2*
X3596049D1*
Y876618D1*
X3594104Y882366D1*
X3592202Y884268D1*
X3588400Y886169D1*
X3582652D1*
X3578805Y884268D1*
X3576904Y882366D1*
X3575002Y876618D1*
X3573057Y882366D1*
X3571156Y884268D1*
X3567353Y886169D1*
X3563506D1*
X3559704Y884268D1*
X3557758Y882366D1*
X3555857Y876618D1*
Y859374D1*
X3575002D2*
Y876618D1*
X1213298Y459307D2*
X1230498D1*
X1236246Y461253D1*
X1238191Y463154D1*
X1240093Y466957D1*
Y470803D1*
X1238191Y474606D1*
X1236246Y476551D1*
X1230498Y478453D1*
X1213298D1*
Y438261D1*
X1226695Y459307D2*
X1240093Y438261D1*
X1255841Y453559D2*
X1278789D1*
Y457406D1*
X1276887Y461253D1*
X1274986Y463154D1*
X1271139Y465055D1*
X1265391D1*
X1261589Y463154D1*
X1257742Y459307D1*
X1255841Y453559D1*
Y449757D1*
X1257742Y444009D1*
X1261589Y440206D1*
X1265391Y438261D1*
X1271139D1*
X1274986Y440206D1*
X1278789Y444009D1*
X1317484Y478453D2*
Y438261D1*
Y459307D2*
X1313682Y463154D1*
X1309835Y465055D1*
X1304087D1*
X1300285Y463154D1*
X1296438Y459307D1*
X1294537Y453559D1*
Y449757D1*
X1296438Y444009D1*
X1300285Y440206D1*
X1304087Y438261D1*
X1309835D1*
X1313682Y440206D1*
X1317484Y444009D1*
X1407891Y468054D2*
X1405990Y471857D1*
X1402143Y475704D1*
X1398341Y477605D1*
X1390692D1*
X1386845Y475704D1*
X1383042Y471857D1*
X1381097Y468054D1*
X1379196Y462306D1*
Y452711D1*
X1381097Y447008D1*
X1383042Y443161D1*
X1386845Y439358D1*
X1390692Y437413D1*
X1398341D1*
X1402143Y439358D1*
X1405990Y443161D1*
X1407891Y447008D1*
Y452711D1*
X1398341D1*
X1423640Y464208D2*
Y437413D1*
Y452711D2*
X1425585Y458460D1*
X1429388Y462306D1*
X1433234Y464208D1*
X1438982D1*
X1454730D2*
Y437413D1*
Y456558D2*
X1460478Y462306D1*
X1464325Y464208D1*
X1470029D1*
X1473876Y462306D1*
X1475777Y456558D1*
Y437413D1*
X2921538Y558007D2*
X2925385Y559953D1*
X2931133Y565656D1*
Y525509D1*
X2948826Y556106D2*
Y558007D1*
X2950728Y561854D1*
X2952629Y563755D1*
X2956476Y565656D1*
X2964125D1*
X2967928Y563755D1*
X2969829Y561854D1*
X2971774Y558007D1*
Y554205D1*
X2969829Y550358D1*
X2966026Y544654D1*
X2946881Y525509D1*
X2973676D1*
X3020021D2*
Y565701D1*
X3004722Y525509D1*
X2989424Y565701D1*
Y525509D1*
X3035769Y565701D2*
Y525509D1*
X3062563Y565701D2*
Y525509D1*
X3035769Y546555D2*
X3062563D1*
X3078312Y552303D2*
X3099358D1*
X3078312Y525509D1*
X3099358D1*
X2462956Y564852D2*
X2457252Y562951D1*
X2455307Y559148D1*
Y555301D1*
X2457252Y551499D1*
X2461055Y549553D1*
X2468704Y547652D1*
X2474452Y545751D1*
X2478255Y541904D1*
X2480156Y538102D1*
Y532354D1*
X2478255Y528551D1*
X2476353Y526605D1*
X2470605Y524704D1*
X2462956D1*
X2457252Y526605D1*
X2455307Y528551D1*
X2453406Y532354D1*
Y538102D1*
X2455307Y541904D1*
X2459154Y545751D1*
X2464857Y547652D1*
X2472507Y549553D1*
X2476353Y551499D1*
X2478255Y555301D1*
Y559148D1*
X2476353Y562951D1*
X2470605Y564852D1*
X2462956D1*
X2526501Y524704D2*
Y564896D1*
X2511203Y524704D1*
X2495904Y564896D1*
Y524704D1*
X2542249Y564896D2*
Y524704D1*
X2569044Y564896D2*
Y524704D1*
X2542249Y545751D2*
X2569044D1*
X2584792Y551499D2*
X2605839D1*
X2584792Y524704D1*
X2605839D1*
X1952030Y1331164D2*
D74*
X1902243D1*
Y1250780D1*
Y1292874D2*
X1932840D1*
X1976732D2*
X2011132D1*
X2022628Y1296765D1*
X2026519Y1300567D1*
X2030322Y1308172D1*
Y1315866D1*
X2026519Y1323471D1*
X2022628Y1327362D1*
X2011132Y1331164D1*
X1976732D1*
Y1250780D1*
X2003527Y1292874D2*
X2030322Y1250780D1*
X2078017Y1331164D2*
X2070323Y1327362D1*
X2062718Y1319668D1*
X2058827Y1312063D1*
X2055025Y1300567D1*
Y1281377D1*
X2058827Y1269970D1*
X2062718Y1262276D1*
X2070323Y1254671D1*
X2078017Y1250780D1*
X2093315D1*
X2100920Y1254671D1*
X2108614Y1262276D1*
X2112416Y1269970D1*
X2116219Y1281377D1*
Y1300567D1*
X2112416Y1312063D1*
X2108614Y1319668D1*
X2100920Y1327362D1*
X2093315Y1331164D1*
X2078017D1*
X2194511D2*
Y1250780D1*
X2140922Y1331164D1*
Y1250780D1*
X2246009Y1331164D2*
Y1250780D1*
X2219214Y1331164D2*
X2272803D1*
X1936011Y1926180D2*
Y1845796D1*
X1970500D1*
X1981996Y1849687D1*
X1985798Y1853489D1*
X1989601Y1861094D1*
Y1872590D1*
X1985798Y1880284D1*
X1981996Y1884086D1*
X1970500Y1887889D1*
X1981996Y1891780D1*
X1985798Y1895583D1*
X1989601Y1903188D1*
Y1910881D1*
X1985798Y1918486D1*
X1981996Y1922377D1*
X1970500Y1926180D1*
X1936011D1*
Y1887889D2*
X1970500D1*
X2075586Y1845796D2*
X2044901Y1926180D1*
X2014304Y1845796D1*
X2025800Y1872590D2*
X2064090D1*
X2157681Y1907079D2*
X2153879Y1914684D1*
X2146185Y1922377D1*
X2138580Y1926180D1*
X2123281D1*
X2115588Y1922377D1*
X2107983Y1914684D1*
X2104092Y1907079D1*
X2100289Y1895583D1*
Y1876393D1*
X2104092Y1864985D1*
X2107983Y1857292D1*
X2115588Y1849687D1*
X2123281Y1845796D1*
X2138580D1*
X2146185Y1849687D1*
X2153879Y1857292D1*
X2157681Y1864985D1*
X2182384Y1926180D2*
Y1845796D1*
X2235973Y1926180D2*
X2182384Y1872590D1*
X2201485Y1891780D2*
X2235973Y1845796D1*
M02*
